{
.appVersion = "3151";
.formatVersion = 3;
customParameters = (
{
name = vendorID;
value = "1BOU";
},
{
name = panose;
value = (
0,
0,
9,
0,
0,
0,
0,
0,
0,
0
);
},
{
name = unicodeRanges;
value = (
0,
1,
2,
3,
5,
13,
31,
33,
35,
38,
45,
60,
63,
67
);
},
{
name = codePageRanges;
value = (
"1252",
"1256"
);
},
{
name = fsType;
value = (
);
},
{
name = glyphOrder;
value = (
.notdef,
uni000D,
space,
exclam,
quotedbl,
numbersign,
dollar,
percent,
ampersand,
quotesingle,
parenleft,
parenright,
asterisk,
plus,
comma,
hyphen,
period,
slash,
zero,
one,
two,
three,
four,
five,
six,
seven,
eight,
nine,
colon,
semicolon,
less,
equal,
greater,
question,
at,
A,
B,
C,
D,
E,
F,
G,
H,
I,
J,
K,
L,
M,
N,
O,
P,
Q,
R,
S,
T,
U,
V,
W,
X,
Y,
Z,
bracketleft,
backslash,
bracketright,
asciicircum,
underscore,
grave,
a,
b,
c,
d,
e,
f,
g,
h,
i,
j,
k,
l,
m,
n,
o,
p,
q,
r,
s,
t,
u,
v,
w,
x,
y,
z,
braceleft,
bar,
braceright,
asciitilde,
exclamdown,
cent,
sterling,
yen,
brokenbar,
section,
dieresis,
copyright,
ordfeminine,
guillemotleft,
uni00AD,
registered,
macron,
degree,
plusminus,
twosuperior,
threesuperior,
acute,
paragraph,
periodcentered,
cedilla,
onesuperior,
ordmasculine,
guillemotright,
onequarter,
onehalf,
threequarters,
questiondown,
Agrave,
Aacute,
Acircumflex,
Atilde,
Adieresis,
Aring,
AE,
Ccedilla,
Egrave,
Eacute,
Ecircumflex,
Edieresis,
Igrave,
Iacute,
Icircumflex,
Idieresis,
Eth,
Ntilde,
Ograve,
Oacute,
Ocircumflex,
Otilde,
Odieresis,
multiply,
Oslash,
Ugrave,
Uacute,
Ucircumflex,
Udieresis,
Yacute,
Thorn,
germandbls,
agrave,
aacute,
acircumflex,
atilde,
adieresis,
aring,
ae,
ccedilla,
egrave,
eacute,
ecircumflex,
edieresis,
igrave,
iacute,
icircumflex,
idieresis,
eth,
ntilde,
ograve,
oacute,
ocircumflex,
otilde,
odieresis,
divide,
oslash,
ugrave,
uacute,
ucircumflex,
udieresis,
yacute,
thorn,
ydieresis,
dotlessi,
Lslash,
lslash,
OE,
oe,
Scaron,
scaron,
Ydieresis,
Zcaron,
zcaron,
florin,
circumflex,
caron,
breve,
dotaccent,
ring,
ogonek,
tilde,
hungarumlaut,
uni03BC,
uni060C,

glyphs = (
{
glyphname = .notdef;
layers = (
{
layerId = m01;
shapes = (
{
closed = 1;
nodes = (
(445,-206,l),
(79,-206,l),
(79,497,l),
(445,497,l)
);
},
{
closed = 1;
nodes = (
(506,-268,l),
(506,559,l),
(18,559,l),
(18,-268,l)
);
},
{
closed = 1;
nodes = (
(293,-70,o),
(293,-48,qs),
(293,-26,o),
(265,3,o),
(243,3,qs),
(221,3,o),
(192,-26,o),
(192,-48,qs),
(192,-70,o),
(221,-100,o),
(243,-100,qs),
(264,-100,o)
);
},
{
closed = 1;
nodes = (
(217,40,qs),
(268,40,ls),
(276,40,o),
(276,49,qs),
(276,67,ls),
(276,86,o),
(293,99,qs),
(359,148,o),
(409,219,o),
(409,264,qs),
(409,320,o),
(370,353,qs),
(328,390,o),
(251,390,qs),
(197,390,o),
(148,368,qs),
(100,348,o),
(114,305,qs),
(120,286,ls),
(122,279,o),
(129,279,qs),
(133,279,o),
(140,283,qs),
(196,314,o),
(250,314,qs),
(324,314,o),
(324,252,qs),
(324,214,o),
(271,171,qs),
(232,139,o),
(208,103,o),
(208,77,qs),
(208,49,ls),
(208,40,o)
);
}
);
userData = {
assembly = "NPUSHB[ ]	/* 87 values pushed */
0 7 6 9 6 7 9 128 0 9 5 6 9 5 126 0 2 10 1 1 8 2 1 103 0 8 0 6 7 8 6 105 0 5 11 1 4 0 5 4 105 0 0 3 3 0 87 0 0 0 3 95 0 3 0 3 79 9 8 0 0 53 50 40 38 33 31 29 27 15 13 8 19 9 19 7 6 5 4 0 3 0 3 17 12 6 23 
CALL[ ]	/* CallFunction */";
};
width = 524;
}
);
note = ".notdef";
},
{
glyphname = exclam;
layers = (
{
layerId = m01;
shapes = (
{
closed = 1;
nodes = (
(27,25,o),
(27,51,qs),
(27,77,o),
(61,111,o),
(86,111,qs),
(112,111,o),
(145,77,o),
(145,51,qs),
(145,24,o),
(112,-10,o),
(86,-10,qs),
(61,-10,o)
);
},
{
closed = 1;
nodes = (
(37,556,o),
(47,556,qs),
(56,556,ls),
(135,556,o),
(134,468,qs),
(126,166,ls),
(126,155,o),
(116,155,qs),
(58,155,ls),
(47,155,o),
(47,166,qs),
(37,544,ls)
);
}
);
userData = {
assembly = "NPUSHB[ ]	/* 37 values pushed */
0 2 2 3 97 0 3 3 39 77 0 1 1 0 97 4 1 0 0 46 0 78 1 0 22 19 16 13 7 5 0 11 1 11 5 9 22 
CALL[ ]	/* CallFunction */";
};
width = 175;
}
);
note = exclam;
unicode = 33;
},
{
glyphname = quotedbl;
layers = (
{
layerId = m01;
shapes = (
{
closed = 1;
nodes = (
(26,556,o),
(38,556,qs),
(55,556,ls),
(97,556,o),
(124,520,o),
(119,473,qs),
(110,372,l),
(108,362,o),
(99,362,qs),
(54,362,ls),
(45,362,o),
(44,372,qs),
(27,544,ls)
);
},
{
closed = 1;
nodes = (
(168,556,o),
(180,556,qs),
(197,556,ls),
(240,556,o),
(268,521,o),
(263,473,qs),
(254,372,l),
(252,362,o),
(243,362,qs),
(197,362,ls),
(187,362,o),
(186,372,qs),
(170,544,ls)
);
}
);
userData = {
assembly = "NPUSHB[ ]	/* 20 values pushed */
2 1 0 0 1 97 3 1 1 1 39 0 78 52 51 52 49 4 9 26 
CALL[ ]	/* CallFunction */";
};
width = 289;
}
);
note = quotedbl;
unicode = 34;
},
{
glyphname = numbersign;
layers = (
{
layerId = m01;
shapes = (
{
closed = 1;
nodes = (
(21,143,o),
(24,154,qs),
(36,199,ls),
(40,210,o),
(49,210,qs),
(112,210,l),
(145,342,l),
(82,342,ls),
(71,342,o),
(74,353,qs),
(85,398,ls),
(88,408,o),
(98,408,qs),
(161,408,l),
(195,544,ls),
(198,556,o),
(208,556,qs),
(231,556,ls),
(286,556,o),
(273,493,qs),
(251,408,l),
(383,408,l),
(415,544,ls),
(418,556,o),
(430,556,qs),
(451,556,ls),
(508,556,o),
(493,493,qs),
(471,408,l),
(535,408,ls),
(547,408,o),
(544,398,qs),
(533,353,ls),
(530,342,o),
(519,342,qs),
(456,342,l),
(423,210,l),
(485,210,ls),
(498,210,o),
(494,199,q),
(483,154,l),
(479,143,o),
(469,143,qs),
(406,143,l),
(375,11,l),
(371,0,o),
(364,0,qs),
(293,0,ls),
(283,0,o),
(285,11,qs),
(316,143,l),
(186,143,l),
(153,11,ls),
(150,0,o),
(142,0,qs),
(72,0,ls),
(61,0,o),
(64,11,qs),
(95,143,l),
(33,143,ls)
);
},
{
closed = 1;
nodes = (
(366,342,l),
(236,342,l),
(202,210,l),
(333,210,l)
);
}
);
userData = {
assembly = "NPUSHB[ ]	/* 73 values pushed */
10 8 2 6 14 11 2 5 4 6 5 104 17 15 12 3 4 16 13 3 3 1 0 4 1 103 9 1 7 7 39 77 2 1 0 0 40 0 78 60 60 0 0 60 63 60 63 62 61 0 59 0 58 55 53 52 50 47 45 43 40 18 50 35 33 35 34 50 18 50 18 9 31 
CALL[ ]	/* CallFunction */";
};
width = 564;
}
);
note = numbersign;
unicode = 35;
},
{
glyphname = dollar;
layers = (
{
layerId = m01;
shapes = (
{
closed = 1;
nodes = (
(116,276,o),
(42,347,o),
(42,408,qs),
(42,470,o),
(85,512,qs),
(132,559,o),
(212,566,q),
(212,611,ls),
(212,621,o),
(223,621,qs),
(255,621,ls),
(266,621,o),
(266,611,qs),
(266,566,l),
(318,563,o),
(370,543,qs),
(424,523,o),
(411,469,qs),
(406,449,ls),
(403,438,o),
(396,438,qs),
(390,438,o),
(380,443,qs),
(326,471,o),
(266,478,q),
(266,321,l),
(341,296,o),
(372,275,qs),
(433,234,o),
(433,163,qs),
(433,100,o),
(393,55,qs),
(348,3,o),
(266,-8,q),
(266,-54,ls),
(266,-65,o),
(255,-65,qs),
(223,-65,ls),
(212,-65,o),
(212,-54,qs),
(212,-10,l),
(128,-7,o),
(76,33,qs),
(24,74,o),
(24,131,qs),
(24,152,o),
(38,152,qs),
(45,152,o),
(50,147,qs),
(119,77,o),
(212,76,q),
(212,244,l)
);
},
{
closed = 1;
nodes = (
(338,94,o),
(338,152,qs),
(338,195,o),
(266,225,q),
(266,79,l)
);
},
{
closed = 1;
nodes = (
(135,471,o),
(135,413,qs),
(135,368,o),
(212,339,q),
(212,479,l)
);
}
);
userData = {
assembly = "NPUSHB[ ]	/* 26 values pushed */
44 1 5 6 61 26 2 4 5 57 52 51 25 4 1 4 56 1 0 1 17 1 2 0 5 76 
MPPEM[ ]	/* MeasurePixelPerEm */
PUSHB[ ]	/* 1 value pushed */
49 
LT[ ]	/* LessThan */
IF[ ]	/* If */
NPUSHB[ ]	/* 38 values pushed */
0 4 5 1 5 4 1 128 0 1 0 5 1 0 126 0 6 0 3 6 3 101 0 5 5 39 77 0 0 0 2 97 0 2 2 46 2 78 
ELSE[ ]	/* Else */
NPUSHB[ ]	/* 40 values pushed */
0 5 6 4 6 5 4 128 0 4 1 6 4 1 126 0 1 0 6 1 0 126 0 6 0 3 6 3 101 0 0 0 2 97 0 2 2 46 2 78 
EIF[ ]	/* EndIf */
NPUSHB[ ]	/* 10 values pushed */
50 21 46 50 20 34 16 7 9 29 
CALL[ ]	/* CallFunction */";
};
width = 462;
}
);
note = dollar;
unicode = 36;
},
{
glyphname = percent;
layers = (
{
layerId = m01;
shapes = (
{
closed = 1;
nodes = (
(691,162,qs),
(691,268,o),
(620,268,qs),
(548,268,o),
(548,162,qs),
(548,59,o),
(620,59,qs),
(691,59,o)
);
},
{
closed = 1;
nodes = (
(248,393,qs),
(248,498,o),
(175,498,qs),
(105,498,o),
(105,393,qs),
(105,289,o),
(175,289,qs),
(248,289,o)
);
},
{
closed = 1;
nodes = (
(203,11,qs),
(495,544,l),
(503,556,o),
(512,556,qs),
(530,556,ls),
(559,556,o),
(576,517,o),
(561,489,qs),
(298,11,l),
(293,0,o),
(282,0,qs),
(208,0,ls),
(196,0,o)
);
},
{
closed = 1;
nodes = (
(519,33,qs),
(473,81,o),
(473,163,qs),
(473,235,o),
(508,281,qs),
(549,334,o),
(620,334,qs),
(681,334,o),
(720,293,qs),
(766,246,o),
(766,163,qs),
(766,92,o),
(731,45,qs),
(690,-9,o),
(620,-9,qs),
(559,-9,o)
);
},
{
closed = 1;
nodes = (
(75,264,qs),
(31,312,o),
(31,396,qs),
(31,467,o),
(65,513,qs),
(105,566,o),
(175,566,qs),
(237,566,o),
(276,525,qs),
(322,478,o),
(322,396,qs),
(322,323,o),
(287,276,qs),
(247,223,o),
(175,223,qs),
(114,223,o)
);
}
);
userData = {
assembly = "MPPEM[ ]	/* MeasurePixelPerEm */
PUSHB[ ]	/* 1 value pushed */
20 
LT[ ]	/* LessThan */
IF[ ]	/* If */
NPUSHB[ ]	/* 44 values pushed */
0 7 0 1 8 7 1 106 11 1 2 14 1 8 0 2 8 105 0 3 3 5 97 9 1 5 5 39 77 10 1 0 0 4 97 13 6 12 3 4 4 40 4 78 
ELSE[ ]	/* Else */
MPPEM[ ]	/* MeasurePixelPerEm */
PUSHB[ ]	/* 1 value pushed */
22 
LT[ ]	/* LessThan */
IF[ ]	/* If */
NPUSHB[ ]	/* 48 values pushed */
0 7 0 1 8 7 1 106 11 1 2 14 1 8 0 2 8 105 0 5 5 39 77 0 3 3 9 97 0 9 9 39 77 10 1 0 0 4 97 13 6 12 3 4 4 40 4 78 
ELSE[ ]	/* Else */
MPPEM[ ]	/* MeasurePixelPerEm */
PUSHB[ ]	/* 1 value pushed */
39 
LT[ ]	/* LessThan */
IF[ ]	/* If */
NPUSHB[ ]	/* 52 values pushed */
0 7 0 1 8 7 1 106 11 1 2 14 1 8 0 2 8 105 0 5 5 39 77 0 3 3 9 97 0 9 9 39 77 12 1 4 4 40 77 10 1 0 0 6 97 13 1 6 6 46 6 78 
ELSE[ ]	/* Else */
NPUSHB[ ]	/* 50 values pushed */
0 9 0 3 7 9 3 105 0 7 0 1 8 7 1 106 11 1 2 14 1 8 0 2 8 105 0 5 5 39 77 12 1 4 4 40 77 10 1 0 0 6 97 13 1 6 6 46 6 78 
EIF[ ]	/* EndIf */
EIF[ ]	/* EndIf */
EIF[ ]	/* EndIf */
NPUSHB[ ]	/* 43 values pushed */
46 45 30 29 18 16 9 8 1 0 54 52 45 60 46 60 38 36 29 44 30 44 25 22 16 28 18 28 13 11 8 15 9 15 5 3 0 7 1 7 15 9 22 
CALL[ ]	/* CallFunction */";
};
width = 797;
}
);
note = percent;
unicode = 37;
},
{
glyphname = ampersand;
layers = (
{
layerId = m01;
shapes = (
{
closed = 1;
nodes = (
(423,278,ls),
(430,289,o),
(444,289,qs),
(512,289,ls),
(517,289,o),
(520,282,o),
(517,279,q),
(418,138,l),
(522,12,ls),
(524,9,o),
(521,0,o),
(517,0,qs),
(460,0,ls),
(412,0,o),
(387,32,qs),
(360,64,l),
(302,-7,o),
(209,-7,qs),
(136,-7,o),
(89,32,qs),
(36,76,o),
(36,150,qs),
(36,200,o),
(92,272,o),
(155,304,q),
(121,342,o),
(93,400,o),
(93,433,qs),
(93,489,o),
(132,525,qs),
(178,566,o),
(257,566,qs),
(327,566,o),
(371,536,qs),
(420,501,o),
(420,438,qs),
(420,356,o),
(290,284,q),
(367,198,l)
);
},
{
closed = 1;
nodes = (
(327,433,qs),
(327,459,o),
(289,492,o),
(259,492,qs),
(230,492,o),
(192,459,o),
(192,433,qs),
(192,394,o),
(245,342,q),
(327,384,o)
);
},
{
closed = 1;
nodes = (
(168,223,o),
(134,180,o),
(134,152,qs),
(134,116,o),
(180,72,o),
(218,72,qs),
(246,72,o),
(286,94,o),
(312,123,q),
(208,246,l)
);
}
);
userData = {
assembly = "MPPEM[ ]	/* MeasurePixelPerEm */
PUSHB[ ]	/* 1 value pushed */
26 
LT[ ]	/* LessThan */
IF[ ]	/* If */
NPUSHB[ ]	/* 17 values pushed */
13 1 3 4 58 38 31 30 4 5 3 22 1 1 5 3 76 
ELSE[ ]	/* Else */
NPUSHB[ ]	/* 17 values pushed */
13 1 3 4 58 38 31 30 4 5 3 22 1 2 5 3 76 
EIF[ ]	/* EndIf */
MPPEM[ ]	/* MeasurePixelPerEm */
PUSHB[ ]	/* 1 value pushed */
26 
LT[ ]	/* LessThan */
IF[ ]	/* If */
NPUSHB[ ]	/* 33 values pushed */
0 4 4 0 97 0 0 0 39 77 0 3 3 1 97 2 1 1 1 46 77 0 5 5 1 97 2 1 1 1 46 1 78 
ELSE[ ]	/* Else */
MPPEM[ ]	/* MeasurePixelPerEm */
PUSHB[ ]	/* 1 value pushed */
39 
LT[ ]	/* LessThan */
IF[ ]	/* If */
NPUSHB[ ]	/* 31 values pushed */
0 4 4 0 97 0 0 0 39 77 0 3 3 2 95 0 2 2 40 77 0 5 5 1 97 0 1 1 46 1 78 
ELSE[ ]	/* Else */
NPUSHB[ ]	/* 29 values pushed */
0 0 0 4 3 0 4 105 0 3 3 2 95 0 2 2 40 77 0 5 5 1 97 0 1 1 46 1 78 
EIF[ ]	/* EndIf */
EIF[ ]	/* EndIf */
NPUSHB[ ]	/* 9 values pushed */
38 39 55 35 44 37 6 9 28 
CALL[ ]	/* CallFunction */";
};
width = 543;
}
);
note = ampersand;
unicode = 38;
},
{
glyphname = quotesingle;
layers = (
{
layerId = m01;
shapes = (
{
closed = 1;
nodes = (
(26,556,o),
(38,556,qs),
(55,556,ls),
(97,556,o),
(124,520,o),
(119,473,qs),
(110,372,l),
(108,362,o),
(99,362,qs),
(54,362,ls),
(45,362,o),
(44,372,qs),
(27,544,ls)
);
}
);
userData = {
assembly = "NPUSHB[ ]	/* 16 values pushed */
0 0 0 1 97 0 1 1 39 0 78 52 49 2 9 24 
CALL[ ]	/* CallFunction */";
};
width = 147;
}
);
note = quotesingle;
unicode = 39;
},
{
glyphname = parenleft;
layers = (
{
layerId = m01;
shapes = (
{
closed = 1;
nodes = (
(115,556,qs),
(180,669,o),
(275,697,q),
(285,699,o),
(285,691,qs),
(285,689,o),
(285,686,qs),
(286,674,o),
(285,669,q),
(284,627,o),
(261,605,qs),
(254,599,o),
(251,597,q),
(191,536,o),
(136,383,o),
(136,276,qs),
(136,170,o),
(191,16,o),
(251,-44,q),
(254,-46,o),
(257,-50,q),
(274,-65,o),
(285,-91,o),
(285,-117,q),
(286,-122,o),
(285,-132,qs),
(285,-136,o),
(285,-138,qs),
(285,-147,o),
(275,-144,qs),
(195,-121,o),
(133,-32,qs),
(48,91,o),
(49,276,qs),
(48,440,o)
);
}
);
userData = {
assembly = "PUSHB[ ]	/* 4 values pushed */
30 5 1 50 
CALL[ ]	/* CallFunction */";
};
width = 330;
}
);
note = parenleft;
unicode = 40;
},
{
glyphname = parenright;
layers = (
{
layerId = m01;
shapes = (
{
closed = 1;
nodes = (
(214,-4,qs),
(149,-117,o),
(55,-144,qs),
(45,-147,o),
(45,-138,qs),
(45,-136,o),
(44,-133,q),
(44,-122,o),
(45,-117,q),
(45,-75,o),
(69,-53,qs),
(76,-46,o),
(78,-44,qs),
(139,16,o),
(194,170,o),
(193,276,qs),
(194,383,o),
(139,536,o),
(78,597,qs),
(76,599,o),
(72,603,qs),
(56,617,o),
(45,644,o),
(45,669,q),
(44,674,o),
(44,684,q),
(45,689,o),
(45,691,qs),
(45,699,o),
(55,697,q),
(135,673,o),
(197,584,qs),
(282,462,o),
(281,276,qs),
(282,113,o)
);
}
);
userData = {
assembly = "PUSHB[ ]	/* 4 values pushed */
30 5 1 50 
CALL[ ]	/* CallFunction */";
};
width = 330;
}
);
note = parenright;
unicode = 41;
},
{
glyphname = asterisk;
layers = (
{
layerId = m01;
shapes = (
{
closed = 1;
nodes = (
(28,394,o),
(31,406,q),
(50,461,ls),
(53,472,o),
(63,467,qs),
(152,431,l),
(145,527,l),
(143,538,o),
(156,538,qs),
(217,538,ls),
(229,538,o),
(227,527,q),
(221,431,l),
(310,467,ls),
(320,471,o),
(322,461,q),
(341,406,l),
(343,394,o),
(335,392,qs),
(242,368,l),
(302,292,ls),
(308,284,o),
(301,278,q),
(253,245,ls),
(244,238,o),
(238,247,qs),
(186,331,l),
(135,247,ls),
(128,237,o),
(120,245,q),
(73,278,ls),
(63,284,o),
(70,292,qs),
(132,368,l),
(38,392,ls)
);
}
);
userData = {
assembly = "PUSHB[ ]	/* 8 values pushed */
28 22 21 14 7 5 0 73 
MPPEM[ ]	/* MeasurePixelPerEm */
PUSHB[ ]	/* 1 value pushed */
22 
LT[ ]	/* LessThan */
IF[ ]	/* If */
PUSHB[ ]	/* 6 values pushed */
0 0 0 39 0 78 
ELSE[ ]	/* Else */
PUSHB[ ]	/* 4 values pushed */
0 0 0 118 
EIF[ ]	/* EndIf */
PUSHB[ ]	/* 5 values pushed */
26 23 1 9 22 
CALL[ ]	/* CallFunction */";
};
width = 368;
}
);
note = asterisk;
unicode = 42;
},
{
glyphname = plus;
layers = (
{
layerId = m01;
shapes = (
{
closed = 1;
nodes = (
(33,231,o),
(33,242,qs),
(33,299,ls),
(33,311,o),
(44,311,qs),
(166,311,l),
(166,446,ls),
(166,457,o),
(177,457,qs),
(218,457,o),
(252,423,o),
(252,383,qs),
(252,311,l),
(374,311,ls),
(385,311,o),
(385,299,qs),
(385,242,ls),
(385,231,o),
(374,231,qs),
(252,231,l),
(252,96,ls),
(252,86,o),
(241,86,qs),
(177,86,ls),
(166,86,o),
(166,96,qs),
(166,231,l),
(44,231,ls)
);
}
);
userData = {
assembly = "NPUSHB[ ]	/* 41 values pushed */
0 3 2 0 3 89 4 1 2 6 5 2 1 0 2 1 103 0 3 3 0 95 0 0 3 0 79 0 0 0 27 0 26 34 35 35 34 50 7 9 27 
CALL[ ]	/* CallFunction */";
};
width = 418;
}
);
note = plus;
unicode = 43;
},
{
glyphname = comma;
layers = (
{
layerId = m01;
shapes = (
{
closed = 1;
nodes = (
(22,28,o),
(22,51,qs),
(22,77,o),
(56,111,o),
(81,111,qs),
(108,111,o),
(140,78,o),
(140,50,qs),
(140,-31,o),
(58,-96,qs),
(51,-101,o),
(46,-96,qs),
(25,-74,o),
(45,-53,qs),
(66,-32,o),
(71,-9,q),
(49,-5,o)
);
}
);
userData = {
assembly = "PUSHB[ ]	/* 8 values pushed */
0 0 0 118 42 1 9 23 
CALL[ ]	/* CallFunction */";
};
width = 162;
}
);
note = comma;
unicode = 44;
},
{
glyphname = hyphen;
layers = (
{
layerId = m01;
shapes = (
{
closed = 1;
nodes = (
(33,169,qs),
(33,238,ls),
(33,249,o),
(44,249,qs),
(254,249,ls),
(265,249,o),
(265,238,qs),
(265,169,ls),
(265,158,o),
(254,158,qs),
(44,158,ls),
(33,158,o)
);
}
);
userData = {
assembly = "NPUSHB[ ]	/* 28 values pushed */
0 1 0 0 1 87 0 1 1 0 95 2 1 0 1 0 79 2 0 8 5 0 11 2 11 3 9 22 
CALL[ ]	/* CallFunction */";
};
width = 297;
}
);
note = hyphen;
unicode = 45;
},
{
glyphname = period;
layers = (
{
layerId = m01;
shapes = (
{
closed = 1;
nodes = (
(157,75,o),
(157,49,qs),
(157,24,o),
(121,-13,o),
(96,-13,qs),
(71,-13,o),
(35,24,o),
(35,49,qs),
(35,75,o),
(71,112,o),
(96,112,qs),
(121,112,o)
);
}
);
userData = {
assembly = "NPUSHB[ ]	/* 23 values pushed */
2 1 0 0 1 97 0 1 1 46 1 78 1 0 7 5 0 11 1 11 3 9 22 
CALL[ ]	/* CallFunction */";
};
width = 192;
}
);
note = period;
unicode = 46;
},
{
glyphname = slash;
layers = (
{
layerId = m01;
shapes = (
{
closed = 1;
nodes = (
(5,11,qs),
(231,544,ls),
(236,556,o),
(248,556,qs),
(260,556,ls),
(288,556,o),
(308,513,o),
(295,482,qs),
(96,11,l),
(94,0,o),
(80,0,qs),
(12,0,ls),
(0,0,o)
);
}
);
userData = {
assembly = "NPUSHB[ ]	/* 23 values pushed */
0 1 1 39 77 2 1 0 0 40 0 78 2 0 9 6 0 12 2 12 3 9 22 
CALL[ ]	/* CallFunction */";
};
width = 299;
}
);
note = slash;
unicode = 47;
},
{
glyphname = zero;
layers = (
{
layerId = m01;
shapes = (
{
closed = 1;
nodes = (
(330,119,qs),
(363,166,o),
(363,278,qs),
(363,379,o),
(309,474,o),
(251,474,qs),
(199,474,o),
(173,436,qs),
(140,390,o),
(140,278,qs),
(140,176,o),
(194,82,o),
(251,82,qs),
(303,82,o)
);
},
{
closed = 1;
nodes = (
(103,55,qs),
(42,128,o),
(42,278,qs),
(42,407,o),
(90,481,qs),
(144,566,o),
(251,566,qs),
(344,566,o),
(398,501,qs),
(460,426,o),
(460,278,qs),
(460,148,o),
(413,74,qs),
(360,-10,o),
(251,-10,qs),
(156,-10,o)
);
}
);
userData = {
assembly = "MPPEM[ ]	/* MeasurePixelPerEm */
PUSHB[ ]	/* 1 value pushed */
39 
LT[ ]	/* LessThan */
IF[ ]	/* If */
NPUSHB[ ]	/* 23 values pushed */
0 1 1 3 97 0 3 3 39 77 4 1 0 0 2 97 5 1 2 2 46 2 78 
ELSE[ ]	/* Else */
NPUSHB[ ]	/* 21 values pushed */
0 3 0 1 0 3 1 105 4 1 0 0 2 97 5 1 2 2 46 2 78 
EIF[ ]	/* EndIf */
NPUSHB[ ]	/* 19 values pushed */
15 14 1 0 23 21 14 29 15 29 8 6 0 13 1 13 6 9 22 
CALL[ ]	/* CallFunction */";
};
width = 502;
}
);
note = zero;
unicode = 48;
},
{
glyphname = one;
layers = (
{
layerId = m01;
shapes = (
{
closed = 1;
nodes = (
(44,428,ls),
(32,423,o),
(32,436,qs),
(32,507,ls),
(32,520,o),
(45,526,q),
(102,546,ls),
(130,556,o),
(153,556,qs),
(173,556,ls),
(233,556,o),
(233,494,qs),
(233,89,l),
(285,89,ls),
(344,89,o),
(344,34,qs),
(344,14,ls),
(344,0,o),
(330,0,qs),
(42,0,ls),
(31,0,o),
(31,11,qs),
(31,78,ls),
(31,89,o),
(42,89,qs),
(136,89,l),
(136,461,l)
);
}
);
userData = {
assembly = "NPUSHB[ ]	/* 30 values pushed */
26 1 0 3 1 76 0 3 3 39 77 2 1 0 0 1 96 0 1 1 40 1 78 50 35 51 32 4 9 26 
CALL[ ]	/* CallFunction */";
};
width = 363;
}
);
note = one;
unicode = 49;
},
{
glyphname = two;
layers = (
{
layerId = m01;
shapes = (
{
closed = 1;
nodes = (
(413,89,o),
(413,35,qs),
(413,14,ls),
(413,0,o),
(400,0,qs),
(43,0,ls),
(32,0,o),
(32,11,qs),
(32,104,o),
(81,168,qs),
(112,210,o),
(184,257,qs),
(244,296,o),
(260,310,qs),
(309,351,o),
(309,403,qs),
(309,439,o),
(260,479,o),
(215,479,qs),
(152,479,o),
(81,441,qs),
(74,437,o),
(69,437,qs),
(62,437,o),
(60,444,qs),
(51,467,l),
(36,521,o),
(91,542,qs),
(157,566,o),
(224,566,qs),
(301,566,o),
(349,532,qs),
(408,490,o),
(408,408,qs),
(408,342,o),
(364,289,qs),
(335,253,o),
(271,210,qs),
(212,169,o),
(201,160,qs),
(154,124,o),
(150,89,q),
(355,89,ls)
);
}
);
userData = {
assembly = "MPPEM[ ]	/* MeasurePixelPerEm */
PUSHB[ ]	/* 1 value pushed */
39 
LT[ ]	/* LessThan */
IF[ ]	/* If */
NPUSHB[ ]	/* 30 values pushed */
0 1 2 4 2 1 4 128 0 2 2 0 97 0 0 0 39 77 5 1 4 4 3 95 0 3 3 40 3 78 
ELSE[ ]	/* Else */
NPUSHB[ ]	/* 28 values pushed */
0 1 2 4 2 1 4 128 0 0 0 2 1 0 2 105 5 1 4 4 3 95 0 3 3 40 3 78 
EIF[ ]	/* EndIf */
NPUSHB[ ]	/* 13 values pushed */
0 0 0 42 0 41 59 35 21 43 6 9 26 
CALL[ ]	/* CallFunction */";
};
width = 456;
}
);
note = two;
unicode = 50;
},
{
glyphname = three;
layers = (
{
layerId = m01;
shapes = (
{
closed = 1;
nodes = (
(410,162,qs),
(410,91,o),
(363,45,qs),
(307,-10,o),
(210,-10,qs),
(126,-10,o),
(73,32,qs),
(21,73,o),
(21,126,qs),
(21,150,o),
(37,150,qs),
(46,150,o),
(54,141,qs),
(118,77,o),
(202,77,qs),
(253,77,o),
(313,124,o),
(313,165,qs),
(313,242,o),
(215,242,qs),
(155,242,ls),
(126,242,o),
(100,264,o),
(100,289,qs),
(100,314,ls),
(100,329,o),
(114,329,qs),
(207,329,ls),
(294,329,o),
(294,407,qs),
(294,481,o),
(203,481,qs),
(136,481,o),
(71,443,qs),
(62,437,o),
(57,437,qs),
(51,437,o),
(48,446,qs),
(40,467,ls),
(22,520,o),
(80,542,qs),
(142,566,o),
(209,566,qs),
(284,566,o),
(332,534,qs),
(393,494,o),
(393,417,qs),
(393,375,o),
(348,308,o),
(309,291,q),
(410,264,o)
);
}
);
userData = {
assembly = "MPPEM[ ]	/* MeasurePixelPerEm */
PUSHB[ ]	/* 1 value pushed */
39 
LT[ ]	/* LessThan */
IF[ ]	/* If */
NPUSHB[ ]	/* 45 values pushed */
0 1 2 3 2 1 3 128 0 6 4 5 4 6 5 128 0 3 0 4 6 3 4 103 0 2 2 0 97 0 0 0 39 77 0 5 5 7 97 0 7 7 46 7 78 
ELSE[ ]	/* Else */
NPUSHB[ ]	/* 43 values pushed */
0 1 2 3 2 1 3 128 0 6 4 5 4 6 5 128 0 0 0 2 1 0 2 105 0 3 0 4 6 3 4 103 0 5 5 7 97 0 7 7 46 7 78 
EIF[ ]	/* EndIf */
NPUSHB[ ]	/* 11 values pushed */
36 34 35 52 50 34 37 38 8 9 30 
CALL[ ]	/* CallFunction */";
};
width = 447;
}
);
note = three;
unicode = 51;
},
{
glyphname = four;
layers = (
{
layerId = m01;
shapes = (
{
closed = 1;
nodes = (
(13,118,o),
(13,129,qs),
(13,182,ls),
(13,196,o),
(23,213,qs),
(230,533,ls),
(244,556,o),
(270,556,qs),
(313,556,ls),
(372,556,o),
(372,497,qs),
(372,207,l),
(404,207,ls),
(461,207,o),
(461,151,qs),
(461,132,ls),
(461,118,o),
(448,118,qs),
(372,118,l),
(372,11,ls),
(372,0,o),
(362,0,qs),
(286,0,ls),
(276,0,o),
(276,11,qs),
(276,118,l),
(24,118,ls)
);
},
{
closed = 1;
nodes = (
(276,448,l),
(117,207,l),
(276,207,l)
);
}
);
userData = {
assembly = "NPUSHB[ ]	/* 48 values pushed */
28 1 2 3 1 76 7 5 2 2 6 4 2 1 0 2 1 104 0 3 3 39 77 0 0 0 40 0 78 27 27 0 0 27 29 27 29 0 26 0 25 50 35 34 50 8 9 26 
CALL[ ]	/* CallFunction */";
};
width = 481;
}
);
note = four;
unicode = 52;
},
{
glyphname = five;
layers = (
{
layerId = m01;
shapes = (
{
closed = 1;
nodes = (
(190,361,o),
(232,361,qs),
(313,361,o),
(363,319,qs),
(419,272,o),
(419,185,qs),
(419,103,o),
(367,49,qs),
(308,-10,o),
(215,-10,qs),
(136,-10,o),
(83,27,qs),
(26,67,o),
(26,123,qs),
(26,148,o),
(42,148,qs),
(50,148,o),
(59,138,qs),
(118,77,o),
(205,77,qs),
(260,77,o),
(322,131,o),
(322,181,qs),
(322,225,o),
(262,276,o),
(209,276,qs),
(136,276,o),
(65,252,qs),
(51,247,o),
(51,261,qs),
(51,544,ls),
(51,556,o),
(61,556,qs),
(329,556,ls),
(388,556,o),
(388,499,qs),
(388,481,ls),
(388,467,o),
(373,467,qs),
(144,467,l),
(144,349,l)
);
}
);
userData = {
assembly = "PUSHB[ ]	/* 6 values pushed */
40 1 2 6 1 76 
MPPEM[ ]	/* MeasurePixelPerEm */
PUSHB[ ]	/* 1 value pushed */
26 
LT[ ]	/* LessThan */
IF[ ]	/* If */
NPUSHB[ ]	/* 39 values pushed */
0 4 2 3 2 4 3 128 0 0 0 1 95 0 1 1 39 77 0 2 2 6 97 0 6 6 42 77 0 3 3 5 97 0 5 5 46 5 78 
ELSE[ ]	/* Else */
NPUSHB[ ]	/* 37 values pushed */
0 4 2 3 2 4 3 128 0 6 0 2 4 6 2 105 0 0 0 1 95 0 1 1 39 77 0 3 3 5 97 0 5 5 46 5 78 
EIF[ ]	/* EndIf */
NPUSHB[ ]	/* 10 values pushed */
38 36 34 36 37 51 32 7 9 29 
CALL[ ]	/* CallFunction */";
};
width = 456;
}
);
note = five;
unicode = 53;
},
{
glyphname = six;
layers = (
{
layerId = m01;
shapes = (
{
closed = 1;
nodes = (
(260,374,qs),
(336,374,o),
(388,325,qs),
(444,271,o),
(444,192,qs),
(444,108,o),
(396,54,qs),
(340,-10,o),
(244,-10,qs),
(159,-10,o),
(102,37,qs),
(37,91,o),
(37,180,qs),
(37,219,o),
(66,299,o),
(105,363,qs),
(223,556,ls),
(229,566,o),
(240,566,qs),
(272,566,o),
(284,539,qs),
(299,505,o),
(274,462,qs),
(215,367,l),
(242,374,o)
);
},
{
closed = 1;
nodes = (
(160,110,qs),
(190,77,o),
(243,77,qs),
(286,77,o),
(315,103,qs),
(348,133,o),
(348,183,qs),
(348,227,o),
(322,257,qs),
(292,292,o),
(241,292,qs),
(197,292,o),
(167,265,qs),
(134,234,o),
(134,183,qs),
(134,139,o)
);
}
);
userData = {
assembly = "MPPEM[ ]	/* MeasurePixelPerEm */
PUSHB[ ]	/* 1 value pushed */
39 
LT[ ]	/* LessThan */
IF[ ]	/* If */
NPUSHB[ ]	/* 26 values pushed */
0 0 0 39 77 0 3 3 2 97 0 2 2 42 77 0 4 4 1 97 0 1 1 46 1 78 
ELSE[ ]	/* Else */
NPUSHB[ ]	/* 26 values pushed */
0 0 2 0 133 0 3 3 2 97 0 2 2 42 77 0 4 4 1 97 0 1 1 46 1 78 
EIF[ ]	/* EndIf */
PUSHB[ ]	/* 8 values pushed */
38 36 38 40 36 5 9 27 
CALL[ ]	/* CallFunction */";
};
width = 474;
}
);
note = six;
unicode = 54;
},
{
glyphname = seven;
layers = (
{
layerId = m01;
shapes = (
{
closed = 1;
nodes = (
(23,467,o),
(23,477,qs),
(23,544,ls),
(23,556,o),
(34,556,qs),
(329,556,ls),
(387,556,o),
(387,499,qs),
(387,487,ls),
(387,465,o),
(375,437,qs),
(183,12,ls),
(178,0,o),
(165,0,qs),
(85,0,ls),
(74,0,o),
(79,11,qs),
(285,467,l),
(34,467,ls)
);
}
);
userData = {
assembly = "NPUSHB[ ]	/* 28 values pushed */
3 1 2 2 1 95 0 1 1 39 77 0 0 0 40 0 78 0 0 0 18 0 17 54 50 4 9 24 
CALL[ ]	/* CallFunction */";
};
width = 421;
}
);
note = seven;
unicode = 55;
},
{
glyphname = eight;
layers = (
{
layerId = m01;
shapes = (
{
closed = 1;
nodes = (
(153,98,qs),
(184,70,o),
(239,70,qs),
(288,70,o),
(348,118,o),
(348,158,qs),
(348,200,o),
(289,250,o),
(239,250,qs),
(187,250,o),
(128,200,o),
(128,158,qs),
(128,121,o)
);
},
{
closed = 1;
nodes = (
(194,329,o),
(239,329,qs),
(282,329,o),
(335,372,o),
(335,408,qs),
(335,444,o),
(283,487,o),
(239,487,qs),
(193,487,o),
(140,444,o),
(140,408,qs),
(140,372,o)
);
},
{
closed = 1;
nodes = (
(46,419,qs),
(46,482,o),
(94,522,qs),
(147,566,o),
(239,566,qs),
(317,566,o),
(369,532,qs),
(430,491,o),
(430,419,qs),
(430,331,o),
(344,292,q),
(445,258,o),
(445,157,qs),
(445,89,o),
(398,44,qs),
(341,-10,o),
(239,-10,qs),
(148,-10,o),
(92,32,qs),
(31,78,o),
(31,157,qs),
(31,258,o),
(131,292,q),
(46,331,o)
);
}
);
userData = {
assembly = "PUSHB[ ]	/* 6 values pushed */
37 1 0 3 1 76 
MPPEM[ ]	/* MeasurePixelPerEm */
PUSHB[ ]	/* 1 value pushed */
39 
LT[ ]	/* LessThan */
IF[ ]	/* If */
NPUSHB[ ]	/* 29 values pushed */
0 3 0 0 1 3 0 105 0 2 2 5 97 0 5 5 39 77 0 1 1 4 97 0 4 4 46 4 78 
ELSE[ ]	/* Else */
NPUSHB[ ]	/* 27 values pushed */
0 5 0 2 3 5 2 105 0 3 0 0 1 3 0 105 0 1 1 4 97 0 4 4 46 4 78 
EIF[ ]	/* EndIf */
NPUSHB[ ]	/* 9 values pushed */
42 39 36 37 36 34 6 9 28 
CALL[ ]	/* CallFunction */";
};
width = 476;
}
);
note = eight;
unicode = 56;
},
{
glyphname = nine;
layers = (
{
layerId = m01;
shapes = (
{
closed = 1;
nodes = (
(213,181,qs),
(137,181,o),
(86,229,qs),
(31,283,o),
(31,362,qs),
(31,446,o),
(81,502,qs),
(139,566,o),
(235,566,qs),
(319,566,o),
(374,519,qs),
(438,466,o),
(438,376,qs),
(438,335,o),
(408,255,o),
(369,193,qs),
(254,2,ls),
(246,-10,o),
(235,-10,qs),
(202,-10,o),
(190,19,qs),
(176,52,o),
(202,92,qs),
(262,191,l),
(231,181,o)
);
},
{
closed = 1;
nodes = (
(307,291,qs),
(340,322,o),
(340,373,qs),
(340,420,o),
(282,478,o),
(234,478,qs),
(189,478,o),
(160,452,qs),
(127,423,o),
(127,373,qs),
(127,323,o),
(185,264,o),
(234,264,qs),
(277,264,o)
);
}
);
userData = {
assembly = "MPPEM[ ]	/* MeasurePixelPerEm */
PUSHB[ ]	/* 1 value pushed */
39 
LT[ ]	/* LessThan */
IF[ ]	/* If */
NPUSHB[ ]	/* 25 values pushed */
5 1 3 0 2 0 3 2 105 0 4 4 1 97 0 1 1 39 77 0 0 0 46 0 78 
ELSE[ ]	/* Else */
NPUSHB[ ]	/* 23 values pushed */
0 1 0 4 3 1 4 105 5 1 3 0 2 0 3 2 105 0 0 0 46 0 78 
EIF[ ]	/* EndIf */
NPUSHB[ ]	/* 14 values pushed */
26 25 33 31 25 38 26 38 38 40 36 6 9 25 
CALL[ ]	/* CallFunction */";
};
width = 474;
}
);
note = nine;
unicode = 57;
},
{
glyphname = colon;
layers = (
{
layerId = m01;
shapes = (
{
closed = 1;
nodes = (
(160,293,o),
(160,267,qs),
(160,241,o),
(125,205,o),
(99,205,qs),
(74,205,o),
(38,242,o),
(38,267,qs),
(38,293,o),
(74,329,o),
(99,329,qs),
(125,329,o)
);
},
{
closed = 1;
nodes = (
(160,75,o),
(160,49,qs),
(160,24,o),
(125,-13,o),
(99,-13,qs),
(74,-13,o),
(38,24,o),
(38,49,qs),
(38,75,o),
(74,112,o),
(99,112,qs),
(125,112,o)
);
}
);
userData = {
assembly = "NPUSHB[ ]	/* 40 values pushed */
4 1 0 0 1 2 0 1 105 5 1 2 2 3 97 0 3 3 46 3 78 13 12 1 0 19 17 12 23 13 23 7 5 0 11 1 11 6 9 22 
CALL[ ]	/* CallFunction */";
};
width = 198;
}
);
note = colon;
unicode = 58;
},
{
glyphname = semicolon;
layers = (
{
layerId = m01;
shapes = (
{
closed = 1;
nodes = (
(32,253,o),
(32,279,qs),
(32,305,o),
(66,339,o),
(91,339,qs),
(117,339,o),
(150,305,o),
(150,279,qs),
(150,253,o),
(116,219,o),
(91,219,qs),
(66,219,o)
);
},
{
closed = 1;
nodes = (
(32,28,o),
(32,51,qs),
(32,77,o),
(66,111,o),
(91,111,qs),
(118,111,o),
(150,78,o),
(150,50,qs),
(150,-31,o),
(68,-96,qs),
(61,-101,o),
(56,-96,qs),
(35,-74,o),
(55,-53,qs),
(76,-32,o),
(81,-9,q),
(59,-5,o)
);
}
);
userData = {
assembly = "NPUSHB[ ]	/* 35 values pushed */
0 2 0 2 134 0 1 0 0 1 89 0 1 1 0 97 3 1 0 1 0 81 1 0 24 22 7 5 0 11 1 11 4 9 22 
CALL[ ]	/* CallFunction */";
};
width = 182;
}
);
note = semicolon;
unicode = 59;
},
{
glyphname = less;
layers = (
{
layerId = m01;
shapes = (
{
closed = 1;
nodes = (
(383,173,o),
(413,127,o),
(413,86,qs),
(413,83,ls),
(413,71,o),
(402,76,qs),
(44,230,l),
(33,236,o),
(33,248,qs),
(33,293,ls),
(33,304,o),
(44,309,qs),
(400,462,ls),
(413,467,o),
(413,457,qs),
(413,393,ls),
(413,380,o),
(398,373,qs),
(150,271,l),
(345,189,ls)
);
}
);
userData = {
assembly = "PUSHB[ ]	/* 4 values pushed */
14 5 1 50 
CALL[ ]	/* CallFunction */";
};
width = 452;
}
);
note = less;
unicode = 60;
},
{
glyphname = equal;
layers = (
{
layerId = m01;
shapes = (
{
closed = 1;
nodes = (
(33,329,qs),
(33,389,ls),
(33,399,o),
(44,399,qs),
(324,399,ls),
(385,399,o),
(385,343,qs),
(385,329,ls),
(385,319,o),
(374,319,qs),
(44,319,ls),
(33,319,o)
);
},
{
closed = 1;
nodes = (
(33,151,qs),
(33,210,ls),
(33,221,o),
(44,221,qs),
(324,221,ls),
(385,221,o),
(385,163,qs),
(385,151,ls),
(385,140,o),
(374,140,qs),
(44,140,ls),
(33,140,o)
);
}
);
userData = {
assembly = "NPUSHB[ ]	/* 45 values pushed */
0 1 4 1 0 3 1 0 103 0 3 2 2 3 87 0 3 3 2 95 5 1 2 3 2 79 14 12 2 0 20 17 12 23 14 23 8 5 0 11 2 11 6 9 22 
CALL[ ]	/* CallFunction */";
};
width = 418;
}
);
note = equal;
unicode = 61;
},
{
glyphname = greater;
layers = (
{
layerId = m01;
shapes = (
{
closed = 1;
nodes = (
(39,380,o),
(39,393,qs),
(39,457,ls),
(39,466,o),
(51,462,q),
(408,309,ls),
(418,304,o),
(418,293,qs),
(418,248,ls),
(418,234,o),
(408,230,qs),
(49,76,ls),
(39,71,o),
(39,83,qs),
(39,86,ls),
(39,127,o),
(69,173,o),
(106,189,qs),
(301,271,l),
(54,373,ls)
);
}
);
userData = {
assembly = "PUSHB[ ]	/* 4 values pushed */
15 6 1 50 
CALL[ ]	/* CallFunction */";
};
width = 452;
}
);
note = greater;
unicode = 62;
},
{
glyphname = question;
layers = (
{
layerId = m01;
shapes = (
{
closed = 1;
nodes = (
(114,25,o),
(114,51,qs),
(114,77,o),
(148,111,o),
(174,111,qs),
(199,111,o),
(233,77,o),
(233,51,qs),
(233,25,o),
(199,-10,o),
(174,-10,qs),
(148,-10,o)
);
},
{
closed = 1;
nodes = (
(132,225,o),
(146,249,qs),
(159,270,o),
(194,298,qs),
(241,338,o),
(269,377,o),
(269,404,qs),
(269,439,o),
(223,477,o),
(182,477,qs),
(118,477,o),
(52,441,qs),
(44,436,o),
(39,436,qs),
(32,436,o),
(29,444,qs),
(22,467,ls),
(14,494,o),
(32,528,o),
(62,541,qs),
(120,566,o),
(184,566,qs),
(262,566,o),
(310,533,qs),
(369,494,o),
(369,418,qs),
(369,363,o),
(335,317,qs),
(307,280,o),
(232,224,qs),
(213,210,o),
(213,187,qs),
(213,166,ls),
(213,155,o),
(203,155,qs),
(143,155,ls),
(132,155,o),
(132,166,qs),
(132,199,ls)
);
}
);
userData = {
assembly = "MPPEM[ ]	/* MeasurePixelPerEm */
PUSHB[ ]	/* 1 value pushed */
39 
LT[ ]	/* LessThan */
IF[ ]	/* If */
NPUSHB[ ]	/* 37 values pushed */
0 4 5 2 5 4 2 128 0 2 1 5 2 1 126 0 5 5 3 97 0 3 3 39 77 0 1 1 0 97 6 1 0 0 46 0 78 
ELSE[ ]	/* Else */
NPUSHB[ ]	/* 35 values pushed */
0 4 5 2 5 4 2 128 0 2 1 5 2 1 126 0 3 0 5 4 3 5 105 0 1 1 0 97 6 1 0 0 46 0 78 
EIF[ ]	/* EndIf */
NPUSHB[ ]	/* 19 values pushed */
1 0 41 39 36 35 29 27 16 13 7 5 0 11 1 11 7 9 22 
CALL[ ]	/* CallFunction */";
};
width = 398;
}
);
note = question;
unicode = 63;
},
{
glyphname = at;
layers = (
{
layerId = m01;
shapes = (
{
closed = 1;
nodes = (
(431,145,qs),
(460,178,o),
(460,239,qs),
(460,279,o),
(417,324,o),
(381,324,qs),
(339,324,o),
(313,295,qs),
(283,262,o),
(283,208,qs),
(283,165,o),
(327,114,o),
(363,114,qs),
(406,114,o)
);
},
{
closed = 1;
nodes = (
(341,31,qs),
(281,31,o),
(240,74,qs),
(191,126,o),
(191,214,qs),
(191,288,o),
(235,343,qs),
(288,408,o),
(368,408,qs),
(445,408,o),
(477,349,q),
(491,401,o),
(550,401,qs),
(553,401,ls),
(564,401,o),
(562,389,qs),
(541,163,ls),
(538,141,o),
(538,132,qs),
(538,107,o),
(561,107,qs),
(592,107,o),
(614,139,qs),
(642,181,o),
(642,262,qs),
(642,365,o),
(581,426,qs),
(514,493,o),
(393,493,qs),
(284,493,o),
(209,424,qs),
(124,345,o),
(124,221,qs),
(124,97,o),
(193,22,qs),
(270,-62,o),
(406,-62,qs),
(534,-62,o),
(620,1,qs),
(630,9,o),
(636,9,qs),
(645,9,o),
(645,-3,qs),
(645,-39,o),
(590,-80,qs),
(513,-137,o),
(398,-137,qs),
(247,-137,o),
(150,-51,qs),
(39,47,o),
(39,220,qs),
(39,356,o),
(130,455,qs),
(235,568,o),
(395,568,qs),
(522,568,o),
(613,499,qs),
(725,414,o),
(725,267,qs),
(725,174,o),
(678,109,qs),
(624,32,o),
(540,32,qs),
(509,32,o),
(462,71,o),
(461,98,q),
(422,31,o)
);
}
);
userData = {
assembly = "MPPEM[ ]	/* MeasurePixelPerEm */
PUSHB[ ]	/* 1 value pushed */
26 
LT[ ]	/* LessThan */
IF[ ]	/* If */
NPUSHB[ ]	/* 10 values pushed */
69 1 1 9 14 1 2 0 2 76 
ELSE[ ]	/* Else */
NPUSHB[ ]	/* 10 values pushed */
69 1 1 9 14 1 2 8 2 76 
EIF[ ]	/* EndIf */
MPPEM[ ]	/* MeasurePixelPerEm */
PUSHB[ ]	/* 1 value pushed */
24 
LT[ ]	/* LessThan */
IF[ ]	/* If */
NPUSHB[ ]	/* 48 values pushed */
0 5 2 6 2 5 6 128 8 12 2 0 11 1 2 5 0 2 106 0 6 0 4 6 4 101 0 7 7 3 97 0 3 3 39 77 0 1 1 9 97 10 1 9 9 48 1 78 
ELSE[ ]	/* Else */
MPPEM[ ]	/* MeasurePixelPerEm */
PUSHB[ ]	/* 1 value pushed */
26 
LT[ ]	/* LessThan */
IF[ ]	/* If */
NPUSHB[ ]	/* 46 values pushed */
0 5 2 6 2 5 6 128 10 1 9 0 1 0 9 1 105 8 12 2 0 11 1 2 5 0 2 106 0 6 0 4 6 4 101 0 7 7 3 97 0 3 3 39 7 78 
ELSE[ ]	/* Else */
MPPEM[ ]	/* MeasurePixelPerEm */
PUSHB[ ]	/* 1 value pushed */
33 
LT[ ]	/* LessThan */
IF[ ]	/* If */
NPUSHB[ ]	/* 58 values pushed */
0 9 10 1 10 9 1 128 0 5 2 6 2 5 6 128 0 10 0 1 0 10 1 105 12 1 0 8 2 0 89 0 8 11 1 2 5 8 2 106 0 6 0 4 6 4 101 0 7 7 3 97 0 3 3 39 7 78 
ELSE[ ]	/* Else */
NPUSHB[ ]	/* 64 values pushed */
0 9 10 1 10 9 1 128 0 5 2 6 2 5 6 128 0 3 0 7 10 3 7 105 0 10 0 1 0 10 1 105 12 1 0 8 2 0 89 0 8 11 1 2 5 8 2 106 0 6 4 4 6 89 0 6 6 4 97 0 4 6 4 81 
EIF[ ]	/* EndIf */
EIF[ ]	/* EndIf */
EIF[ ]	/* EndIf */
NPUSHB[ ]	/* 31 values pushed */
1 0 80 78 72 70 68 65 60 58 52 50 44 42 39 38 34 32 26 24 18 16 8 6 0 13 1 13 13 9 22 
CALL[ ]	/* CallFunction */";
};
width = 763;
}
);
note = at;
unicode = 64;
},
{
glyphname = A;
kernLeft = A;
kernRight = A;
layers = (
{
layerId = m01;
shapes = (
{
closed = 1;
nodes = (
(260,438,l),
(186,223,l),
(335,223,l)
);
},
{
closed = 1;
nodes = (
(107,0,o),
(96,0,qs),
(19,0,ls),
(7,0,o),
(11,11,qs),
(205,546,ls),
(208,556,o),
(217,556,qs),
(250,556,ls),
(287,556,o),
(326,525,o),
(342,482,qs),
(513,11,l),
(518,0,o),
(506,0,qs),
(427,0,ls),
(412,0,o),
(408,13,qs),
(363,140,l),
(156,140,l),
(111,13,ls)
);
}
);
userData = {
assembly = "NPUSHB[ ]	/* 44 values pushed */
1 1 0 3 1 76 5 1 0 0 1 2 0 1 104 0 3 3 39 77 4 1 2 2 40 2 78 0 0 22 19 16 13 9 6 4 3 0 2 0 2 6 9 22 
CALL[ ]	/* CallFunction */";
};
width = 521;
}
);
note = A;
unicode = 65;
},
{
glyphname = B;
layers = (
{
layerId = m01;
shapes = (
{
closed = 1;
nodes = (
(314,86,o),
(358,124,o),
(358,167,qs),
(358,205,o),
(309,249,o),
(266,249,qs),
(155,249,l),
(155,86,l),
(265,86,ls)
);
},
{
closed = 1;
nodes = (
(340,332,o),
(340,403,qs),
(340,469,o),
(263,469,qs),
(155,469,l),
(155,332,l),
(268,332,ls)
);
},
{
closed = 1;
nodes = (
(459,205,o),
(459,157,qs),
(459,87,o),
(419,47,qs),
(372,0,o),
(276,0,qs),
(68,0,ls),
(57,0,o),
(57,11,qs),
(57,544,ls),
(57,556,o),
(68,556,qs),
(259,556,ls),
(339,556,o),
(385,523,qs),
(438,485,o),
(438,412,qs),
(438,325,o),
(352,289,q),
(400,277,o)
);
}
);
userData = {
assembly = "NPUSHB[ ]	/* 53 values pushed */
7 1 3 0 0 1 3 0 103 0 2 2 4 95 0 4 4 39 77 6 1 1 1 5 95 0 5 5 40 5 78 9 9 0 0 30 27 24 21 9 15 9 14 12 10 0 8 0 7 33 8 9 23 
CALL[ ]	/* CallFunction */";
};
width = 486;
}
);
note = B;
unicode = 66;
},
{
glyphname = C;
kernLeft = C;
kernRight = C;
layers = (
{
layerId = m01;
shapes = (
{
closed = 1;
nodes = (
(124,57,qs),
(44,134,o),
(44,276,qs),
(44,400,o),
(109,478,qs),
(182,566,o),
(308,566,qs),
(379,566,o),
(437,541,q),
(464,527,o),
(482,494,o),
(476,467,qs),
(470,442,ls),
(467,431,o),
(460,431,qs),
(456,431,o),
(445,436,qs),
(378,472,o),
(310,472,qs),
(238,472,o),
(196,430,qs),
(144,378,o),
(144,276,qs),
(144,188,o),
(185,138,qs),
(230,84,o),
(313,84,qs),
(403,84,o),
(461,148,qs),
(468,157,o),
(477,157,qs),
(492,157,o),
(492,133,qs),
(492,91,o),
(456,51,qs),
(401,-10,o),
(301,-10,qs),
(192,-10,o)
);
}
);
userData = {
assembly = "MPPEM[ ]	/* MeasurePixelPerEm */
PUSHB[ ]	/* 1 value pushed */
39 
LT[ ]	/* LessThan */
IF[ ]	/* If */
NPUSHB[ ]	/* 37 values pushed */
0 4 3 1 3 4 1 128 0 1 2 3 1 2 126 0 3 3 5 97 0 5 5 39 77 0 2 2 0 97 6 1 0 0 46 0 78 
ELSE[ ]	/* Else */
NPUSHB[ ]	/* 35 values pushed */
0 4 3 1 3 4 1 128 0 1 2 3 1 2 126 0 5 0 3 4 5 3 105 0 2 2 0 97 6 1 0 0 46 0 78 
EIF[ ]	/* EndIf */
NPUSHB[ ]	/* 19 values pushed */
1 0 31 29 23 21 19 17 11 9 7 5 0 37 1 37 7 9 22 
CALL[ ]	/* CallFunction */";
};
width = 511;
}
);
note = C;
unicode = 67;
},
{
glyphname = D;
layers = (
{
layerId = m01;
shapes = (
{
closed = 1;
nodes = (
(413,91,o),
(413,283,qs),
(413,374,o),
(371,418,qs),
(326,464,o),
(228,464,qs),
(155,464,l),
(155,91,l),
(232,91,ls)
);
},
{
closed = 1;
nodes = (
(57,11,qs),
(57,544,ls),
(57,556,o),
(68,556,qs),
(230,556,ls),
(347,556,o),
(418,504,qs),
(514,436,o),
(514,286,qs),
(514,150,o),
(445,78,qs),
(371,0,o),
(222,0,qs),
(68,0,ls),
(57,0,o)
);
}
);
userData = {
assembly = "NPUSHB[ ]	/* 41 values pushed */
0 0 0 3 95 0 3 3 39 77 4 1 1 1 2 95 5 1 2 2 40 2 78 11 9 0 0 20 17 9 23 11 23 0 8 0 7 33 6 9 23 
CALL[ ]	/* CallFunction */";
};
width = 557;
}
);
note = D;
unicode = 68;
},
{
glyphname = E;
kernRight = E;
layers = (
{
layerId = m01;
shapes = (
{
closed = 1;
nodes = (
(392,91,o),
(392,35,qs),
(392,14,ls),
(392,0,o),
(379,0,qs),
(68,0,ls),
(57,0,o),
(57,11,qs),
(57,544,ls),
(57,556,o),
(68,556,qs),
(326,556,ls),
(384,556,o),
(384,500,qs),
(384,479,ls),
(384,465,o),
(370,465,qs),
(155,465,l),
(155,323,l),
(306,323,ls),
(364,323,o),
(364,268,qs),
(364,246,ls),
(364,232,o),
(351,232,qs),
(155,232,l),
(155,91,l),
(334,91,ls)
);
}
);
userData = {
assembly = "NPUSHB[ ]	/* 44 values pushed */
0 1 0 0 5 1 0 103 0 2 2 3 95 0 3 3 39 77 6 1 5 5 4 95 0 4 4 40 4 78 0 0 0 27 0 26 51 51 33 35 33 7 9 27 
CALL[ ]	/* CallFunction */";
};
width = 418;
}
);
note = E;
unicode = 69;
},
{
glyphname = F;
layers = (
{
layerId = m01;
shapes = (
{
closed = 1;
nodes = (
(155,0,o),
(144,0,qs),
(68,0,ls),
(57,0,o),
(57,11,qs),
(57,544,ls),
(57,556,o),
(68,556,qs),
(326,556,ls),
(384,556,o),
(384,499,qs),
(384,478,ls),
(384,464,o),
(370,464,qs),
(155,464,l),
(155,319,l),
(303,319,ls),
(362,319,o),
(362,264,qs),
(362,244,ls),
(362,230,o),
(348,230,qs),
(155,230,l),
(155,11,ls)
);
}
);
userData = {
assembly = "NPUSHB[ ]	/* 32 values pushed */
0 1 0 0 4 1 0 103 0 2 2 3 95 0 3 3 39 77 0 4 4 40 4 78 51 51 33 35 32 5 9 27 
CALL[ ]	/* CallFunction */";
};
width = 404;
}
);
note = F;
unicode = 70;
},
{
glyphname = G;
layers = (
{
layerId = m01;
shapes = (
{
closed = 1;
nodes = (
(348,215,ls),
(290,215,o),
(290,271,qs),
(290,289,ls),
(290,304,o),
(303,304,qs),
(506,304,ls),
(517,304,o),
(517,291,qs),
(517,95,ls),
(517,70,o),
(497,54,qs),
(415,-10,o),
(312,-10,qs),
(202,-10,o),
(132,50,qs),
(44,125,o),
(44,279,qs),
(44,403,o),
(108,479,qs),
(182,566,o),
(317,566,qs),
(392,566,o),
(452,542,qs),
(481,531,o),
(500,497,o),
(492,469,qs),
(487,446,ls),
(483,433,o),
(476,433,qs),
(473,433,o),
(463,438,qs),
(461,439,o),
(460,439,q),
(397,473,o),
(324,473,qs),
(147,473,o),
(147,274,qs),
(147,189,o),
(184,139,qs),
(227,82,o),
(311,82,qs),
(374,82,o),
(425,117,q),
(425,215,l)
);
}
);
userData = {
assembly = "PUSHB[ ]	/* 6 values pushed */
0 1 0 6 1 76 
MPPEM[ ]	/* MeasurePixelPerEm */
PUSHB[ ]	/* 1 value pushed */
39 
LT[ ]	/* LessThan */
IF[ ]	/* If */
NPUSHB[ ]	/* 37 values pushed */
0 2 1 5 1 2 5 128 0 5 0 6 0 5 6 103 0 1 1 3 97 0 3 3 39 77 0 0 0 4 97 0 4 4 46 4 78 
ELSE[ ]	/* Else */
NPUSHB[ ]	/* 35 values pushed */
0 2 1 5 1 2 5 128 0 3 0 1 2 3 1 105 0 5 0 6 0 5 6 103 0 0 0 4 97 0 4 4 46 4 78 
EIF[ ]	/* EndIf */
NPUSHB[ ]	/* 10 values pushed */
35 53 38 38 36 36 33 7 9 29 
CALL[ ]	/* CallFunction */";
};
width = 561;
}
);
note = G;
unicode = 71;
},
{
glyphname = H;
layers = (
{
layerId = m01;
shapes = (
{
closed = 1;
nodes = (
(155,0,o),
(144,0,qs),
(68,0,ls),
(57,0,o),
(57,11,qs),
(57,544,ls),
(57,556,o),
(68,556,qs),
(77,556,ls),
(155,556,o),
(155,468,qs),
(155,319,l),
(374,319,l),
(374,544,ls),
(374,556,o),
(385,556,qs),
(394,556,ls),
(472,556,o),
(472,468,qs),
(472,11,ls),
(472,0,o),
(462,0,qs),
(385,0,ls),
(374,0,o),
(374,11,qs),
(374,230,l),
(155,230,l),
(155,11,ls)
);
}
);
userData = {
assembly = "NPUSHB[ ]	/* 30 values pushed */
0 3 0 0 1 3 0 103 4 1 2 2 39 77 5 1 1 1 40 1 78 51 50 18 51 50 16 6 9 28 
CALL[ ]	/* CallFunction */";
};
width = 529;
}
);
note = H;
unicode = 72;
},
{
glyphname = I;
kernRight = I;
layers = (
{
layerId = m01;
shapes = (
{
closed = 1;
nodes = (
(57,11,qs),
(57,544,ls),
(57,556,o),
(68,556,qs),
(77,556,ls),
(155,556,o),
(155,469,qs),
(155,11,ls),
(155,0,o),
(144,0,qs),
(68,0,ls),
(57,0,o)
);
}
);
userData = {
assembly = "NPUSHB[ ]	/* 23 values pushed */
0 1 1 39 77 2 1 0 0 40 0 78 2 0 8 5 0 11 2 11 3 9 22 
CALL[ ]	/* CallFunction */";
};
width = 212;
}
);
note = I;
unicode = 73;
},
{
glyphname = J;
layers = (
{
layerId = m01;
shapes = (
{
closed = 1;
nodes = (
(92,72,qs),
(153,72,o),
(153,135,qs),
(153,544,ls),
(153,556,o),
(164,556,qs),
(173,556,ls),
(252,556,o),
(252,468,qs),
(252,131,ls),
(252,69,o),
(221,32,qs),
(186,-10,o),
(117,-10,qs),
(69,-10,o),
(5,45,o),
(5,87,qs),
(5,104,o),
(17,104,qs),
(21,104,o),
(26,101,q),
(60,72,o)
);
}
);
userData = {
assembly = "NPUSHB[ ]	/* 31 values pushed */
0 0 2 3 2 0 3 128 0 2 2 39 77 0 3 3 1 98 0 1 1 46 1 78 35 53 35 33 4 9 26 
CALL[ ]	/* CallFunction */";
};
width = 306;
}
);
note = J;
unicode = 74;
},
{
glyphname = K;
layers = (
{
layerId = m01;
shapes = (
{
closed = 1;
nodes = (
(155,0,o),
(144,0,qs),
(68,0,ls),
(57,0,o),
(57,11,qs),
(57,544,ls),
(57,556,o),
(68,556,qs),
(77,556,ls),
(155,556,o),
(155,468,qs),
(155,304,l),
(356,543,ls),
(366,556,o),
(377,556,qs),
(459,556,ls),
(463,556,o),
(466,547,o),
(463,544,qs),
(291,339,l),
(489,12,l),
(495,0,o),
(483,0,qs),
(396,0,ls),
(382,0,o),
(376,12,q),
(225,262,l),
(155,179,l),
(155,11,ls)
);
}
);
userData = {
assembly = "NPUSHB[ ]	/* 30 values pushed */
16 9 8 1 0 5 0 1 1 76 2 1 1 1 39 77 3 1 0 0 40 0 78 51 52 53 51 4 9 26 
CALL[ ]	/* CallFunction */";
};
width = 502;
}
);
note = K;
unicode = 75;
},
{
glyphname = L;
layers = (
{
layerId = m01;
shapes = (
{
closed = 1;
nodes = (
(361,91,o),
(361,35,qs),
(361,14,ls),
(361,0,o),
(348,0,qs),
(68,0,ls),
(57,0,o),
(57,11,qs),
(57,544,ls),
(57,556,o),
(68,556,qs),
(77,556,ls),
(155,556,o),
(155,468,qs),
(155,91,l),
(303,91,ls)
);
}
);
userData = {
assembly = "NPUSHB[ ]	/* 28 values pushed */
0 0 0 39 77 3 1 2 2 1 96 0 1 1 40 1 78 0 0 0 15 0 14 51 50 4 9 24 
CALL[ ]	/* CallFunction */";
};
width = 378;
}
);
note = L;
unicode = 76;
},
{
glyphname = M;
layers = (
{
layerId = m01;
shapes = (
{
closed = 1;
nodes = (
(442,556,o),
(452,556,qs),
(508,556,ls),
(538,556,o),
(576,521,o),
(577,493,qs),
(603,11,ls),
(603,0,o),
(596,0,qs),
(517,0,ls),
(507,0,o),
(507,11,qs),
(486,401,l),
(369,11,l),
(367,0,o),
(356,0,qs),
(282,0,ls),
(273,0,o),
(269,11,qs),
(157,398,l),
(136,11,ls),
(136,0,o),
(127,0,qs),
(49,0,ls),
(40,0,o),
(40,11,qs),
(70,544,ls),
(70,556,o),
(80,556,qs),
(137,556,ls),
(172,556,o),
(207,534,o),
(215,507,qs),
(321,145,l),
(438,544,ls)
);
}
);
userData = {
assembly = "NPUSHB[ ]	/* 29 values pushed */
21 14 2 1 0 1 76 4 1 0 0 39 77 3 2 2 1 1 40 1 78 52 52 52 51 51 5 9 27 
CALL[ ]	/* CallFunction */";
};
width = 643;
}
);
note = M;
unicode = 77;
},
{
glyphname = N;
kernRight = N;
layers = (
{
layerId = m01;
shapes = (
{
closed = 1;
nodes = (
(378,556,o),
(389,556,qs),
(397,556,ls),
(476,556,o),
(476,469,qs),
(476,11,ls),
(476,0,o),
(465,0,qs),
(394,0,ls),
(379,0,o),
(372,13,qs),
(154,368,l),
(154,11,ls),
(154,0,o),
(143,0,qs),
(67,0,ls),
(56,0,o),
(56,11,qs),
(56,544,ls),
(56,556,o),
(67,556,qs),
(97,556,ls),
(126,556,o),
(161,535,o),
(178,507,qs),
(378,180,l),
(378,544,ls)
);
}
);
userData = {
assembly = "NPUSHB[ ]	/* 27 values pushed */
14 0 2 1 0 1 76 3 1 0 0 39 77 2 1 1 1 40 1 78 51 52 51 51 4 9 26 
CALL[ ]	/* CallFunction */";
};
width = 533;
}
);
note = N;
unicode = 78;
},
{
glyphname = O;
kernLeft = O;
kernRight = O;
layers = (
{
layerId = m01;
shapes = (
{
closed = 1;
nodes = (
(463,277,qs),
(463,374,o),
(421,424,qs),
(380,473,o),
(304,473,qs),
(238,473,o),
(198,436,qs),
(144,387,o),
(144,277,qs),
(144,83,o),
(304,83,qs),
(463,83,o)
);
},
{
closed = 1;
nodes = (
(121,58,qs),
(44,134,o),
(44,277,qs),
(44,401,o),
(104,477,qs),
(174,566,o),
(304,566,qs),
(417,566,o),
(486,497,qs),
(563,419,o),
(563,277,qs),
(563,153,o),
(504,78,qs),
(435,-10,o),
(304,-10,qs),
(190,-10,o)
);
}
);
userData = {
assembly = "MPPEM[ ]	/* MeasurePixelPerEm */
PUSHB[ ]	/* 1 value pushed */
39 
LT[ ]	/* LessThan */
IF[ ]	/* If */
NPUSHB[ ]	/* 23 values pushed */
0 1 1 3 97 0 3 3 39 77 4 1 0 0 2 97 5 1 2 2 46 2 78 
ELSE[ ]	/* Else */
NPUSHB[ ]	/* 21 values pushed */
0 3 0 1 0 3 1 105 4 1 0 0 2 97 5 1 2 2 46 2 78 
EIF[ ]	/* EndIf */
NPUSHB[ ]	/* 19 values pushed */
13 12 1 0 21 19 12 27 13 27 7 5 0 11 1 11 6 9 22 
CALL[ ]	/* CallFunction */";
};
width = 607;
}
);
note = O;
unicode = 79;
},
{
glyphname = P;
layers = (
{
layerId = m01;
shapes = (
{
closed = 1;
nodes = (
(365,283,o),
(365,377,qs),
(365,418,o),
(314,464,o),
(269,464,qs),
(155,464,l),
(155,283,l),
(268,283,ls)
);
},
{
closed = 1;
nodes = (
(155,0,o),
(144,0,qs),
(68,0,ls),
(57,0,o),
(57,11,qs),
(57,544,ls),
(57,556,o),
(68,556,qs),
(261,556,ls),
(355,556,o),
(407,512,qs),
(463,465,o),
(463,377,qs),
(463,300,o),
(418,251,qs),
(366,193,o),
(273,193,qs),
(155,193,l),
(155,11,ls)
);
}
);
userData = {
assembly = "NPUSHB[ ]	/* 41 values pushed */
5 1 1 0 2 4 1 2 103 0 0 0 3 95 0 3 3 39 77 0 4 4 40 4 78 0 0 25 22 19 16 10 8 0 7 0 6 33 6 9 23 
CALL[ ]	/* CallFunction */";
};
width = 492;
}
);
note = P;
unicode = 80;
},
{
glyphname = Q;
layers = (
{
layerId = m01;
shapes = (
{
closed = 1;
nodes = (
(110,70,qs),
(44,146,o),
(44,277,qs),
(44,401,o),
(104,477,qs),
(174,566,o),
(304,566,qs),
(417,566,o),
(486,497,qs),
(563,419,o),
(563,277,qs),
(563,175,o),
(523,106,qs),
(477,26,o),
(386,3,q),
(411,-32,o),
(456,-32,qs),
(491,-32,o),
(527,-4,qs),
(532,0,o),
(537,0,qs),
(548,0,o),
(548,-18,qs),
(548,-50,o),
(520,-78,qs),
(483,-114,o),
(427,-114,qs),
(316,-114,o),
(268,-8,q),
(169,3,o)
);
},
{
closed = 1;
nodes = (
(462,277,qs),
(462,472,o),
(304,472,qs),
(238,472,o),
(198,436,qs),
(144,387,o),
(144,277,qs),
(144,180,o),
(186,131,qs),
(227,83,o),
(304,83,qs),
(462,83,o)
);
}
);
userData = {
assembly = "PUSHB[ ]	/* 6 values pushed */
14 1 1 4 1 76 
MPPEM[ ]	/* MeasurePixelPerEm */
PUSHB[ ]	/* 1 value pushed */
9 
LT[ ]	/* LessThan */
IF[ ]	/* If */
NPUSHB[ ]	/* 33 values pushed */
6 1 4 5 1 2 4 114 0 1 2 5 1 2 126 0 2 0 0 2 0 102 0 5 5 3 97 0 3 3 39 5 78 
ELSE[ ]	/* Else */
MPPEM[ ]	/* MeasurePixelPerEm */
PUSHB[ ]	/* 1 value pushed */
39 
LT[ ]	/* LessThan */
IF[ ]	/* If */
NPUSHB[ ]	/* 34 values pushed */
6 1 4 5 1 5 4 1 128 0 1 2 5 1 2 126 0 2 0 0 2 0 102 0 5 5 3 97 0 3 3 39 5 78 
ELSE[ ]	/* Else */
NPUSHB[ ]	/* 40 values pushed */
6 1 4 5 1 5 4 1 128 0 1 2 5 1 2 126 0 3 0 5 4 3 5 105 0 2 0 0 2 89 0 2 2 0 98 0 0 2 0 82 
EIF[ ]	/* EndIf */
EIF[ ]	/* EndIf */
NPUSHB[ ]	/* 15 values pushed */
31 30 39 37 30 41 31 41 40 35 20 33 7 9 26 
CALL[ ]	/* CallFunction */";
};
width = 607;
}
);
note = Q;
unicode = 81;
},
{
glyphname = R;
layers = (
{
layerId = m01;
shapes = (
{
closed = 1;
nodes = (
(366,283,o),
(366,377,qs),
(366,418,o),
(314,464,o),
(269,464,qs),
(155,464,l),
(155,283,l),
(268,283,ls)
);
},
{
closed = 1;
nodes = (
(155,0,o),
(144,0,qs),
(68,0,ls),
(57,0,o),
(57,11,qs),
(57,544,ls),
(57,556,o),
(68,556,qs),
(260,556,ls),
(355,556,o),
(407,512,qs),
(463,466,o),
(463,377,qs),
(463,316,o),
(404,227,o),
(351,206,q),
(467,11,ls),
(469,7,o),
(465,0,o),
(461,0,qs),
(377,0,ls),
(360,0,o),
(354,12,qs),
(254,193,l),
(155,193,l),
(155,11,ls)
);
}
);
userData = {
assembly = "NPUSHB[ ]	/* 50 values pushed */
17 1 2 1 1 76 6 1 1 0 2 3 1 2 103 0 0 0 4 95 0 4 4 39 77 5 1 3 3 40 3 78 0 0 32 29 26 23 13 11 9 8 0 7 0 6 33 7 9 23 
CALL[ ]	/* CallFunction */";
};
width = 499;
}
);
note = R;
unicode = 82;
},
{
glyphname = S;
kernLeft = S;
kernRight = S;
layers = (
{
layerId = m01;
shapes = (
{
closed = 1;
nodes = (
(212,79,qs),
(266,79,o),
(327,119,o),
(327,154,qs),
(327,182,o),
(297,202,qs),
(276,215,o),
(224,232,qs),
(142,259,o),
(111,278,qs),
(35,324,o),
(35,408,qs),
(35,477,o),
(85,520,qs),
(139,566,o),
(230,566,qs),
(302,566,o),
(364,543,qs),
(392,533,o),
(411,499,o),
(405,470,qs),
(400,448,ls),
(396,436,o),
(389,436,qs),
(384,436,o),
(374,441,qs),
(306,478,o),
(231,478,qs),
(186,478,o),
(135,444,o),
(135,413,qs),
(135,384,o),
(166,364,qs),
(187,350,o),
(238,333,qs),
(322,305,o),
(352,288,qs),
(427,245,o),
(427,163,qs),
(427,89,o),
(380,44,qs),
(325,-10,o),
(223,-10,qs),
(131,-10,o),
(74,33,qs),
(18,75,o),
(18,136,qs),
(18,157,o),
(32,157,qs),
(39,157,o),
(43,152,qs),
(114,79,o)
);
}
);
userData = {
assembly = "MPPEM[ ]	/* MeasurePixelPerEm */
PUSHB[ ]	/* 1 value pushed */
39 
LT[ ]	/* LessThan */
IF[ ]	/* If */
NPUSHB[ ]	/* 36 values pushed */
0 3 2 0 2 3 0 128 0 0 5 2 0 5 126 0 2 2 4 97 0 4 4 39 77 0 5 5 1 97 0 1 1 46 1 78 
ELSE[ ]	/* Else */
NPUSHB[ ]	/* 34 values pushed */
0 3 2 0 2 3 0 128 0 0 5 2 0 5 126 0 4 0 2 3 4 2 105 0 5 5 1 97 0 1 1 46 1 78 
EIF[ ]	/* EndIf */
NPUSHB[ ]	/* 9 values pushed */
45 38 34 45 36 33 6 9 28 
CALL[ ]	/* CallFunction */";
};
width = 452;
}
);
note = S;
unicode = 83;
},
{
glyphname = T;
layers = (
{
layerId = m01;
shapes = (
{
closed = 1;
nodes = (
(12,464,o),
(12,476,qs),
(12,544,ls),
(12,556,o),
(23,556,qs),
(374,556,ls),
(433,556,o),
(433,499,qs),
(433,478,ls),
(433,464,o),
(419,464,qs),
(270,464,l),
(270,11,ls),
(270,0,o),
(260,0,qs),
(183,0,ls),
(171,0,o),
(171,11,qs),
(171,464,l),
(23,464,ls)
);
}
);
userData = {
assembly = "NPUSHB[ ]	/* 30 values pushed */
4 3 2 1 1 2 95 0 2 2 39 77 0 0 0 40 0 78 0 0 0 19 0 18 51 34 50 5 9 25 
CALL[ ]	/* CallFunction */";
};
width = 444;
}
);
note = T;
unicode = 84;
},
{
glyphname = U;
kernLeft = U;
kernRight = U;
layers = (
{
layerId = m01;
shapes = (
{
closed = 1;
nodes = (
(98,57,qs),
(54,113,o),
(54,203,qs),
(54,544,ls),
(54,556,o),
(65,556,qs),
(73,556,ls),
(152,556,o),
(152,469,qs),
(152,222,ls),
(152,82,o),
(261,82,qs),
(373,82,o),
(373,222,qs),
(373,544,ls),
(373,556,o),
(385,556,qs),
(393,556,ls),
(472,556,o),
(472,469,qs),
(472,204,ls),
(472,130,o),
(440,77,qs),
(387,-10,o),
(261,-10,qs),
(152,-10,o)
);
}
);
userData = {
assembly = "NPUSHB[ ]	/* 33 values pushed */
3 1 1 1 39 77 0 2 2 0 98 4 1 0 0 46 0 78 1 0 20 17 14 12 9 6 0 25 1 25 5 9 22 
CALL[ ]	/* CallFunction */";
};
width = 526;
}
);
note = U;
unicode = 85;
},
{
glyphname = V;
layers = (
{
layerId = m01;
shapes = (
{
closed = 1;
nodes = (
(395,556,o),
(410,556,qs),
(482,556,ls),
(493,556,o),
(490,544,q),
(311,11,ls),
(307,0,o),
(298,0,qs),
(207,0,ls),
(195,0,o),
(192,11,qs),
(13,543,ls),
(9,556,o),
(20,556,qs),
(53,556,ls),
(90,556,o),
(127,524,o),
(140,482,qs),
(256,116,l),
(391,542,ls)
);
}
);
userData = {
assembly = "NPUSHB[ ]	/* 18 values pushed */
2 1 0 0 39 77 0 1 1 40 1 78 51 51 51 3 9 25 
CALL[ ]	/* CallFunction */";
};
width = 497;
}
);
note = V;
unicode = 86;
},
{
glyphname = W;
layers = (
{
layerId = m01;
shapes = (
{
closed = 1;
nodes = (
(323,556,o),
(336,556,qs),
(364,556,ls),
(403,556,o),
(440,524,o),
(450,482,qs),
(539,125,l),
(635,542,ls),
(639,556,o),
(650,556,qs),
(728,556,ls),
(738,556,o),
(735,544,qs),
(600,11,ls),
(597,0,o),
(588,0,qs),
(499,0,ls),
(489,0,o),
(485,11,q),
(375,418,l),
(269,11,l),
(265,0,o),
(255,0,qs),
(167,0,ls),
(156,0,o),
(153,11,qs),
(23,543,l),
(21,556,o),
(31,556,qs),
(51,556,ls),
(90,556,o),
(128,523,o),
(138,482,qs),
(218,125,l),
(321,542,l)
);
}
);
userData = {
assembly = "NPUSHB[ ]	/* 29 values pushed */
27 14 2 1 0 1 76 4 3 2 0 0 39 77 2 1 1 1 40 1 78 53 51 52 51 51 5 9 27 
CALL[ ]	/* CallFunction */";
};
width = 754;
}
);
note = W;
unicode = 87;
},
{
glyphname = X;
layers = (
{
layerId = m01;
shapes = (
{
closed = 1;
nodes = (
(111,0,o),
(99,0,qs),
(18,0,ls),
(13,0,o),
(9,7,o),
(11,11,qs),
(178,289,l),
(25,543,l),
(23,548,o),
(27,556,o),
(31,556,qs),
(70,556,ls),
(107,556,o),
(140,534,o),
(162,496,qs),
(246,358,l),
(357,542,ls),
(365,556,o),
(377,556,qs),
(457,556,ls),
(462,556,o),
(466,549,o),
(462,544,q),
(315,294,l),
(487,11,ls),
(490,7,o),
(486,0,o),
(481,0,qs),
(399,0,ls),
(385,0,o),
(378,13,qs),
(248,227,l),
(118,13,ls)
);
}
);
userData = {
assembly = "NPUSHB[ ]	/* 28 values pushed */
25 16 8 3 0 1 1 76 2 1 1 1 39 77 3 1 0 0 40 0 78 55 37 55 34 4 9 26 
CALL[ ]	/* CallFunction */";
};
width = 498;
}
);
note = X;
unicode = 88;
},
{
glyphname = Y;
kernLeft = Y;
kernRight = Y;
layers = (
{
layerId = m01;
shapes = (
{
closed = 1;
nodes = (
(2,556,o),
(14,556,qs),
(53,556,ls),
(85,556,o),
(124,530,o),
(140,500,qs),
(241,308,l),
(363,542,ls),
(370,556,o),
(382,556,qs),
(459,556,ls),
(472,556,o),
(466,543,qs),
(285,206,l),
(285,11,ls),
(285,0,o),
(274,0,qs),
(197,0,ls),
(187,0,o),
(187,11,qs),
(187,208,l),
(8,544,ls)
);
}
);
userData = {
assembly = "NPUSHB[ ]	/* 26 values pushed */
14 7 0 3 0 1 1 76 2 1 1 1 39 77 0 0 0 40 0 78 53 52 50 3 9 25 
CALL[ ]	/* CallFunction */";
};
width = 466;
}
);
note = Y;
unicode = 89;
},
{
glyphname = Z;
kernLeft = Z;
kernRight = Z;
layers = (
{
layerId = m01;
shapes = (
{
closed = 1;
nodes = (
(419,91,o),
(419,35,qs),
(419,14,ls),
(419,0,o),
(405,0,qs),
(39,0,ls),
(29,0,o),
(29,11,qs),
(29,69,ls),
(29,89,o),
(43,108,qs),
(300,465,l),
(46,465,ls),
(35,465,o),
(35,476,qs),
(35,544,ls),
(35,556,o),
(46,556,qs),
(356,556,ls),
(418,556,o),
(418,496,qs),
(418,482,ls),
(418,464,o),
(405,445,qs),
(148,91,l),
(361,91,ls)
);
}
);
userData = {
assembly = "NPUSHB[ ]	/* 34 values pushed */
0 1 1 0 95 0 0 0 39 77 4 1 3 3 2 95 0 2 2 40 2 78 0 0 0 25 0 24 53 35 53 5 9 25 
CALL[ ]	/* CallFunction */";
};
width = 452;
}
);
note = Z;
unicode = 90;
},
{
glyphname = bracketleft;
layers = (
{
layerId = m01;
shapes = (
{
closed = 1;
nodes = (
(93,-144,o),
(56,-108,o),
(56,-77,qs),
(56,628,ls),
(56,660,o),
(93,696,o),
(125,696,qs),
(237,696,ls),
(254,696,o),
(254,678,qs),
(254,672,ls),
(254,614,o),
(193,614,qs),
(156,614,ls),
(143,614,o),
(143,601,qs),
(143,-49,ls),
(143,-63,o),
(156,-63,qs),
(193,-63,ls),
(254,-63,o),
(254,-120,qs),
(254,-127,ls),
(254,-144,o),
(237,-144,qs),
(125,-144,ls)
);
}
);
userData = {
assembly = "MPPEM[ ]	/* MeasurePixelPerEm */
PUSHB[ ]	/* 1 value pushed */
24 
LT[ ]	/* LessThan */
IF[ ]	/* If */
NPUSHB[ ]	/* 20 values pushed */
0 3 0 2 1 3 2 105 0 1 1 0 95 4 1 0 0 44 0 78 
ELSE[ ]	/* Else */
NPUSHB[ ]	/* 25 values pushed */
0 3 0 2 1 3 2 105 0 1 0 0 1 89 0 1 1 0 95 4 1 0 1 0 79 
EIF[ ]	/* EndIf */
NPUSHB[ ]	/* 15 values pushed */
1 0 19 16 13 10 7 4 0 25 1 24 5 9 22 
CALL[ ]	/* CallFunction */";
};
width = 299;
}
);
note = bracketleft;
unicode = 91;
},
{
glyphname = backslash;
layers = (
{
layerId = m01;
shapes = (
{
closed = 1;
nodes = (
(0,556,o),
(12,556,qs),
(29,556,ls),
(65,556,o),
(101,529,o),
(117,492,qs),
(321,11,ls),
(326,0,o),
(315,0,qs),
(247,0,ls),
(235,0,o),
(231,11,qs),
(5,544,ls)
);
}
);
userData = {
assembly = "NPUSHB[ ]	/* 16 values pushed */
0 1 1 39 77 0 0 0 40 0 78 52 49 2 9 24 
CALL[ ]	/* CallFunction */";
};
width = 318;
}
);
note = backslash;
unicode = 92;
},
{
glyphname = bracketright;
layers = (
{
layerId = m01;
shapes = (
{
closed = 1;
nodes = (
(45,-144,o),
(45,-127,qs),
(45,-120,ls),
(45,-63,o),
(107,-63,qs),
(143,-63,ls),
(156,-63,o),
(156,-49,qs),
(156,601,ls),
(156,614,o),
(143,614,qs),
(107,614,ls),
(45,614,o),
(45,672,qs),
(45,678,ls),
(45,696,o),
(63,696,qs),
(174,696,ls),
(206,696,o),
(243,660,o),
(243,628,qs),
(243,-77,ls),
(243,-108,o),
(206,-144,o),
(174,-144,qs),
(63,-144,ls)
);
}
);
userData = {
assembly = "MPPEM[ ]	/* MeasurePixelPerEm */
PUSHB[ ]	/* 1 value pushed */
24 
LT[ ]	/* LessThan */
IF[ ]	/* If */
NPUSHB[ ]	/* 20 values pushed */
0 1 0 2 3 1 2 105 0 3 3 0 95 4 1 0 0 44 0 78 
ELSE[ ]	/* Else */
NPUSHB[ ]	/* 25 values pushed */
0 1 0 2 3 1 2 105 0 3 0 0 3 89 0 3 3 0 95 4 1 0 3 0 79 
EIF[ ]	/* EndIf */
NPUSHB[ ]	/* 15 values pushed */
1 0 21 18 15 12 9 6 0 25 1 24 5 9 22 
CALL[ ]	/* CallFunction */";
};
width = 299;
}
);
note = bracketright;
unicode = 93;
},
{
glyphname = asciicircum;
layers = (
{
layerId = m01;
shapes = (
{
closed = 1;
nodes = (
(110,269,o),
(98,269,qs),
(33,269,ls),
(28,269,o),
(23,275,o),
(25,279,qs),
(166,543,ls),
(173,556,o),
(186,556,qs),
(241,556,o),
(265,508,qs),
(388,279,ls),
(390,275,o),
(385,269,o),
(380,269,qs),
(315,269,ls),
(301,269,o),
(295,281,qs),
(206,453,l),
(117,281,ls)
);
}
);
userData = {
assembly = "PUSHB[ ]	/* 2 values pushed */
6 100 
WCVTP[ ]	/* WriteCVTInPixels */
NPUSHB[ ]	/* 16 values pushed */
0 1 0 1 133 2 1 0 0 118 52 37 34 3 9 25 
CALL[ ]	/* CallFunction */
PUSHB[ ]	/* 2 values pushed */
6 0 
WCVTP[ ]	/* WriteCVTInPixels */";
};
width = 411;
}
);
note = asciicircum;
unicode = 94;
},
{
glyphname = underscore;
layers = (
{
layerId = m01;
shapes = (
{
closed = 1;
nodes = (
(-7,-186,qs),
(-7,-123,ls),
(-7,-113,o),
(4,-113,qs),
(447,-113,ls),
(457,-113,o),
(457,-123,qs),
(457,-186,ls),
(457,-197,o),
(447,-197,qs),
(4,-197,ls),
(-7,-197,o)
);
}
);
userData = {
assembly = "PUSHB[ ]	/* 2 values pushed */
6 100 
WCVTP[ ]	/* WriteCVTInPixels */
NPUSHB[ ]	/* 28 values pushed */
0 1 0 0 1 87 0 1 1 0 95 2 1 0 1 0 79 2 0 8 5 0 11 2 11 3 9 22 
CALL[ ]	/* CallFunction */
PUSHB[ ]	/* 2 values pushed */
6 0 
WCVTP[ ]	/* WriteCVTInPixels */";
};
width = 451;
}
);
note = underscore;
unicode = 95;
},
{
glyphname = grave;
layers = (
{
layerId = m01;
shapes = (
{
closed = 1;
nodes = (
(4,528,o),
(9,528,qs),
(89,528,ls),
(104,528,o),
(116,518,qs),
(199,442,ls),
(203,439,o),
(199,430,o),
(193,430,qs),
(128,430,ls),
(109,430,o),
(95,441,qs),
(6,516,l),
(1,519,o)
);
}
);
userData = {
assembly = "PUSHB[ ]	/* 2 values pushed */
6 100 
WCVTP[ ]	/* WriteCVTInPixels */
NPUSHB[ ]	/* 14 values pushed */
0 1 0 1 133 0 0 0 118 37 34 2 9 24 
CALL[ ]	/* CallFunction */
PUSHB[ ]	/* 2 values pushed */
6 0 
WCVTP[ ]	/* WriteCVTInPixels */";
};
width = 200;
}
);
note = grave;
unicode = 96;
},
{
glyphname = a;
kernLeft = a;
kernRight = a;
layers = (
{
layerId = m01;
shapes = (
{
closed = 1;
nodes = (
(205,-9,qs),
(129,-9,o),
(83,42,qs),
(33,97,o),
(33,189,qs),
(33,269,o),
(74,322,qs),
(123,386,o),
(207,386,qs),
(286,386,o),
(330,332,q),
(344,376,o),
(401,376,qs),
(406,376,ls),
(417,376,o),
(417,364,qs),
(417,11,ls),
(417,0,o),
(406,0,qs),
(332,0,ls),
(322,0,o),
(322,11,qs),
(322,47,l),
(280,-9,o)
);
},
{
closed = 1;
nodes = (
(322,138,o),
(322,189,qs),
(322,239,o),
(273,294,o),
(227,294,qs),
(183,294,o),
(131,237,o),
(131,189,qs),
(131,140,o),
(183,81,o),
(226,81,qs),
(271,81,o)
);
}
);
userData = {
assembly = "NPUSHB[ ]	/* 10 values pushed */
12 1 5 1 0 1 0 4 2 76 
MPPEM[ ]	/* MeasurePixelPerEm */
PUSHB[ ]	/* 1 value pushed */
20 
LT[ ]	/* LessThan */
IF[ ]	/* If */
NPUSHB[ ]	/* 24 values pushed */
0 5 5 1 97 2 1 1 1 42 77 6 1 4 4 0 97 3 1 0 0 40 0 78 
ELSE[ ]	/* Else */
MPPEM[ ]	/* MeasurePixelPerEm */
PUSHB[ ]	/* 1 value pushed */
22 
LT[ ]	/* LessThan */
IF[ ]	/* If */
NPUSHB[ ]	/* 28 values pushed */
0 1 1 42 77 0 5 5 2 97 0 2 2 48 77 6 1 4 4 0 97 3 1 0 0 40 0 78 
ELSE[ ]	/* Else */
NPUSHB[ ]	/* 32 values pushed */
0 1 1 42 77 0 5 5 2 97 0 2 2 48 77 0 0 0 40 77 6 1 4 4 3 97 0 3 3 46 3 78 
EIF[ ]	/* EndIf */
EIF[ ]	/* EndIf */
NPUSHB[ ]	/* 15 values pushed */
25 24 31 29 24 35 25 35 38 34 51 50 7 9 26 
CALL[ ]	/* CallFunction */";
};
width = 463;
}
);
note = a;
unicode = 97;
},
{
glyphname = b;
layers = (
{
layerId = m01;
shapes = (
{
closed = 1;
nodes = (
(141,0,o),
(131,0,qs),
(56,0,ls),
(47,0,o),
(47,11,qs),
(47,544,ls),
(47,556,o),
(56,556,qs),
(61,556,ls),
(141,556,o),
(141,472,qs),
(141,328,l),
(181,386,o),
(259,386,qs),
(332,386,o),
(378,339,qs),
(430,285,o),
(430,189,qs),
(430,110,o),
(392,57,qs),
(345,-9,o),
(259,-9,qs),
(182,-9,o),
(141,46,q),
(141,11,ls)
);
},
{
closed = 1;
nodes = (
(331,139,o),
(331,189,qs),
(331,237,o),
(280,294,o),
(236,294,qs),
(191,294,o),
(141,239,o),
(141,189,qs),
(141,139,o),
(193,81,o),
(236,81,qs),
(280,81,o)
);
}
);
userData = {
assembly = "MPPEM[ ]	/* MeasurePixelPerEm */
PUSHB[ ]	/* 1 value pushed */
22 
LT[ ]	/* LessThan */
IF[ ]	/* If */
NPUSHB[ ]	/* 10 values pushed */
12 1 5 1 0 1 0 4 2 76 
ELSE[ ]	/* Else */
NPUSHB[ ]	/* 10 values pushed */
12 1 5 1 0 1 3 4 2 76 
EIF[ ]	/* EndIf */
MPPEM[ ]	/* MeasurePixelPerEm */
PUSHB[ ]	/* 1 value pushed */
22 
LT[ ]	/* LessThan */
IF[ ]	/* If */
NPUSHB[ ]	/* 28 values pushed */
0 2 2 39 77 0 5 5 1 97 0 1 1 48 77 6 1 4 4 0 97 3 1 0 0 46 0 78 
ELSE[ ]	/* Else */
NPUSHB[ ]	/* 32 values pushed */
0 2 2 39 77 0 5 5 1 97 0 1 1 48 77 0 3 3 40 77 6 1 4 4 0 97 0 0 0 46 0 78 
EIF[ ]	/* EndIf */
NPUSHB[ ]	/* 15 values pushed */
26 25 32 30 25 36 26 36 51 51 38 33 7 9 26 
CALL[ ]	/* CallFunction */";
};
width = 462;
}
);
note = b;
unicode = 98;
},
{
glyphname = c;
kernLeft = c;
kernRight = c;
layers = (
{
layerId = m01;
shapes = (
{
closed = 1;
nodes = (
(337,111,qs),
(348,111,o),
(348,95,qs),
(348,60,o),
(324,31,qs),
(288,-10,o),
(217,-10,qs),
(138,-10,o),
(90,36,qs),
(33,89,o),
(33,188,qs),
(33,272,o),
(79,325,qs),
(131,384,o),
(223,384,qs),
(268,384,o),
(301,372,qs),
(349,353,o),
(335,301,qs),
(329,279,l),
(325,271,o),
(321,271,qs),
(316,271,o),
(312,274,q),
(266,294,o),
(227,294,qs),
(183,294,o),
(131,236,o),
(131,186,qs),
(131,132,o),
(187,74,o),
(238,74,qs),
(284,74,o),
(325,104,qs),
(333,111,o)
);
}
);
userData = {
assembly = "NPUSHB[ ]	/* 45 values pushed */
0 2 1 5 1 2 5 128 0 5 0 1 5 0 126 0 1 1 3 97 0 3 3 48 77 0 0 0 4 97 0 4 4 46 4 78 20 38 37 34 36 33 6 9 28 
CALL[ ]	/* CallFunction */";
};
width = 363;
}
);
note = c;
unicode = 99;
},
{
glyphname = d;
layers = (
{
layerId = m01;
shapes = (
{
closed = 1;
nodes = (
(322,556,o),
(333,556,qs),
(338,556,ls),
(418,556,o),
(418,472,qs),
(418,11,ls),
(418,0,o),
(408,0,qs),
(333,0,ls),
(322,0,o),
(322,11,qs),
(322,47,l),
(280,-9,o),
(205,-9,qs),
(129,-9,o),
(83,43,qs),
(33,98,o),
(33,189,qs),
(33,269,o),
(74,322,qs),
(123,386,o),
(211,386,qs),
(286,386,o),
(322,333,q),
(322,544,ls)
);
},
{
closed = 1;
nodes = (
(322,138,o),
(322,189,qs),
(322,239,o),
(273,294,o),
(228,294,qs),
(183,294,o),
(131,238,o),
(131,189,qs),
(131,140,o),
(183,81,o),
(227,81,qs),
(272,81,o)
);
}
);
userData = {
assembly = "MPPEM[ ]	/* MeasurePixelPerEm */
PUSHB[ ]	/* 1 value pushed */
22 
LT[ ]	/* LessThan */
IF[ ]	/* If */
NPUSHB[ ]	/* 10 values pushed */
0 1 5 0 12 1 1 4 2 76 
ELSE[ ]	/* Else */
NPUSHB[ ]	/* 10 values pushed */
0 1 5 0 12 1 2 4 2 76 
EIF[ ]	/* EndIf */
MPPEM[ ]	/* MeasurePixelPerEm */
PUSHB[ ]	/* 1 value pushed */
22 
LT[ ]	/* LessThan */
IF[ ]	/* If */
NPUSHB[ ]	/* 28 values pushed */
0 3 3 39 77 0 5 5 0 97 0 0 0 48 77 6 1 4 4 1 97 2 1 1 1 46 1 78 
ELSE[ ]	/* Else */
NPUSHB[ ]	/* 32 values pushed */
0 3 3 39 77 0 5 5 0 97 0 0 0 48 77 0 2 2 40 77 6 1 4 4 1 97 0 1 1 46 1 78 
EIF[ ]	/* EndIf */
NPUSHB[ ]	/* 15 values pushed */
26 25 32 30 25 36 26 36 51 51 38 33 7 9 26 
CALL[ ]	/* CallFunction */";
};
width = 463;
}
);
note = d;
unicode = 100;
},
{
glyphname = e;
kernLeft = e;
kernRight = e;
layers = (
{
layerId = m01;
shapes = (
{
closed = 1;
nodes = (
(193,72,o),
(240,72,qs),
(298,72,o),
(353,102,qs),
(364,108,o),
(369,108,qs),
(380,108,o),
(380,94,qs),
(380,59,o),
(349,30,qs),
(307,-10,o),
(228,-10,qs),
(149,-10,o),
(97,34,qs),
(33,89,o),
(33,189,qs),
(33,269,o),
(76,322,qs),
(127,384,o),
(217,384,qs),
(295,384,o),
(341,338,qs),
(387,291,o),
(387,213,qs),
(387,188,o),
(385,167,qs),
(383,154,o),
(368,154,qs),
(129,154,l),
(134,115,o)
);
},
{
closed = 1;
nodes = (
(295,258,o),
(254,303,o),
(217,303,qs),
(141,303,o),
(129,223,q),
(291,223,l)
);
}
);
userData = {
assembly = "NPUSHB[ ]	/* 53 values pushed */
0 3 0 4 0 3 4 128 7 1 6 0 0 3 6 0 103 0 5 5 1 97 0 1 1 48 77 0 4 4 2 97 0 2 2 46 2 78 30 30 30 35 30 35 35 35 20 38 38 32 8 9 28 
CALL[ ]	/* CallFunction */";
};
width = 418;
}
);
note = e;
unicode = 101;
},
{
glyphname = f;
kernLeft = f;
layers = (
{
layerId = m01;
shapes = (
{
closed = 1;
nodes = (
(12,290,o),
(12,301,qs),
(12,364,ls),
(12,376,o),
(22,376,qs),
(79,376,l),
(79,424,ls),
(79,488,o),
(106,523,qs),
(135,561,o),
(190,561,qs),
(233,561,o),
(290,512,o),
(290,476,qs),
(290,459,o),
(280,459,qs),
(274,459,o),
(270,461,qs),
(239,479,o),
(219,479,qs),
(174,479,o),
(174,418,qs),
(174,376,l),
(266,376,ls),
(278,376,o),
(278,364,qs),
(278,301,ls),
(278,290,o),
(266,290,qs),
(174,290,l),
(174,11,ls),
(174,0,o),
(163,0,qs),
(90,0,ls),
(79,0,o),
(79,11,qs),
(79,290,l),
(22,290,ls)
);
}
);
userData = {
assembly = "NPUSHB[ ]	/* 53 values pushed */
0 4 3 2 3 4 2 128 0 3 3 5 97 0 5 5 39 77 8 7 2 1 1 2 95 6 1 2 2 42 77 0 0 0 40 0 78 0 0 0 37 0 36 36 35 19 34 35 34 50 9 9 29 
CALL[ ]	/* CallFunction */";
};
width = 307;
}
);
note = f;
unicode = 102;
},
{
glyphname = g;
layers = (
{
layerId = m01;
shapes = (
{
closed = 1;
nodes = (
(205,-3,qs),
(129,-3,o),
(83,46,qs),
(33,99,o),
(33,189,qs),
(33,268,o),
(75,322,qs),
(124,386,o),
(208,386,qs),
(288,386,o),
(331,332,q),
(345,376,o),
(403,376,qs),
(408,376,ls),
(418,376,o),
(418,364,qs),
(418,16,ls),
(418,-65,o),
(376,-113,qs),
(326,-171,o),
(225,-171,qs),
(154,-171,o),
(105,-138,qs),
(53,-104,o),
(53,-57,qs),
(53,-37,o),
(66,-37,qs),
(71,-37,o),
(77,-42,qs),
(78,-43,o),
(79,-44,qs),
(126,-83,o),
(204,-83,qs),
(322,-83,o),
(322,15,qs),
(322,53,l),
(279,-3,o)
);
},
{
closed = 1;
nodes = (
(322,138,o),
(322,189,qs),
(322,239,o),
(273,294,o),
(228,294,qs),
(183,294,o),
(131,238,o),
(131,189,qs),
(131,140,o),
(183,81,o),
(227,81,qs),
(272,81,o)
);
}
);
userData = {
assembly = "NPUSHB[ ]	/* 10 values pushed */
25 1 7 3 0 1 5 6 2 76 
MPPEM[ ]	/* MeasurePixelPerEm */
PUSHB[ ]	/* 1 value pushed */
20 
LT[ ]	/* LessThan */
IF[ ]	/* If */
NPUSHB[ ]	/* 41 values pushed */
0 1 5 0 5 1 0 128 0 7 7 3 97 4 1 3 3 42 77 8 1 6 6 5 97 0 5 5 40 77 0 0 0 2 97 0 2 2 50 2 78 
ELSE[ ]	/* Else */
NPUSHB[ ]	/* 45 values pushed */
0 1 5 0 5 1 0 128 0 3 3 42 77 0 7 7 4 97 0 4 4 48 77 8 1 6 6 5 97 0 5 5 40 77 0 0 0 2 97 0 2 2 50 2 78 
EIF[ ]	/* EndIf */
NPUSHB[ ]	/* 17 values pushed */
38 37 44 42 37 48 38 48 38 34 53 36 36 34 9 9 28 
CALL[ ]	/* CallFunction */";
};
width = 463;
}
);
note = g;
unicode = 103;
},
{
glyphname = h;
layers = (
{
layerId = m01;
shapes = (
{
closed = 1;
nodes = (
(249,386,qs),
(313,386,o),
(353,348,qs),
(400,304,o),
(400,219,qs),
(400,11,ls),
(400,0,o),
(389,0,qs),
(315,0,ls),
(304,0,o),
(304,11,qs),
(304,207,ls),
(304,297,o),
(224,297,qs),
(141,297,o),
(141,204,qs),
(141,11,ls),
(141,0,o),
(131,0,qs),
(58,0,ls),
(47,0,o),
(47,11,qs),
(47,544,ls),
(47,556,o),
(58,556,qs),
(63,556,ls),
(141,556,o),
(141,472,qs),
(141,336,l),
(178,386,o)
);
}
);
userData = {
assembly = "NPUSHB[ ]	/* 36 values pushed */
0 1 2 4 1 76 0 0 0 39 77 0 2 2 4 97 0 4 4 48 77 3 1 1 1 40 1 78 37 51 35 51 50 5 9 27 
CALL[ ]	/* CallFunction */";
};
width = 444;
}
);
note = h;
unicode = 104;
},
{
glyphname = i;
kernLeft = i;
kernRight = i;
layers = (
{
layerId = m01;
shapes = (
{
closed = 1;
nodes = (
(46,11,qs),
(46,364,ls),
(46,376,o),
(56,376,qs),
(61,376,ls),
(141,376,o),
(141,291,qs),
(141,11,ls),
(141,0,o),
(130,0,qs),
(56,0,ls),
(46,0,o)
);
},
{
closed = 1;
nodes = (
(70,529,o),
(93,529,qs),
(116,529,o),
(147,497,o),
(147,474,qs),
(147,451,o),
(116,419,o),
(93,419,qs),
(70,419,o),
(39,451,o),
(39,474,qs),
(39,498,o)
);
}
);
userData = {
assembly = "NPUSHB[ ]	/* 35 values pushed */
0 3 0 2 1 3 2 105 0 1 1 42 77 4 1 0 0 40 0 78 2 0 22 20 16 14 8 5 0 11 2 11 5 9 22 
CALL[ ]	/* CallFunction */";
};
width = 189;
}
);
note = i;
unicode = 105;
},
{
glyphname = j;
layers = (
{
layerId = m01;
shapes = (
{
closed = 1;
nodes = (
(-58,-67,qs),
(-53,-67,o),
(-49,-70,qs),
(-17,-89,o),
(3,-89,qs),
(27,-89,o),
(47,-59,o),
(47,-25,qs),
(47,364,ls),
(47,376,o),
(57,376,qs),
(62,376,ls),
(142,376,o),
(142,291,qs),
(142,-32,ls),
(142,-171,o),
(34,-171,qs),
(-9,-171,o),
(-69,-121,o),
(-69,-85,qs),
(-69,-67,o)
);
},
{
closed = 1;
nodes = (
(71,529,o),
(94,529,qs),
(117,529,o),
(148,497,o),
(148,473,qs),
(148,451,o),
(116,419,o),
(94,419,qs),
(71,419,o),
(40,451,o),
(40,473,qs),
(40,497,o)
);
}
);
userData = {
assembly = "NPUSHB[ ]	/* 41 values pushed */
0 3 1 2 1 3 2 128 0 5 0 4 1 5 4 105 0 1 1 42 77 0 2 2 0 98 0 0 0 50 0 78 36 35 34 36 51 34 6 9 28 
CALL[ ]	/* CallFunction */";
};
width = 189;
}
);
note = j;
unicode = 106;
},
{
glyphname = k;
layers = (
{
layerId = m01;
shapes = (
{
closed = 1;
nodes = (
(141,0,o),
(131,0,qs),
(56,0,ls),
(47,0,o),
(47,11,qs),
(47,544,ls),
(47,556,o),
(56,556,qs),
(61,556,ls),
(141,556,o),
(141,472,qs),
(141,240,l),
(258,363,l),
(267,376,o),
(279,376,qs),
(363,376,ls),
(367,376,o),
(371,368,o),
(368,364,qs),
(250,239,l),
(383,11,ls),
(385,7,o),
(381,0,o),
(376,0,qs),
(294,0,ls),
(278,0,o),
(273,12,q),
(184,168,l),
(141,123,l),
(141,11,ls)
);
}
);
userData = {
assembly = "NPUSHB[ ]	/* 33 values pushed */
17 9 1 0 4 0 1 1 76 0 2 2 39 77 0 1 1 42 77 3 1 0 0 40 0 78 51 52 55 35 4 9 26 
CALL[ ]	/* CallFunction */";
};
width = 393;
}
);
note = k;
unicode = 107;
},
{
glyphname = l;
kernRight = l;
layers = (
{
layerId = m01;
shapes = (
{
closed = 1;
nodes = (
(228,98,qs),
(232,101,o),
(235,101,qs),
(246,101,o),
(246,87,qs),
(246,44,o),
(193,-8,o),
(149,-8,qs),
(47,-8,o),
(47,119,qs),
(47,544,ls),
(47,556,o),
(57,556,qs),
(62,556,ls),
(143,556,o),
(143,472,qs),
(143,128,ls),
(143,76,o),
(180,76,qs),
(204,76,o),
(225,96,q),
(226,96,o)
);
}
);
userData = {
assembly = "NPUSHB[ ]	/* 31 values pushed */
0 3 1 0 1 3 0 128 0 1 1 39 77 0 0 0 2 98 0 2 2 46 2 78 19 35 51 33 4 9 26 
CALL[ ]	/* CallFunction */";
};
width = 246;
}
);
note = l;
unicode = 108;
},
{
glyphname = m;
layers = (
{
layerId = m01;
shapes = (
{
closed = 1;
nodes = (
(244,383,qs),
(331,383,o),
(369,317,q),
(417,383,o),
(491,383,qs),
(559,383,o),
(597,346,qs),
(643,303,o),
(643,216,qs),
(643,11,ls),
(643,0,o),
(631,0,qs),
(557,0,ls),
(547,0,o),
(547,11,qs),
(547,205,ls),
(547,297,o),
(471,297,qs),
(434,297,o),
(393,248,o),
(393,204,qs),
(393,11,ls),
(393,0,o),
(383,0,qs),
(308,0,ls),
(297,0,o),
(297,11,qs),
(297,205,ls),
(297,297,o),
(221,297,qs),
(143,297,o),
(143,204,qs),
(143,11,ls),
(143,0,o),
(132,0,qs),
(56,0,ls),
(47,0,o),
(47,11,qs),
(47,364,ls),
(47,376,o),
(56,376,qs),
(61,376,ls),
(123,376,o),
(136,329,q),
(177,383,o)
);
}
);
userData = {
assembly = "PUSHB[ ]	/* 6 values pushed */
41 1 2 0 1 76 
MPPEM[ ]	/* MeasurePixelPerEm */
PUSHB[ ]	/* 1 value pushed */
26 
LT[ ]	/* LessThan */
IF[ ]	/* If */
NPUSHB[ ]	/* 21 values pushed */
4 1 2 2 0 97 7 6 2 0 0 42 77 5 3 2 1 1 40 1 78 
ELSE[ ]	/* Else */
NPUSHB[ ]	/* 25 values pushed */
0 0 0 42 77 4 1 2 2 6 97 7 1 6 6 48 77 5 3 2 1 1 40 1 78 
EIF[ ]	/* EndIf */
NPUSHB[ ]	/* 11 values pushed */
34 37 51 36 51 35 51 49 8 9 30 
CALL[ ]	/* CallFunction */";
};
width = 687;
}
);
note = m;
unicode = 109;
},
{
glyphname = n;
kernLeft = n;
kernRight = n;
layers = (
{
layerId = m01;
shapes = (
{
closed = 1;
nodes = (
(249,383,qs),
(316,383,o),
(355,346,qs),
(401,303,o),
(401,216,qs),
(401,11,ls),
(401,0,o),
(390,0,qs),
(316,0,ls),
(305,0,o),
(305,11,qs),
(305,204,ls),
(305,295,o),
(224,295,qs),
(143,295,o),
(143,202,qs),
(143,11,ls),
(143,0,o),
(131,0,qs),
(58,0,ls),
(47,0,o),
(47,11,qs),
(47,364,ls),
(47,376,o),
(58,376,qs),
(63,376,ls),
(123,376,o),
(136,327,q),
(178,383,o)
);
}
);
userData = {
assembly = "MPPEM[ ]	/* MeasurePixelPerEm */
PUSHB[ ]	/* 1 value pushed */
26 
LT[ ]	/* LessThan */
IF[ ]	/* If */
NPUSHB[ ]	/* 18 values pushed */
0 2 2 0 97 4 1 0 0 42 77 3 1 1 1 40 1 78 
ELSE[ ]	/* Else */
NPUSHB[ ]	/* 22 values pushed */
0 0 0 42 77 0 2 2 4 97 0 4 4 48 77 3 1 1 1 40 1 78 
EIF[ ]	/* EndIf */
PUSHB[ ]	/* 8 values pushed */
37 51 35 51 49 5 9 27 
CALL[ ]	/* CallFunction */";
};
width = 445;
}
);
note = n;
unicode = 110;
},
{
glyphname = o;
kernLeft = o;
kernRight = o;
layers = (
{
layerId = m01;
shapes = (
{
closed = 1;
nodes = (
(92,37,qs),
(33,92,o),
(33,188,qs),
(33,271,o),
(78,324,qs),
(131,384,o),
(225,384,qs),
(306,384,o),
(358,338,qs),
(417,284,o),
(417,188,qs),
(417,105,o),
(372,52,qs),
(320,-10,o),
(226,-10,qs),
(144,-10,o)
);
},
{
closed = 1;
nodes = (
(287,102,qs),
(319,129,o),
(319,186,qs),
(319,236,o),
(269,294,o),
(225,294,qs),
(181,294,o),
(131,237,o),
(131,187,qs),
(131,137,o),
(181,81,o),
(225,81,qs),
(263,81,o)
);
}
);
userData = {
assembly = "NPUSHB[ ]	/* 42 values pushed */
0 3 3 1 97 0 1 1 48 77 5 1 2 2 0 97 4 1 0 0 46 0 78 17 16 1 0 23 21 16 28 17 28 9 7 0 15 1 15 6 9 22 
CALL[ ]	/* CallFunction */";
};
width = 451;
}
);
note = o;
unicode = 111;
},
{
glyphname = p;
layers = (
{
layerId = m01;
shapes = (
{
closed = 1;
nodes = (
(141,-160,o),
(131,-160,qs),
(56,-160,ls),
(47,-160,o),
(47,-149,qs),
(47,364,ls),
(47,376,o),
(56,376,qs),
(61,376,ls),
(120,376,o),
(135,327,q),
(174,384,o),
(253,384,qs),
(331,384,o),
(379,335,qs),
(430,282,o),
(430,189,qs),
(430,110,o),
(392,57,qs),
(345,-9,o),
(259,-9,qs),
(181,-9,o),
(141,44,q),
(141,-149,ls)
);
},
{
closed = 1;
nodes = (
(331,140,o),
(331,189,qs),
(331,237,o),
(280,294,o),
(236,294,qs),
(191,294,o),
(141,239,o),
(141,189,qs),
(141,139,o),
(193,81,o),
(238,81,qs),
(280,81,o)
);
}
);
userData = {
assembly = "MPPEM[ ]	/* MeasurePixelPerEm */
PUSHB[ ]	/* 1 value pushed */
24 
LT[ ]	/* LessThan */
IF[ ]	/* If */
NPUSHB[ ]	/* 10 values pushed */
12 1 5 1 0 1 0 4 2 76 
ELSE[ ]	/* Else */
NPUSHB[ ]	/* 10 values pushed */
12 1 5 2 0 1 0 4 2 76 
EIF[ ]	/* EndIf */
MPPEM[ ]	/* MeasurePixelPerEm */
PUSHB[ ]	/* 1 value pushed */
24 
LT[ ]	/* LessThan */
IF[ ]	/* If */
NPUSHB[ ]	/* 28 values pushed */
0 5 5 1 97 2 1 1 1 48 77 6 1 4 4 0 97 0 0 0 46 77 0 3 3 44 3 78 
ELSE[ ]	/* Else */
NPUSHB[ ]	/* 32 values pushed */
0 2 2 42 77 0 5 5 1 97 0 1 1 48 77 6 1 4 4 0 97 0 0 0 46 77 0 3 3 44 3 78 
EIF[ ]	/* EndIf */
NPUSHB[ ]	/* 15 values pushed */
25 24 31 29 24 35 25 35 51 50 38 33 7 9 26 
CALL[ ]	/* CallFunction */";
};
width = 462;
}
);
note = p;
unicode = 112;
},
{
glyphname = q;
layers = (
{
layerId = m01;
shapes = (
{
closed = 1;
nodes = (
(205,-9,qs),
(129,-9,o),
(83,43,qs),
(33,98,o),
(33,189,qs),
(33,268,o),
(75,322,qs),
(124,386,o),
(208,386,qs),
(286,386,o),
(331,332,q),
(343,376,o),
(403,376,qs),
(408,376,ls),
(418,376,o),
(418,364,qs),
(418,-149,ls),
(418,-160,o),
(408,-160,qs),
(333,-160,ls),
(322,-160,o),
(322,-149,qs),
(322,47,l),
(280,-9,o)
);
},
{
closed = 1;
nodes = (
(322,138,o),
(322,189,qs),
(322,239,o),
(273,294,o),
(228,294,qs),
(183,294,o),
(131,238,o),
(131,189,qs),
(131,140,o),
(183,81,o),
(227,81,qs),
(272,81,o)
);
}
);
userData = {
assembly = "NPUSHB[ ]	/* 10 values pushed */
12 1 5 1 0 1 3 4 2 76 
MPPEM[ ]	/* MeasurePixelPerEm */
PUSHB[ ]	/* 1 value pushed */
20 
LT[ ]	/* LessThan */
IF[ ]	/* If */
NPUSHB[ ]	/* 28 values pushed */
0 5 5 1 97 2 1 1 1 42 77 6 1 4 4 3 97 0 3 3 46 77 0 0 0 44 0 78 
ELSE[ ]	/* Else */
NPUSHB[ ]	/* 32 values pushed */
0 1 1 42 77 0 5 5 2 97 0 2 2 48 77 6 1 4 4 3 97 0 3 3 46 77 0 0 0 44 0 78 
EIF[ ]	/* EndIf */
NPUSHB[ ]	/* 15 values pushed */
25 24 31 29 24 35 25 35 38 34 51 50 7 9 26 
CALL[ ]	/* CallFunction */";
};
width = 463;
}
);
note = q;
unicode = 113;
},
{
glyphname = r;
kernLeft = r;
layers = (
{
layerId = m01;
shapes = (
{
closed = 1;
nodes = (
(201,376,o),
(244,376,qs),
(255,376,ls),
(265,376,o),
(265,364,qs),
(265,296,ls),
(265,284,o),
(255,284,qs),
(229,284,ls),
(180,284,o),
(161,260,qs),
(141,237,o),
(141,176,qs),
(141,11,ls),
(141,0,o),
(131,0,qs),
(56,0,ls),
(47,0,o),
(47,11,qs),
(47,364,ls),
(47,376,o),
(56,376,qs),
(61,376,ls),
(126,376,o),
(138,321,q),
(155,352,o)
);
}
);
userData = {
assembly = "NPUSHB[ ]	/* 24 values pushed */
0 2 2 0 97 3 1 0 0 42 77 0 1 1 40 1 78 51 53 51 49 4 9 26 
CALL[ ]	/* CallFunction */";
};
width = 289;
}
);
note = r;
unicode = 114;
},
{
glyphname = s;
kernLeft = s;
layers = (
{
layerId = m01;
shapes = (
{
closed = 1;
nodes = (
(148,68,qs),
(209,68,o),
(209,107,qs),
(209,121,o),
(183,140,o),
(145,153,qs),
(78,178,o),
(28,227,o),
(28,268,qs),
(28,322,o),
(67,353,qs),
(107,384,o),
(174,384,qs),
(220,384,o),
(252,369,qs),
(279,358,o),
(294,326,o),
(286,299,qs),
(283,288,ls),
(281,280,o),
(275,280,qs),
(273,280,o),
(269,282,qs),
(265,283,o),
(264,284,q),
(216,307,o),
(172,307,qs),
(124,307,o),
(124,274,qs),
(124,261,o),
(150,241,o),
(188,227,qs),
(256,201,o),
(305,154,o),
(305,115,qs),
(305,63,o),
(270,29,qs),
(230,-10,o),
(159,-10,qs),
(102,-10,o),
(62,18,qs),
(18,49,o),
(18,93,qs),
(18,113,o),
(30,113,qs),
(32,113,o),
(36,111,q),
(37,110,o),
(38,109,qs),
(89,68,o)
);
}
);
userData = {
assembly = "NPUSHB[ ]	/* 43 values pushed */
28 1 0 2 1 76 0 0 2 4 2 0 4 128 0 2 2 3 97 0 3 3 48 77 0 4 4 1 97 0 1 1 46 1 78 42 44 42 36 35 5 9 27 
CALL[ ]	/* CallFunction */";
};
width = 324;
}
);
note = s;
unicode = 115;
},
{
glyphname = t;
layers = (
{
layerId = m01;
shapes = (
{
closed = 1;
nodes = (
(14,289,o),
(14,301,qs),
(14,364,ls),
(14,376,o),
(25,376,qs),
(91,376,l),
(91,497,ls),
(91,508,o),
(101,508,qs),
(106,508,ls),
(186,508,o),
(186,424,qs),
(186,376,l),
(267,376,ls),
(276,376,o),
(276,364,qs),
(276,301,ls),
(276,289,o),
(267,289,qs),
(186,289,l),
(186,11,ls),
(186,0,o),
(176,0,qs),
(101,0,ls),
(91,0,o),
(91,11,qs),
(91,289,l),
(25,289,ls)
);
}
);
userData = {
assembly = "NPUSHB[ ]	/* 38 values pushed */
6 5 2 1 1 2 95 4 1 2 2 42 77 0 3 3 0 95 0 0 0 40 0 78 0 0 0 27 0 26 34 50 35 34 50 7 9 27 
CALL[ ]	/* CallFunction */";
};
width = 297;
}
);
note = t;
unicode = 116;
},
{
glyphname = u;
kernLeft = u;
kernRight = u;
layers = (
{
layerId = m01;
shapes = (
{
closed = 1;
nodes = (
(93,36,qs),
(46,85,o),
(46,182,qs),
(46,364,ls),
(46,376,o),
(56,376,qs),
(61,376,ls),
(142,376,o),
(142,291,qs),
(142,170,ls),
(142,126,o),
(182,78,o),
(219,78,qs),
(299,78,o),
(299,169,qs),
(299,364,ls),
(299,376,o),
(310,376,qs),
(315,376,ls),
(395,376,o),
(395,291,qs),
(395,176,ls),
(395,-10,o),
(219,-10,qs),
(137,-10,o)
);
}
);
userData = {
assembly = "NPUSHB[ ]	/* 33 values pushed */
3 1 1 1 42 77 0 2 2 0 98 4 1 0 0 46 0 78 1 0 19 16 12 10 7 4 0 24 1 24 5 9 22 
CALL[ ]	/* CallFunction */";
};
width = 441;
}
);
note = u;
unicode = 117;
},
{
glyphname = v;
layers = (
{
layerId = m01;
shapes = (
{
closed = 1;
nodes = (
(282,376,o),
(294,376,qs),
(369,376,ls),
(380,376,o),
(376,364,qs),
(254,11,ls),
(250,0,o),
(240,0,qs),
(150,0,ls),
(139,0,o),
(135,11,qs),
(14,364,ls),
(10,376,o),
(20,376,qs),
(37,376,ls),
(80,376,o),
(120,342,o),
(134,294,qs),
(196,94,l),
(279,363,l)
);
}
);
userData = {
assembly = "NPUSHB[ ]	/* 18 values pushed */
2 1 0 0 42 77 0 1 1 40 1 78 51 51 51 3 9 25 
CALL[ ]	/* CallFunction */";
};
width = 383;
}
);
note = v;
unicode = 118;
},
{
glyphname = w;
layers = (
{
layerId = m01;
shapes = (
{
closed = 1;
nodes = (
(257,376,o),
(269,376,qs),
(279,376,ls),
(322,376,o),
(361,342,o),
(374,294,qs),
(424,115,l),
(494,363,ls),
(498,376,o),
(511,376,qs),
(575,376,ls),
(586,376,o),
(583,364,qs),
(476,11,l),
(474,0,o),
(462,0,qs),
(387,0,ls),
(376,0,o),
(373,11,qs),
(302,252,l),
(232,11,ls),
(229,0,o),
(218,0,qs),
(141,0,ls),
(130,0,o),
(127,11,qs),
(17,364,ls),
(13,376,o),
(25,376,qs),
(40,376,ls),
(82,376,o),
(122,341,o),
(134,294,qs),
(183,116,l),
(253,363,ls)
);
}
);
userData = {
assembly = "NPUSHB[ ]	/* 29 values pushed */
27 14 2 1 0 1 76 4 3 2 0 0 42 77 2 1 1 1 40 1 78 53 51 52 51 51 5 9 27 
CALL[ ]	/* CallFunction */";
};
width = 594;
}
);
note = w;
unicode = 119;
},
{
glyphname = x;
layers = (
{
layerId = m01;
shapes = (
{
closed = 1;
nodes = (
(103,0,o),
(92,0,qs),
(18,0,ls),
(14,0,o),
(11,7,o),
(13,11,qs),
(130,197,l),
(26,364,ls),
(19,376,o),
(31,376,qs),
(66,376,ls),
(101,376,o),
(135,352,o),
(161,311,qs),
(192,263,l),
(254,363,ls),
(263,376,o),
(276,376,qs),
(344,376,ls),
(357,376,o),
(351,364,q),
(253,203,l),
(372,11,ls),
(378,0,o),
(366,0,qs),
(289,0,ls),
(275,0,o),
(269,12,q),
(189,140,l),
(111,12,ls)
);
}
);
userData = {
assembly = "NPUSHB[ ]	/* 28 values pushed */
22 14 7 3 0 1 1 76 2 1 1 1 42 77 3 1 0 0 40 0 78 53 53 52 50 4 9 26 
CALL[ ]	/* CallFunction */";
};
width = 384;
}
);
note = x;
unicode = 120;
},
{
glyphname = y;
kernLeft = y;
kernRight = y;
layers = (
{
layerId = m01;
shapes = (
{
closed = 1;
nodes = (
(10,368,o),
(14,376,o),
(17,376,qs),
(38,376,ls),
(79,376,o),
(117,343,o),
(135,295,qs),
(197,109,l),
(281,363,ls),
(286,376,o),
(297,376,qs),
(371,376,ls),
(381,376,o),
(377,364,qs),
(247,-1,ls),
(214,-97,o),
(146,-171,o),
(92,-171,qs),
(51,-171,o),
(-6,-120,o),
(-6,-82,qs),
(-6,-63,o),
(6,-63,qs),
(9,-63,o),
(15,-68,qs),
(43,-88,o),
(69,-88,qs),
(96,-88,o),
(128,-54,o),
(145,-9,q),
(11,364,ls)
);
}
);
userData = {
assembly = "NPUSHB[ ]	/* 39 values pushed */
22 1 1 3 1 76 0 1 3 0 3 1 0 128 4 1 3 3 42 77 0 0 0 2 98 0 2 2 50 2 78 37 52 35 34 34 5 9 27 
CALL[ ]	/* CallFunction */";
};
width = 388;
}
);
note = y;
unicode = 121;
},
{
glyphname = z;
kernLeft = z;
kernRight = z;
layers = (
{
layerId = m01;
shapes = (
{
closed = 1;
nodes = (
(321,86,o),
(321,74,qs),
(321,11,ls),
(321,0,o),
(311,0,qs),
(38,0,ls),
(27,0,o),
(27,11,qs),
(27,54,ls),
(27,70,o),
(40,87,qs),
(204,290,l),
(45,290,ls),
(34,290,o),
(34,301,qs),
(34,364,ls),
(34,376,o),
(45,376,qs),
(259,376,ls),
(292,376,o),
(318,347,o),
(318,311,qs),
(318,291,o),
(305,275,qs),
(149,86,l),
(311,86,ls)
);
}
);
userData = {
assembly = "NPUSHB[ ]	/* 34 values pushed */
0 1 1 0 95 0 0 0 42 77 4 1 3 3 2 95 0 2 2 40 2 78 0 0 0 25 0 24 53 35 53 5 9 25 
CALL[ ]	/* CallFunction */";
};
width = 349;
}
);
note = z;
unicode = 122;
},
{
glyphname = braceleft;
layers = (
{
layerId = m01;
shapes = (
{
closed = 1;
nodes = (
(139,-144,o),
(102,-108,o),
(102,-77,qs),
(102,179,ls),
(102,230,o),
(62,237,qs),
(48,239,o),
(48,253,qs),
(48,299,ls),
(48,313,o),
(62,314,q),
(102,321,o),
(102,374,qs),
(102,628,ls),
(102,660,o),
(139,696,o),
(172,696,qs),
(283,696,ls),
(301,696,o),
(301,678,qs),
(301,672,ls),
(301,614,o),
(239,614,qs),
(202,614,ls),
(190,614,o),
(190,601,qs),
(190,368,ls),
(190,305,o),
(156,276,q),
(190,249,o),
(190,184,qs),
(190,-49,ls),
(190,-63,o),
(202,-63,qs),
(239,-63,ls),
(301,-63,o),
(301,-120,qs),
(301,-127,ls),
(301,-144,o),
(283,-144,qs),
(172,-144,ls)
);
}
);
userData = {
assembly = "PUSHB[ ]	/* 6 values pushed */
11 1 1 2 1 76 
MPPEM[ ]	/* MeasurePixelPerEm */
PUSHB[ ]	/* 1 value pushed */
24 
LT[ ]	/* LessThan */
IF[ ]	/* If */
NPUSHB[ ]	/* 20 values pushed */
0 3 0 2 1 3 2 105 0 1 1 0 95 4 1 0 0 44 0 78 
ELSE[ ]	/* Else */
NPUSHB[ ]	/* 25 values pushed */
0 3 0 2 1 3 2 105 0 1 0 0 1 89 0 1 1 0 95 4 1 0 1 0 79 
EIF[ ]	/* EndIf */
NPUSHB[ ]	/* 15 values pushed */
1 0 24 21 18 15 7 4 0 40 1 39 5 9 22 
CALL[ ]	/* CallFunction */";
};
width = 346;
}
);
note = braceleft;
unicode = 123;
},
{
glyphname = bar;
layers = (
{
layerId = m01;
shapes = (
{
closed = 1;
nodes = (
(55,-138,qs),
(55,556,ls),
(55,566,o),
(65,566,qs),
(139,566,o),
(139,482,qs),
(139,-138,ls),
(139,-149,o),
(128,-149,qs),
(65,-149,ls),
(55,-149,o)
);
}
);
userData = {
assembly = "MPPEM[ ]	/* MeasurePixelPerEm */
PUSHB[ ]	/* 1 value pushed */
37 
LT[ ]	/* LessThan */
IF[ ]	/* If */
NPUSHB[ ]	/* 12 values pushed */
0 1 1 39 77 2 1 0 0 44 0 78 
ELSE[ ]	/* Else */
MPPEM[ ]	/* MeasurePixelPerEm */
PUSHB[ ]	/* 1 value pushed */
39 
LT[ ]	/* LessThan */
IF[ ]	/* If */
NPUSHB[ ]	/* 12 values pushed */
2 1 0 0 1 97 0 1 1 39 0 78 
ELSE[ ]	/* Else */
NPUSHB[ ]	/* 17 values pushed */
0 1 0 0 1 89 0 1 1 0 95 2 1 0 1 0 79 
EIF[ ]	/* EndIf */
EIF[ ]	/* EndIf */
NPUSHB[ ]	/* 11 values pushed */
2 0 7 5 0 10 2 10 3 9 22 
CALL[ ]	/* CallFunction */";
};
width = 194;
}
);
note = bar;
unicode = 124;
},
{
glyphname = braceright;
layers = (
{
layerId = m01;
shapes = (
{
closed = 1;
nodes = (
(45,-144,o),
(45,-127,qs),
(45,-120,ls),
(45,-63,o),
(107,-63,qs),
(143,-63,ls),
(156,-63,o),
(156,-49,qs),
(156,184,ls),
(156,249,o),
(189,276,q),
(156,305,o),
(156,368,qs),
(156,601,ls),
(156,614,o),
(143,614,qs),
(107,614,ls),
(45,614,o),
(45,672,qs),
(45,678,ls),
(45,696,o),
(63,696,qs),
(174,696,ls),
(206,696,o),
(243,660,o),
(243,628,qs),
(243,374,ls),
(243,321,o),
(283,314,q),
(298,313,o),
(298,299,qs),
(298,253,ls),
(298,239,o),
(283,237,qs),
(243,230,o),
(243,179,qs),
(243,-77,ls),
(243,-108,o),
(206,-144,o),
(174,-144,qs),
(63,-144,ls)
);
}
);
userData = {
assembly = "PUSHB[ ]	/* 6 values pushed */
29 1 4 1 1 76 
MPPEM[ ]	/* MeasurePixelPerEm */
PUSHB[ ]	/* 1 value pushed */
24 
LT[ ]	/* LessThan */
IF[ ]	/* If */
NPUSHB[ ]	/* 28 values pushed */
0 1 3 4 3 1 4 128 0 2 0 3 1 2 3 105 0 4 4 0 95 5 1 0 0 44 0 78 
ELSE[ ]	/* Else */
NPUSHB[ ]	/* 33 values pushed */
0 1 3 4 3 1 4 128 0 2 0 3 1 2 3 105 0 4 0 0 4 89 0 4 4 0 95 5 1 0 4 0 79 
EIF[ ]	/* EndIf */
NPUSHB[ ]	/* 17 values pushed */
1 0 36 33 25 22 19 16 11 10 0 40 1 39 6 9 22 
CALL[ ]	/* CallFunction */";
};
width = 346;
}
);
note = braceright;
unicode = 125;
},
{
glyphname = asciitilde;
layers = (
{
layerId = m01;
shapes = (
{
closed = 1;
nodes = (
(39,219,o),
(39,224,qs),
(39,281,ls),
(39,300,o),
(49,308,qs),
(86,339,o),
(130,339,qs),
(163,339,o),
(211,321,qs),
(269,299,o),
(294,299,qs),
(342,299,o),
(376,334,qs),
(379,337,o),
(386,335,o),
(386,331,qs),
(386,274,ls),
(386,255,o),
(376,246,qs),
(340,215,o),
(294,215,qs),
(260,215,o),
(213,233,qs),
(156,254,o),
(130,254,qs),
(82,254,o),
(49,221,q),
(46,217,o)
);
}
);
userData = {
assembly = "PUSHB[ ]	/* 2 values pushed */
6 100 
WCVTP[ ]	/* WriteCVTInPixels */
NPUSHB[ ]	/* 41 values pushed */
11 1 2 3 25 1 1 0 2 76 0 2 0 1 2 89 0 3 0 0 1 3 0 105 0 2 2 1 97 0 1 2 1 81 34 40 34 33 4 9 26 
CALL[ ]	/* CallFunction */
PUSHB[ ]	/* 2 values pushed */
6 0 
WCVTP[ ]	/* WriteCVTInPixels */";
};
width = 423;
}
);
note = asciitilde;
unicode = 126;
},
{
glyphname = exclamdown;
layers = (
{
layerId = m01;
shapes = (
{
closed = 1;
nodes = (
(30,298,o),
(30,324,qs),
(30,350,o),
(63,384,o),
(89,384,qs),
(114,384,o),
(148,350,o),
(148,324,qs),
(148,298,o),
(114,264,o),
(89,264,qs),
(63,264,o)
);
},
{
closed = 1;
nodes = (
(39,-170,qs),
(48,210,ls),
(48,221,o),
(59,221,qs),
(127,221,o),
(130,134,qs),
(138,-170,ls),
(138,-181,o),
(128,-181,qs),
(50,-181,ls),
(39,-181,o)
);
}
);
userData = {
assembly = "NPUSHB[ ]	/* 39 values pushed */
0 3 5 1 2 3 2 99 4 1 0 0 1 97 0 1 1 48 0 78 14 12 1 0 19 17 12 22 14 22 7 5 0 11 1 11 6 9 22 
CALL[ ]	/* CallFunction */";
};
width = 183;
}
);
note = exclamdown;
unicode = 161;
},
{
glyphname = cent;
layers = (
{
layerId = m01;
shapes = (
{
closed = 1;
nodes = (
(253,-67,o),
(243,-67,qs),
(208,-67,ls),
(196,-67,o),
(196,-56,qs),
(196,-9,l),
(127,-4,o),
(83,42,qs),
(32,96,o),
(32,188,qs),
(32,265,o),
(72,317,qs),
(116,375,o),
(196,383,q),
(196,438,ls),
(196,448,o),
(208,448,qs),
(243,448,ls),
(253,448,o),
(253,438,qs),
(253,383,l),
(276,381,o),
(299,372,qs),
(348,353,o),
(334,301,qs),
(329,282,ls),
(326,274,o),
(320,274,qs),
(316,274,o),
(311,276,qs),
(275,294,o),
(253,296,q),
(253,73,l),
(288,77,o),
(324,102,q),
(331,108,o),
(336,108,qs),
(346,108,o),
(346,93,qs),
(346,59,o),
(293,3,o),
(253,-5,q),
(253,-56,ls)
);
},
{
closed = 1;
nodes = (
(128,272,o),
(128,186,qs),
(128,98,o),
(196,78,q),
(196,293,l)
);
}
);
userData = {
assembly = "NPUSHB[ ]	/* 54 values pushed */
47 28 21 10 4 1 2 43 36 9 0 4 3 0 2 76 0 1 2 0 2 1 0 128 0 0 3 2 0 3 126 0 2 1 3 2 89 0 2 2 3 97 0 3 2 3 81 60 56 40 20 4 9 26 
CALL[ ]	/* CallFunction */";
};
width = 366;
}
);
note = cent;
unicode = 162;
},
{
glyphname = sterling;
layers = (
{
layerId = m01;
shapes = (
{
closed = 1;
nodes = (
(433,89,o),
(433,34,qs),
(433,14,ls),
(433,0,o),
(419,0,qs),
(52,0,ls),
(41,0,o),
(41,11,qs),
(41,78,ls),
(41,89,o),
(52,89,qs),
(135,89,l),
(159,146,o),
(159,193,qs),
(159,215,o),
(149,239,q),
(52,239,ls),
(41,239,o),
(41,250,qs),
(41,317,ls),
(41,328,o),
(52,328,qs),
(111,328,l),
(90,367,o),
(90,409,qs),
(90,480,o),
(135,521,qs),
(185,566,o),
(274,566,qs),
(334,566,o),
(385,543,qs),
(416,529,o),
(435,496,o),
(427,469,qs),
(419,448,l),
(417,439,o),
(410,439,qs),
(406,439,o),
(395,444,qs),
(328,479,o),
(275,479,qs),
(235,479,o),
(189,440,o),
(189,404,qs),
(189,375,o),
(210,328,q),
(324,328,ls),
(383,328,o),
(383,273,qs),
(383,253,ls),
(383,239,o),
(369,239,qs),
(245,239,l),
(253,215,o),
(253,193,qs),
(253,146,o),
(229,89,q),
(374,89,ls)
);
}
);
userData = {
assembly = "MPPEM[ ]	/* MeasurePixelPerEm */
PUSHB[ ]	/* 1 value pushed */
39 
LT[ ]	/* LessThan */
IF[ ]	/* If */
NPUSHB[ ]	/* 41 values pushed */
0 3 2 1 2 3 1 128 5 1 1 6 1 0 7 1 0 103 0 2 2 4 97 0 4 4 39 77 10 9 2 7 7 8 95 0 8 8 40 8 78 
ELSE[ ]	/* Else */
NPUSHB[ ]	/* 39 values pushed */
0 3 2 1 2 3 1 128 0 4 0 2 3 4 2 105 5 1 1 6 1 0 7 1 0 103 10 9 2 7 7 8 95 0 8 8 40 8 78 
EIF[ ]	/* EndIf */
NPUSHB[ ]	/* 18 values pushed */
0 0 0 57 0 56 51 36 35 37 38 34 36 35 36 11 9 31 
CALL[ ]	/* CallFunction */";
};
width = 468;
}
);
note = sterling;
unicode = 163;
},
{
glyphname = yen;
layers = (
{
layerId = m01;
shapes = (
{
closed = 1;
nodes = (
(47,124,o),
(47,135,qs),
(47,184,ls),
(47,195,o),
(58,195,qs),
(195,195,l),
(195,208,l),
(172,252,l),
(58,252,ls),
(47,252,o),
(47,263,qs),
(47,311,ls),
(47,322,o),
(58,322,qs),
(134,322,l),
(16,544,ls),
(14,549,o),
(17,556,o),
(22,556,qs),
(62,556,ls),
(93,556,o),
(132,530,o),
(148,499,qs),
(249,308,l),
(371,542,ls),
(378,556,o),
(390,556,qs),
(467,556,ls),
(480,556,o),
(474,543,qs),
(356,322,l),
(431,322,ls),
(442,322,o),
(442,311,qs),
(442,263,ls),
(442,252,o),
(431,252,qs),
(318,252,l),
(293,206,l),
(293,195,l),
(431,195,ls),
(442,195,o),
(442,184,qs),
(442,135,ls),
(442,124,o),
(431,124,qs),
(293,124,l),
(293,11,ls),
(293,0,o),
(282,0,qs),
(205,0,ls),
(195,0,o),
(195,11,qs),
(195,124,l),
(58,124,ls)
);
}
);
userData = {
assembly = "NPUSHB[ ]	/* 64 values pushed */
30 1 3 4 47 15 2 2 3 2 76 7 1 4 8 1 3 2 4 3 104 9 1 2 11 10 2 1 0 2 1 103 6 1 5 5 39 77 0 0 0 40 0 78 0 0 0 54 0 53 50 48 35 36 37 50 35 34 35 34 50 12 9 31 
CALL[ ]	/* CallFunction */";
};
width = 489;
}
);
note = yen;
unicode = 165;
},
{
glyphname = brokenbar;
layers = (
{
layerId = m01;
shapes = (
{
closed = 1;
nodes = (
(55,269,qs),
(55,556,ls),
(55,566,o),
(65,566,qs),
(139,566,o),
(139,482,qs),
(139,269,ls),
(139,258,o),
(128,258,qs),
(65,258,ls),
(55,258,o)
);
},
{
closed = 1;
nodes = (
(55,-138,qs),
(55,149,ls),
(55,160,o),
(65,160,qs),
(128,160,ls),
(139,160,o),
(139,149,qs),
(139,-138,ls),
(139,-149,o),
(128,-149,qs),
(65,-149,ls),
(55,-149,o)
);
}
);
userData = {
assembly = "MPPEM[ ]	/* MeasurePixelPerEm */
PUSHB[ ]	/* 1 value pushed */
37 
LT[ ]	/* LessThan */
IF[ ]	/* If */
NPUSHB[ ]	/* 23 values pushed */
4 1 0 0 1 97 0 1 1 39 77 0 3 3 2 95 5 1 2 2 44 2 78 
ELSE[ ]	/* Else */
MPPEM[ ]	/* MeasurePixelPerEm */
PUSHB[ ]	/* 1 value pushed */
39 
LT[ ]	/* LessThan */
IF[ ]	/* If */
NPUSHB[ ]	/* 20 values pushed */
0 3 5 1 2 3 2 99 4 1 0 0 1 97 0 1 1 39 0 78 
ELSE[ ]	/* Else */
NPUSHB[ ]	/* 26 values pushed */
0 1 4 1 0 3 1 0 103 0 3 2 2 3 87 0 3 3 2 95 5 1 2 3 2 79 
EIF[ ]	/* EndIf */
EIF[ ]	/* EndIf */
NPUSHB[ ]	/* 19 values pushed */
13 11 2 0 19 16 11 22 13 22 7 5 0 10 2 10 6 9 22 
CALL[ ]	/* CallFunction */";
};
width = 194;
}
);
note = brokenbar;
unicode = 166;
},
{
glyphname = section;
layers = (
{
layerId = m01;
shapes = (
{
closed = 1;
nodes = (
(300,234,qs),
(300,253,o),
(266,284,o),
(219,305,qs),
(195,317,o),
(187,321,q),
(146,291,o),
(146,259,qs),
(146,231,o),
(177,207,qs),
(194,195,o),
(261,162,q),
(300,195,o)
);
},
{
closed = 1;
nodes = (
(374,35,qs),
(374,-19,o),
(338,-54,qs),
(294,-98,o),
(214,-98,qs),
(135,-98,o),
(92,-63,qs),
(48,-30,o),
(65,15,qs),
(70,28,ls),
(74,40,o),
(83,31,qs),
(138,-26,o),
(204,-26,qs),
(236,-26,o),
(275,1,o),
(275,24,qs),
(275,43,o),
(241,76,o),
(197,99,qs),
(133,133,o),
(112,149,qs),
(55,191,o),
(55,247,qs),
(55,311,o),
(127,359,q),
(85,399,o),
(85,449,qs),
(85,499,o),
(122,531,qs),
(163,566,o),
(232,566,qs),
(288,566,o),
(324,548,qs),
(346,537,o),
(358,506,o),
(351,477,q),
(350,467,l),
(348,461,o),
(341,461,qs),
(339,461,o),
(334,463,q),
(332,465,o),
(331,466,qs),
(288,494,o),
(242,494,qs),
(215,494,o),
(182,472,o),
(182,452,qs),
(182,434,o),
(215,404,o),
(257,383,qs),
(319,353,o),
(340,338,qs),
(395,299,o),
(395,246,qs),
(395,173,o),
(324,123,q),
(374,83,o)
);
}
);
userData = {
assembly = "PUSHB[ ]	/* 7 values pushed */
45 6 2 3 1 1 76 
MPPEM[ ]	/* MeasurePixelPerEm */
PUSHB[ ]	/* 1 value pushed */
39 
LT[ ]	/* LessThan */
IF[ ]	/* If */
NPUSHB[ ]	/* 26 values pushed */
0 1 0 3 0 1 3 128 0 3 0 4 3 4 101 0 0 0 2 97 0 2 2 39 0 78 
ELSE[ ]	/* Else */
NPUSHB[ ]	/* 32 values pushed */
0 1 0 3 0 1 3 128 0 2 0 0 1 2 0 105 0 3 4 4 3 89 0 3 3 4 97 0 4 3 4 81 
EIF[ ]	/* EndIf */
NPUSHB[ ]	/* 13 values pushed */
67 65 58 56 40 38 32 30 26 24 5 9 22 
CALL[ ]	/* CallFunction */";
};
width = 434;
}
);
note = section;
unicode = 167;
},
{
glyphname = dieresis;
layers = (
{
layerId = m01;
shapes = (
{
closed = 1;
nodes = (
(31,529,o),
(54,529,qs),
(77,529,o),
(108,497,o),
(108,474,qs),
(108,451,o),
(77,419,o),
(54,419,qs),
(31,419,o),
(0,451,o),
(0,474,qs),
(0,498,o)
);
},
{
closed = 1;
nodes = (
(188,529,o),
(212,529,qs),
(234,529,o),
(265,498,o),
(265,474,qs),
(265,451,o),
(234,419,o),
(212,419,qs),
(189,419,o),
(157,451,o),
(157,474,qs),
(157,498,o)
);
}
);
userData = {
assembly = "PUSHB[ ]	/* 2 values pushed */
6 100 
WCVTP[ ]	/* WriteCVTInPixels */
NPUSHB[ ]	/* 26 values pushed */
3 1 1 0 0 1 89 3 1 1 1 0 97 2 1 0 1 0 81 36 36 36 34 4 9 26 
CALL[ ]	/* CallFunction */
PUSHB[ ]	/* 2 values pushed */
6 0 
WCVTP[ ]	/* WriteCVTInPixels */";
};
width = 266;
}
);
note = dieresis;
unicode = 168;
},
{
glyphname = copyright;
layers = (
{
layerId = m01;
shapes = (
{
closed = 1;
nodes = (
(80,494,qs),
(142,563,o),
(250,563,qs),
(343,563,o),
(403,509,qs),
(472,447,o),
(472,339,qs),
(472,246,o),
(418,186,qs),
(357,116,o),
(250,116,qs),
(156,116,o),
(96,170,qs),
(27,232,o),
(27,339,qs),
(27,433,o)
);
},
{
closed = 1;
nodes = (
(369,207,qs),
(423,255,o),
(423,339,qs),
(423,413,o),
(381,460,qs),
(334,514,o),
(250,514,qs),
(177,514,o),
(130,472,qs),
(76,424,o),
(76,339,qs),
(76,266,o),
(118,219,qs),
(166,165,o),
(250,165,qs),
(323,165,o)
);
},
{
closed = 1;
nodes = (
(177,250,qs),
(143,283,o),
(143,339,qs),
(143,391,o),
(173,425,qs),
(207,462,o),
(260,462,qs),
(289,462,o),
(314,452,qs),
(336,441,o),
(329,414,qs),
(326,403,ls),
(325,396,o),
(315,401,qs),
(289,417,o),
(261,417,qs),
(231,417,o),
(195,375,o),
(195,339,qs),
(195,305,o),
(231,267,o),
(263,267,qs),
(300,267,o),
(324,294,qs),
(329,299,o),
(331,299,qs),
(338,299,o),
(338,288,qs),
(338,260,o),
(288,221,o),
(253,221,qs),
(207,221,o)
);
}
);
userData = {
assembly = "PUSHB[ ]	/* 2 values pushed */
6 100 
WCVTP[ ]	/* WriteCVTInPixels */
NPUSHB[ ]	/* 78 values pushed */
0 5 7 6 7 5 6 128 0 1 0 3 8 1 3 105 0 8 0 7 5 8 7 105 0 6 10 1 4 2 6 4 105 9 1 2 0 0 2 89 9 1 2 2 0 98 0 0 2 0 82 33 32 17 16 57 55 48 46 42 40 37 36 32 63 33 63 25 23 16 31 17 31 38 35 11 9 24 
CALL[ ]	/* CallFunction */
PUSHB[ ]	/* 2 values pushed */
6 0 
WCVTP[ ]	/* WriteCVTInPixels */";
};
width = 499;
}
);
note = copyright;
unicode = 169;
},
{
glyphname = ordfeminine;
layers = (
{
layerId = m01;
shapes = (
{
closed = 1;
nodes = (
(159,251,qs),
(96,251,o),
(58,291,qs),
(16,334,o),
(16,407,qs),
(16,469,o),
(51,511,qs),
(92,561,o),
(160,561,qs),
(226,561,o),
(263,519,q),
(275,553,o),
(322,553,qs),
(327,553,ls),
(335,553,o),
(335,544,qs),
(335,266,ls),
(335,258,o),
(328,258,qs),
(263,258,ls),
(255,258,o),
(255,266,qs),
(255,294,l),
(222,251,o)
);
},
{
closed = 1;
nodes = (
(254,366,o),
(254,406,qs),
(254,487,o),
(178,487,qs),
(141,487,o),
(99,443,o),
(99,406,qs),
(99,368,o),
(141,321,o),
(175,321,qs),
(212,321,o)
);
}
);
userData = {
assembly = "NPUSHB[ ]	/* 10 values pushed */
12 1 5 1 0 1 0 4 2 76 
MPPEM[ ]	/* MeasurePixelPerEm */
PUSHB[ ]	/* 1 value pushed */
31 
LT[ ]	/* LessThan */
IF[ ]	/* If */
NPUSHB[ ]	/* 32 values pushed */
0 0 4 3 4 0 3 128 6 1 4 0 3 4 3 101 0 1 1 55 77 0 5 5 2 97 0 2 2 55 5 78 
ELSE[ ]	/* Else */
NPUSHB[ ]	/* 35 values pushed */
0 1 2 5 2 1 5 128 0 0 4 3 4 0 3 128 6 1 4 0 3 4 3 101 0 5 5 2 97 0 2 2 55 5 78 
EIF[ ]	/* EndIf */
NPUSHB[ ]	/* 15 values pushed */
25 24 31 29 24 34 25 34 38 34 51 50 7 10 26 
CALL[ ]	/* CallFunction */";
};
width = 358;
}
);
note = ordfeminine;
unicode = 170;
},
{
glyphname = guillemotleft;
layers = (
{
layerId = m01;
shapes = (
{
closed = 1;
nodes = (
(394,45,o),
(390,38,o),
(385,38,qs),
(321,38,ls),
(306,38,o),
(297,49,qs),
(197,178,ls),
(190,186,o),
(190,192,qs),
(190,197,o),
(197,206,qs),
(297,336,ls),
(306,347,o),
(321,347,qs),
(385,347,ls),
(390,347,o),
(394,340,o),
(391,336,qs),
(281,192,l),
(391,49,ls)
);
},
{
closed = 1;
nodes = (
(227,45,o),
(224,38,o),
(219,38,qs),
(154,38,ls),
(139,38,o),
(130,49,qs),
(30,178,ls),
(23,187,o),
(23,192,qs),
(23,196,o),
(30,206,qs),
(130,336,ls),
(139,347,o),
(154,347,qs),
(219,347,ls),
(224,347,o),
(227,339,o),
(224,336,q),
(114,192,l),
(224,49,ls)
);
}
);
userData = {
assembly = "NPUSHB[ ]	/* 32 values pushed */
21 1 1 0 1 76 2 1 0 1 1 0 87 2 1 0 0 1 95 3 1 1 0 1 79 40 55 40 51 4 9 26 
CALL[ ]	/* CallFunction */";
};
width = 414;
}
);
note = guillemotleft;
unicode = 171;
},
{
glyphname = uni00AD;
layers = (
{
layerId = m01;
shapes = (
{
closed = 1;
nodes = (
(33,169,qs),
(33,238,ls),
(33,249,o),
(44,249,qs),
(254,249,ls),
(265,249,o),
(265,238,qs),
(265,169,ls),
(265,158,o),
(254,158,qs),
(44,158,ls),
(33,158,o)
);
}
);
userData = {
assembly = "NPUSHB[ ]	/* 28 values pushed */
0 1 0 0 1 87 0 1 1 0 95 2 1 0 1 0 79 2 0 8 5 0 11 2 11 3 9 22 
CALL[ ]	/* CallFunction */";
};
width = 297;
}
);
note = uni00AD;
unicode = 173;
},
{
glyphname = registered;
layers = (
{
layerId = m01;
shapes = (
{
closed = 1;
nodes = (
(80,494,qs),
(142,563,o),
(250,563,qs),
(343,563,o),
(403,509,qs),
(472,447,o),
(472,339,qs),
(472,246,o),
(418,186,qs),
(357,116,o),
(250,116,qs),
(156,116,o),
(96,170,qs),
(27,232,o),
(27,339,qs),
(27,433,o)
);
},
{
closed = 1;
nodes = (
(369,207,qs),
(423,255,o),
(423,339,qs),
(423,413,o),
(381,460,qs),
(334,514,o),
(250,514,qs),
(177,514,o),
(130,472,qs),
(76,424,o),
(76,339,qs),
(76,266,o),
(118,219,qs),
(166,165,o),
(250,165,qs),
(323,165,o)
);
},
{
closed = 1;
nodes = (
(301,346,o),
(301,383,qs),
(301,417,o),
(259,417,qs),
(213,417,l),
(213,346,l),
(256,346,ls)
);
},
{
closed = 1;
nodes = (
(213,226,o),
(206,226,qs),
(170,226,ls),
(165,226,o),
(165,233,qs),
(165,451,ls),
(165,457,o),
(170,457,qs),
(256,457,ls),
(349,457,o),
(349,382,qs),
(349,327,o),
(299,309,q),
(350,233,ls),
(354,226,o),
(349,226,qs),
(309,226,ls),
(300,226,o),
(295,233,q),
(254,304,l),
(213,304,l),
(213,233,ls)
);
}
);
userData = {
assembly = "PUSHB[ ]	/* 2 values pushed */
6 100 
WCVTP[ ]	/* WriteCVTInPixels */
NPUSHB[ ]	/* 91 values pushed */
54 1 4 8 47 1 6 5 2 76 9 1 7 6 2 6 7 2 128 0 1 0 3 8 1 3 105 0 8 0 4 5 8 4 105 11 1 5 0 6 7 5 6 103 10 1 2 0 0 2 89 10 1 2 2 0 97 0 0 2 0 81 32 32 17 16 59 56 52 50 44 42 40 39 32 38 32 37 35 33 25 23 16 31 17 31 38 35 12 9 24 
CALL[ ]	/* CallFunction */
PUSHB[ ]	/* 2 values pushed */
6 0 
WCVTP[ ]	/* WriteCVTInPixels */";
};
width = 499;
}
);
note = registered;
unicode = 174;
},
{
glyphname = macron;
layers = (
{
layerId = m01;
shapes = (
{
closed = 1;
nodes = (
(0,442,qs),
(0,488,ls),
(0,499,o),
(11,499,qs),
(244,499,ls),
(254,499,o),
(254,488,qs),
(254,442,ls),
(254,431,o),
(244,431,qs),
(11,431,ls),
(0,431,o)
);
}
);
userData = {
assembly = "PUSHB[ ]	/* 2 values pushed */
6 100 
WCVTP[ ]	/* WriteCVTInPixels */
NPUSHB[ ]	/* 28 values pushed */
0 1 0 0 1 87 0 1 1 0 95 2 1 0 1 0 79 2 0 8 5 0 11 2 11 3 9 22 
CALL[ ]	/* CallFunction */
PUSHB[ ]	/* 2 values pushed */
6 0 
WCVTP[ ]	/* WriteCVTInPixels */";
};
width = 254;
}
);
note = macron;
unicode = 175;
},
{
glyphname = degree;
layers = (
{
layerId = m01;
shapes = (
{
closed = 1;
nodes = (
(54,396,qs),
(21,426,o),
(21,474,qs),
(21,517,o),
(47,547,qs),
(77,581,o),
(127,581,qs),
(170,581,o),
(200,554,qs),
(233,524,o),
(233,474,qs),
(233,433,o),
(207,403,qs),
(177,368,o),
(127,368,qs),
(83,368,o)
);
},
{
closed = 1;
nodes = (
(175,452,o),
(175,474,qs),
(175,497,o),
(147,527,o),
(127,527,qs),
(106,527,o),
(79,497,o),
(79,474,qs),
(79,452,o),
(106,423,o),
(127,423,qs),
(147,423,o)
);
}
);
userData = {
assembly = "PUSHB[ ]	/* 2 values pushed */
6 100 
WCVTP[ ]	/* WriteCVTInPixels */
NPUSHB[ ]	/* 46 values pushed */
0 1 0 3 2 1 3 105 5 1 2 0 0 2 89 5 1 2 2 0 97 4 1 0 2 0 81 17 16 1 0 23 21 16 27 17 27 9 7 0 15 1 15 6 9 22 
CALL[ ]	/* CallFunction */
PUSHB[ ]	/* 2 values pushed */
6 0 
WCVTP[ ]	/* WriteCVTInPixels */";
};
width = 254;
}
);
note = degree;
unicode = 176;
},
{
glyphname = plusminus;
layers = (
{
layerId = m01;
shapes = (
{
closed = 1;
nodes = (
(33,284,o),
(33,294,qs),
(33,354,ls),
(33,366,o),
(44,366,qs),
(166,366,l),
(166,499,ls),
(166,509,o),
(177,509,qs),
(217,509,o),
(252,477,o),
(252,438,qs),
(252,366,l),
(374,366,ls),
(385,366,o),
(385,354,qs),
(385,294,ls),
(385,284,o),
(374,284,qs),
(252,284,l),
(252,150,ls),
(252,139,o),
(241,139,qs),
(177,139,ls),
(166,139,o),
(166,150,qs),
(166,284,l),
(44,284,ls)
);
},
{
closed = 1;
nodes = (
(33,11,qs),
(33,71,ls),
(33,82,o),
(44,82,qs),
(324,82,ls),
(385,82,o),
(385,24,qs),
(385,11,ls),
(385,0,o),
(374,0,qs),
(44,0,ls),
(33,0,o)
);
}
);
userData = {
assembly = "MPPEM[ ]	/* MeasurePixelPerEm */
PUSHB[ ]	/* 1 value pushed */
39 
LT[ ]	/* LessThan */
IF[ ]	/* If */
NPUSHB[ ]	/* 33 values pushed */
0 3 0 0 7 3 0 103 8 5 2 1 1 2 95 4 1 2 2 42 77 0 7 7 6 95 9 1 6 6 40 6 78 
ELSE[ ]	/* Else */
NPUSHB[ ]	/* 31 values pushed */
4 1 2 8 5 2 1 0 2 1 103 0 3 0 0 7 3 0 103 0 7 7 6 95 9 1 6 6 40 6 78 
EIF[ ]	/* EndIf */
NPUSHB[ ]	/* 22 values pushed */
30 28 0 0 36 33 28 39 30 39 0 27 0 26 34 35 35 34 50 10 9 27 
CALL[ ]	/* CallFunction */";
};
width = 418;
}
);
note = plusminus;
unicode = 177;
},
{
glyphname = twosuperior;
layers = (
{
layerId = m01;
shapes = (
{
closed = 1;
nodes = (
(281,292,o),
(281,253,qs),
(281,238,ls),
(281,228,o),
(272,228,qs),
(37,228,ls),
(30,228,o),
(30,236,qs),
(30,292,o),
(59,330,qs),
(79,356,o),
(122,383,qs),
(162,407,o),
(168,412,qs),
(197,434,o),
(197,461,qs),
(197,501,o),
(143,501,qs),
(111,501,o),
(62,474,qs),
(52,469,o),
(48,478,qs),
(40,497,ls),
(28,527,o),
(56,543,qs),
(95,566,o),
(151,566,qs),
(209,566,o),
(277,514,o),
(277,471,qs),
(277,432,o),
(253,401,qs),
(234,376,o),
(186,346,qs),
(131,311,o),
(125,292,q),
(240,292,ls)
);
}
);
userData = {
assembly = "NPUSHB[ ]	/* 34 values pushed */
0 1 1 0 97 0 0 0 55 77 4 1 3 3 2 95 0 2 2 56 2 78 0 0 0 36 0 35 58 39 40 5 10 25 
CALL[ ]	/* CallFunction */";
};
width = 307;
}
);
note = twosuperior;
unicode = 178;
},
{
glyphname = threesuperior;
layers = (
{
layerId = m01;
shapes = (
{
closed = 1;
nodes = (
(281,321,qs),
(281,278,o),
(253,252,qs),
(219,221,o),
(155,221,qs),
(104,221,o),
(31,275,o),
(31,313,qs),
(31,327,o),
(41,327,qs),
(46,327,o),
(51,322,qs),
(87,284,o),
(144,284,qs),
(210,284,o),
(210,326,qs),
(210,347,o),
(179,363,o),
(138,363,qs),
(125,363,ls),
(84,363,o),
(84,403,qs),
(84,418,ls),
(84,428,o),
(94,428,qs),
(143,428,ls),
(198,428,o),
(198,466,qs),
(198,502,o),
(144,502,qs),
(106,502,o),
(66,478,qs),
(53,470,o),
(49,482,qs),
(41,502,ls),
(29,531,o),
(59,546,qs),
(99,566,o),
(148,566,qs),
(207,566,o),
(271,519,o),
(271,477,qs),
(271,428,o),
(220,401,q),
(281,382,o)
);
}
);
userData = {
assembly = "NPUSHB[ ]	/* 47 values pushed */
0 5 3 4 3 5 4 128 0 2 0 3 5 2 3 105 0 1 1 0 97 0 0 0 55 77 0 4 4 6 97 0 6 6 58 6 78 35 34 35 51 50 39 36 7 10 29 
CALL[ ]	/* CallFunction */";
};
width = 308;
}
);
note = threesuperior;
unicode = 179;
},
{
glyphname = acute;
layers = (
{
layerId = m01;
shapes = (
{
closed = 1;
nodes = (
(1,439,o),
(4,442,qs),
(88,518,ls),
(100,528,o),
(114,528,qs),
(194,528,ls),
(199,528,o),
(202,519,o),
(198,516,qs),
(108,441,ls),
(94,430,o),
(76,430,qs),
(9,430,ls),
(4,430,o)
);
}
);
userData = {
assembly = "PUSHB[ ]	/* 2 values pushed */
6 100 
WCVTP[ ]	/* WriteCVTInPixels */
NPUSHB[ ]	/* 27 values pushed */
11 1 0 1 1 76 0 1 0 1 133 2 1 0 0 118 2 0 9 6 0 13 2 13 3 9 22 
CALL[ ]	/* CallFunction */
PUSHB[ ]	/* 2 values pushed */
6 0 
WCVTP[ ]	/* WriteCVTInPixels */";
};
width = 201;
}
);
note = acute;
unicode = 180;
},
{
glyphname = paragraph;
layers = (
{
layerId = m01;
shapes = (
{
closed = 1;
nodes = (
(132,221,o),
(85,262,qs),
(32,309,o),
(32,391,qs),
(32,462,o),
(71,503,qs),
(119,556,o),
(223,556,qs),
(294,556,ls),
(338,556,o),
(379,513,o),
(379,467,qs),
(379,10,ls),
(379,0,o),
(369,0,qs),
(331,0,ls),
(321,0,o),
(321,10,qs),
(321,493,l),
(268,493,l),
(268,10,ls),
(268,0,o),
(258,0,qs),
(220,0,ls),
(210,0,o),
(210,10,qs),
(210,221,l),
(205,221,ls)
);
}
);
userData = {
assembly = "NPUSHB[ ]	/* 33 values pushed */
0 4 1 0 1 4 0 128 0 1 1 3 95 0 3 3 39 77 2 1 0 0 40 0 78 22 52 50 18 50 5 9 27 
CALL[ ]	/* CallFunction */";
};
width = 437;
}
);
note = paragraph;
unicode = 182;
},
{
glyphname = periodcentered;
layers = (
{
layerId = m01;
shapes = (
{
closed = 1;
nodes = (
(22,253,o),
(22,279,qs),
(22,305,o),
(56,339,o),
(81,339,qs),
(107,339,o),
(140,305,o),
(140,279,qs),
(140,253,o),
(106,219,o),
(81,219,qs),
(56,219,o)
);
}
);
userData = {
assembly = "NPUSHB[ ]	/* 28 values pushed */
0 1 0 0 1 89 0 1 1 0 97 2 1 0 1 0 81 1 0 7 5 0 11 1 11 3 9 22 
CALL[ ]	/* CallFunction */";
};
width = 162;
}
);
note = periodcentered;
unicode = 183;
},
{
glyphname = cedilla;
layers = (
{
layerId = m01;
shapes = (
{
closed = 1;
nodes = (
(8,-97,qs),
(66,-6,ls),
(74,5,o),
(93,5,qs),
(140,5,ls),
(151,5,o),
(146,-5,qs),
(102,-94,ls),
(95,-109,o),
(75,-109,qs),
(13,-109,ls),
(0,-109,o)
);
}
);
userData = {
assembly = "PUSHB[ ]	/* 2 values pushed */
6 100 
WCVTP[ ]	/* WriteCVTInPixels */
NPUSHB[ ]	/* 28 values pushed */
0 1 0 0 1 89 0 1 1 0 95 2 1 0 1 0 79 2 0 8 5 0 11 2 11 3 9 22 
CALL[ ]	/* CallFunction */
PUSHB[ ]	/* 2 values pushed */
6 0 
WCVTP[ ]	/* WriteCVTInPixels */";
};
width = 142;
}
);
note = cedilla;
unicode = 184;
},
{
glyphname = onesuperior;
layers = (
{
layerId = m01;
shapes = (
{
closed = 1;
nodes = (
(33,458,o),
(33,467,qs),
(33,523,ls),
(33,535,o),
(45,538,qs),
(77,549,ls),
(98,556,o),
(108,556,qs),
(139,556,ls),
(176,556,o),
(176,519,qs),
(176,237,ls),
(176,228,o),
(167,228,qs),
(106,228,ls),
(97,228,o),
(97,237,qs),
(97,481,l),
(43,462,ls)
);
}
);
userData = {
assembly = "PUSHB[ ]	/* 6 values pushed */
0 1 0 1 1 76 
MPPEM[ ]	/* MeasurePixelPerEm */
PUSHB[ ]	/* 1 value pushed */
40 
LT[ ]	/* LessThan */
IF[ ]	/* If */
NPUSHB[ ]	/* 11 values pushed */
0 1 1 55 77 0 0 0 56 0 78 
ELSE[ ]	/* Else */
NPUSHB[ ]	/* 11 values pushed */
0 1 0 1 133 0 0 0 56 0 78 
EIF[ ]	/* EndIf */
PUSHB[ ]	/* 5 values pushed */
51 50 2 10 24 
CALL[ ]	/* CallFunction */";
};
width = 224;
}
);
note = onesuperior;
unicode = 185;
},
{
glyphname = ordmasculine;
layers = (
{
layerId = m01;
shapes = (
{
closed = 1;
nodes = (
(54,513,qs),
(97,561,o),
(175,561,qs),
(243,561,o),
(286,524,qs),
(334,481,o),
(334,406,qs),
(334,340,o),
(297,298,qs),
(254,251,o),
(175,251,qs),
(109,251,o),
(66,288,qs),
(16,330,o),
(16,406,qs),
(16,471,o)
);
},
{
closed = 1;
nodes = (
(252,365,o),
(252,404,qs),
(252,444,o),
(210,489,o),
(175,489,qs),
(140,489,o),
(99,444,o),
(99,406,qs),
(99,366,o),
(139,322,o),
(175,322,qs),
(211,322,o)
);
}
);
userData = {
assembly = "NPUSHB[ ]	/* 32 values pushed */
4 1 2 0 0 2 0 101 0 3 3 1 97 0 1 1 55 3 78 17 16 23 21 16 27 17 27 38 35 5 10 24 
CALL[ ]	/* CallFunction */";
};
width = 351;
}
);
note = ordmasculine;
unicode = 186;
},
{
glyphname = guillemotright;
layers = (
{
layerId = m01;
shapes = (
{
closed = 1;
nodes = (
(22,340,o),
(26,347,o),
(31,347,qs),
(94,347,ls),
(109,347,o),
(118,336,qs),
(219,206,ls),
(226,196,o),
(226,192,qs),
(226,187,o),
(219,178,qs),
(118,49,ls),
(109,38,o),
(94,38,qs),
(31,38,ls),
(26,38,o),
(22,45,o),
(25,49,qs),
(134,192,l),
(25,336,ls)
);
},
{
closed = 1;
nodes = (
(189,339,o),
(192,347,o),
(197,347,qs),
(262,347,ls),
(276,347,o),
(285,336,qs),
(385,206,ls),
(393,196,o),
(393,192,qs),
(393,187,o),
(385,178,qs),
(285,49,ls),
(276,38,o),
(262,38,qs),
(197,38,ls),
(192,38,o),
(189,45,o),
(192,49,qs),
(300,192,l),
(192,336,l)
);
}
);
userData = {
assembly = "NPUSHB[ ]	/* 26 values pushed */
3 1 1 0 0 1 87 3 1 1 1 0 95 2 1 0 1 0 79 40 55 40 51 4 9 26 
CALL[ ]	/* CallFunction */";
};
width = 414;
}
);
note = guillemotright;
unicode = 187;
},
{
glyphname = onequarter;
layers = (
{
layerId = m01;
shapes = (
{
closed = 1;
nodes = (
(374,70,o),
(374,78,qs),
(374,112,ls),
(374,121,o),
(380,131,qs),
(507,314,ls),
(517,328,o),
(532,328,qs),
(579,328,ls),
(616,328,o),
(616,294,qs),
(616,130,l),
(635,130,ls),
(670,130,o),
(670,97,qs),
(670,78,ls),
(670,70,o),
(661,70,qs),
(616,70,l),
(616,9,ls),
(616,0,o),
(606,0,qs),
(549,0,ls),
(540,0,o),
(540,9,qs),
(540,70,l),
(383,70,ls)
);
},
{
closed = 1;
nodes = (
(133,11,qs),
(427,544,l),
(432,556,o),
(443,556,qs),
(456,556,ls),
(484,556,o),
(501,517,o),
(485,488,qs),
(224,11,l),
(219,0,o),
(208,0,qs),
(139,0,ls),
(127,0,o)
);
},
{
closed = 1;
nodes = (
(540,262,l),
(450,130,l),
(540,130,l)
);
},
{
closed = 1;
nodes = (
(33,458,o),
(33,467,qs),
(33,523,ls),
(33,534,o),
(45,538,qs),
(77,549,ls),
(98,556,o),
(108,556,qs),
(139,556,ls),
(176,556,o),
(176,519,qs),
(176,237,ls),
(176,228,o),
(167,228,qs),
(106,228,ls),
(97,228,o),
(97,237,qs),
(97,481,l),
(43,462,ls)
);
}
);
userData = {
assembly = "PUSHB[ ]	/* 2 values pushed */
6 100 
WCVTP[ ]	/* WriteCVTInPixels */
NPUSHB[ ]	/* 10 values pushed */
43 1 3 6 41 1 8 3 2 76 
MPPEM[ ]	/* MeasurePixelPerEm */
PUSHB[ ]	/* 1 value pushed */
13 
LT[ ]	/* LessThan */
IF[ ]	/* If */
NPUSHB[ ]	/* 47 values pushed */
0 3 6 8 6 3 8 128 11 5 2 0 1 1 0 113 9 1 6 0 8 2 6 8 103 12 7 2 2 1 1 2 89 12 7 2 2 2 1 98 10 4 2 1 2 1 82 
ELSE[ ]	/* Else */
NPUSHB[ ]	/* 46 values pushed */
0 3 6 8 6 3 8 128 11 5 2 0 1 0 134 9 1 6 0 8 2 6 8 103 12 7 2 2 1 1 2 89 12 7 2 2 2 1 98 10 4 2 1 2 1 82 
EIF[ ]	/* EndIf */
NPUSHB[ ]	/* 31 values pushed */
40 40 29 27 0 0 54 51 48 45 40 42 40 42 36 33 27 39 29 39 0 26 0 25 50 35 34 50 13 9 26 
CALL[ ]	/* CallFunction */
PUSHB[ ]	/* 2 values pushed */
6 0 
WCVTP[ ]	/* WriteCVTInPixels */";
};
width = 703;
}
);
note = onequarter;
unicode = 188;
},
{
glyphname = onehalf;
layers = (
{
layerId = m01;
shapes = (
{
closed = 1;
nodes = (
(498,511,o),
(485,488,qs),
(224,11,l),
(219,0,o),
(208,0,qs),
(189,0,l),
(139,0,ls),
(127,0,o),
(133,11,qs),
(427,544,l),
(432,556,o),
(443,556,qs),
(456,556,ls),
(467,556,o),
(474,551,q),
(492,545,o)
);
},
{
closed = 1;
nodes = (
(33,458,o),
(33,467,qs),
(33,521,ls),
(33,527,o),
(34,528,q),
(36,536,o),
(45,538,qs),
(75,548,l),
(80,551,o),
(92,553,qs),
(95,554,o),
(103,554,q),
(110,556,o),
(125,556,qs),
(136,556,ls),
(144,556,o),
(148,554,q),
(172,551,o),
(175,527,qs),
(176,523,o),
(176,516,qs),
(176,237,ls),
(176,228,o),
(167,228,qs),
(106,228,ls),
(97,228,o),
(97,237,qs),
(97,481,l),
(43,462,ls)
);
},
{
closed = 1;
nodes = (
(692,65,o),
(692,25,qs),
(692,10,ls),
(692,0,o),
(682,0,qs),
(449,0,ls),
(442,0,o),
(442,8,qs),
(442,64,o),
(471,103,qs),
(491,129,o),
(534,155,qs),
(585,187,o),
(609,212,o),
(609,234,qs),
(609,274,o),
(555,274,qs),
(521,274,o),
(472,248,qs),
(462,242,o),
(460,252,q),
(452,271,ls),
(439,298,o),
(467,316,qs),
(507,339,o),
(562,339,qs),
(620,339,o),
(687,287,o),
(687,244,qs),
(687,205,o),
(664,173,qs),
(645,149,o),
(597,118,qs),
(543,84,o),
(537,65,q),
(650,65,ls)
);
}
);
userData = {
assembly = "PUSHB[ ]	/* 2 values pushed */
6 100 
WCVTP[ ]	/* WriteCVTInPixels */
NPUSHB[ ]	/* 64 values pushed */
41 16 2 5 0 1 76 0 5 0 6 2 5 6 105 4 3 2 0 0 2 8 0 2 103 9 1 8 1 1 8 87 9 1 8 8 1 96 7 1 1 8 1 80 45 45 45 80 45 79 76 73 64 62 55 53 17 40 55 67 49 10 9 27 
CALL[ ]	/* CallFunction */
PUSHB[ ]	/* 2 values pushed */
6 0 
WCVTP[ ]	/* WriteCVTInPixels */";
};
width = 747;
}
);
note = onehalf;
unicode = 189;
},
{
glyphname = threequarters;
layers = (
{
layerId = m01;
shapes = (
{
closed = 1;
nodes = (
(440,70,o),
(440,78,qs),
(440,112,ls),
(440,121,o),
(447,131,qs),
(574,314,ls),
(584,328,o),
(599,328,qs),
(645,328,ls),
(682,328,o),
(682,294,qs),
(682,130,l),
(700,130,ls),
(737,130,o),
(737,97,qs),
(737,78,ls),
(737,70,o),
(728,70,qs),
(682,70,l),
(682,9,ls),
(682,0,o),
(672,0,qs),
(615,0,ls),
(607,0,o),
(607,9,qs),
(607,70,l),
(450,70,ls)
);
},
{
closed = 1;
nodes = (
(200,11,qs),
(493,544,l),
(498,556,o),
(509,556,qs),
(522,556,ls),
(550,556,o),
(567,517,o),
(552,488,qs),
(290,11,l),
(285,0,o),
(275,0,qs),
(206,0,ls),
(194,0,o)
);
},
{
closed = 1;
nodes = (
(607,262,l),
(515,130,l),
(607,130,l)
);
},
{
closed = 1;
nodes = (
(281,321,qs),
(281,278,o),
(253,252,qs),
(219,221,o),
(155,221,qs),
(104,221,o),
(31,275,o),
(31,313,qs),
(31,327,o),
(41,327,qs),
(46,327,o),
(51,322,qs),
(87,284,o),
(144,284,qs),
(210,284,o),
(210,326,qs),
(210,347,o),
(179,363,o),
(138,363,qs),
(125,363,ls),
(84,363,o),
(84,403,qs),
(84,418,ls),
(84,428,o),
(94,428,qs),
(143,428,ls),
(198,428,o),
(198,466,qs),
(198,502,o),
(144,502,qs),
(106,502,o),
(66,478,qs),
(53,470,o),
(49,482,qs),
(41,502,ls),
(29,531,o),
(59,546,qs),
(99,566,o),
(148,566,qs),
(207,566,o),
(271,519,o),
(271,477,qs),
(271,428,o),
(220,401,q),
(281,382,o)
);
}
);
userData = {
assembly = "PUSHB[ ]	/* 2 values pushed */
6 100 
WCVTP[ ]	/* WriteCVTInPixels */
PUSHB[ ]	/* 6 values pushed */
41 1 14 12 1 76 
MPPEM[ ]	/* MeasurePixelPerEm */
PUSHB[ ]	/* 1 value pushed */
13 
LT[ ]	/* LessThan */
IF[ ]	/* If */
NPUSHB[ ]	/* 64 values pushed */
13 1 3 11 12 11 3 12 128 16 5 2 0 1 1 0 113 8 1 6 0 9 10 6 9 105 0 10 0 11 3 10 11 105 0 12 0 14 2 12 14 105 17 7 2 2 1 1 2 89 17 7 2 2 2 1 98 15 4 2 1 2 1 82 
ELSE[ ]	/* Else */
MPPEM[ ]	/* MeasurePixelPerEm */
PUSHB[ ]	/* 1 value pushed */
20 
LT[ ]	/* LessThan */
IF[ ]	/* If */
NPUSHB[ ]	/* 63 values pushed */
13 1 3 11 12 11 3 12 128 16 5 2 0 1 0 134 8 1 6 0 9 10 6 9 105 0 10 0 11 3 10 11 105 0 12 0 14 2 12 14 105 17 7 2 2 1 1 2 89 17 7 2 2 2 1 98 15 4 2 1 2 1 82 
ELSE[ ]	/* Else */
NPUSHB[ ]	/* 70 values pushed */
0 6 8 9 8 6 9 128 13 1 3 11 12 11 3 12 128 16 5 2 0 1 0 134 0 8 0 9 10 8 9 105 0 10 0 11 3 10 11 105 0 12 0 14 2 12 14 105 17 7 2 2 1 1 2 89 17 7 2 2 2 1 98 15 4 2 1 2 1 82 
EIF[ ]	/* EndIf */
EIF[ ]	/* EndIf */
NPUSHB[ ]	/* 41 values pushed */
40 40 29 27 0 0 83 81 78 76 74 72 69 66 63 60 58 56 49 47 40 42 40 42 36 33 27 39 29 39 0 26 0 25 50 35 34 50 18 9 26 
CALL[ ]	/* CallFunction */
PUSHB[ ]	/* 2 values pushed */
6 0 
WCVTP[ ]	/* WriteCVTInPixels */";
};
width = 768;
}
);
note = threequarters;
unicode = 190;
},
{
glyphname = questiondown;
layers = (
{
layerId = m01;
shapes = (
{
closed = 1;
nodes = (
(146,298,o),
(146,324,qs),
(146,350,o),
(180,384,o),
(206,384,qs),
(231,384,o),
(266,350,o),
(266,324,qs),
(266,298,o),
(231,264,o),
(206,264,qs),
(180,264,o)
);
},
{
closed = 1;
nodes = (
(44,58,qs),
(71,94,o),
(147,152,qs),
(166,166,o),
(166,189,qs),
(166,210,ls),
(166,221,o),
(177,221,qs),
(195,221,ls),
(217,221,o),
(247,192,o),
(247,170,qs),
(247,146,o),
(232,124,qs),
(220,105,o),
(185,77,qs),
(139,39,o),
(110,-1,o),
(110,-29,qs),
(110,-64,o),
(156,-103,o),
(197,-103,qs),
(258,-103,o),
(328,-66,q),
(335,-61,o),
(341,-61,qs),
(347,-61,o),
(349,-69,qs),
(368,-126,l),
(371,-139,o),
(359,-145,qs),
(279,-192,o),
(196,-192,qs),
(118,-192,o),
(69,-159,qs),
(10,-119,o),
(10,-44,qs),
(10,11,o)
);
}
);
userData = {
assembly = "NPUSHB[ ]	/* 53 values pushed */
0 5 0 3 0 5 3 128 0 3 4 0 3 4 126 0 4 0 2 4 2 102 6 1 0 0 1 97 0 1 1 48 0 78 1 0 42 39 28 26 24 22 17 15 7 5 0 11 1 11 7 9 22 
CALL[ ]	/* CallFunction */";
};
width = 343;
}
);
note = questiondown;
unicode = 191;
},
{
glyphname = Agrave;
kernLeft = A;
kernRight = A;
layers = (
{
layerId = m01;
shapes = (
{
closed = 1;
nodes = (
(260,438,l),
(186,223,l),
(335,223,l)
);
},
{
closed = 1;
nodes = (
(107,0,o),
(96,0,qs),
(19,0,ls),
(7,0,o),
(11,11,qs),
(205,546,ls),
(208,556,o),
(217,556,qs),
(250,556,ls),
(287,556,o),
(326,525,o),
(342,482,qs),
(513,11,l),
(518,0,o),
(506,0,qs),
(427,0,ls),
(412,0,o),
(408,13,qs),
(363,140,l),
(156,140,l),
(111,13,ls)
);
},
{
closed = 1;
nodes = (
(152,696,o),
(157,696,qs),
(237,696,ls),
(251,696,o),
(263,686,qs),
(347,610,l),
(350,606,o),
(346,598,o),
(341,598,qs),
(275,598,ls),
(257,598,o),
(242,609,qs),
(153,683,ls),
(149,687,o)
);
}
);
userData = {
assembly = "NPUSHB[ ]	/* 58 values pushed */
1 1 0 3 1 76 0 6 5 6 133 0 5 3 5 133 7 1 0 0 1 2 0 1 104 0 3 3 39 77 4 1 2 2 40 2 78 0 0 35 33 28 26 22 19 16 13 9 6 4 3 0 2 0 2 8 9 22 
CALL[ ]	/* CallFunction */";
};
width = 521;
}
);
note = Agrave;
unicode = 192;
},
{
glyphname = Aacute;
kernLeft = A;
kernRight = A;
layers = (
{
layerId = m01;
shapes = (
{
closed = 1;
nodes = (
(260,438,l),
(186,223,l),
(335,223,l)
);
},
{
closed = 1;
nodes = (
(107,0,o),
(96,0,qs),
(19,0,ls),
(7,0,o),
(11,11,qs),
(205,546,ls),
(208,556,o),
(217,556,qs),
(250,556,ls),
(287,556,o),
(326,525,o),
(342,482,qs),
(513,11,l),
(518,0,o),
(506,0,qs),
(427,0,ls),
(412,0,o),
(408,13,qs),
(363,140,l),
(156,140,l),
(111,13,ls)
);
},
{
closed = 1;
nodes = (
(164,607,o),
(167,610,qs),
(251,686,ls),
(263,696,o),
(278,696,qs),
(357,696,ls),
(363,696,o),
(366,687,o),
(361,683,qs),
(272,609,ls),
(257,598,o),
(239,598,qs),
(172,598,ls),
(168,598,o)
);
}
);
userData = {
assembly = "NPUSHB[ ]	/* 63 values pushed */
1 1 0 3 1 76 0 6 5 6 133 8 1 5 3 5 133 7 1 0 0 1 2 0 1 104 0 3 3 39 77 4 1 2 2 40 2 78 26 24 0 0 33 30 24 37 26 37 22 19 16 13 9 6 4 3 0 2 0 2 9 9 22 
CALL[ ]	/* CallFunction */";
};
width = 521;
}
);
note = Aacute;
unicode = 193;
},
{
glyphname = Acircumflex;
kernLeft = A;
kernRight = A;
layers = (
{
layerId = m01;
shapes = (
{
closed = 1;
nodes = (
(260,438,l),
(186,223,l),
(335,223,l)
);
},
{
closed = 1;
nodes = (
(107,0,o),
(96,0,qs),
(19,0,ls),
(7,0,o),
(11,11,qs),
(205,546,ls),
(208,556,o),
(217,556,qs),
(250,556,ls),
(287,556,o),
(326,525,o),
(342,482,qs),
(513,11,l),
(518,0,o),
(506,0,qs),
(427,0,ls),
(412,0,o),
(408,13,qs),
(363,140,l),
(156,140,l),
(111,13,ls)
);
},
{
closed = 1;
nodes = (
(206,598,o),
(186,598,qs),
(127,598,ls),
(123,598,o),
(119,607,o),
(122,610,qs),
(197,686,ls),
(208,696,o),
(225,696,qs),
(300,696,ls),
(318,696,o),
(327,686,qs),
(402,610,l),
(405,606,o),
(401,598,o),
(396,598,qs),
(337,598,ls),
(317,598,o),
(306,611,qs),
(263,661,l),
(218,611,ls)
);
}
);
userData = {
assembly = "NPUSHB[ ]	/* 61 values pushed */
1 1 0 3 1 76 0 6 5 6 133 7 1 5 3 5 133 8 1 0 0 1 2 0 1 104 0 3 3 39 77 4 1 2 2 40 2 78 0 0 43 40 36 33 28 26 22 19 16 13 9 6 4 3 0 2 0 2 9 9 22 
CALL[ ]	/* CallFunction */";
};
width = 521;
}
);
note = Acircumflex;
unicode = 194;
},
{
glyphname = Atilde;
kernLeft = A;
kernRight = A;
layers = (
{
layerId = m01;
shapes = (
{
closed = 1;
nodes = (
(260,438,l),
(186,223,l),
(335,223,l)
);
},
{
closed = 1;
nodes = (
(107,0,o),
(96,0,qs),
(19,0,ls),
(7,0,o),
(11,11,qs),
(205,546,ls),
(208,556,o),
(217,556,qs),
(250,556,ls),
(287,556,o),
(326,525,o),
(342,482,qs),
(513,11,l),
(518,0,o),
(506,0,qs),
(427,0,ls),
(412,0,o),
(408,13,qs),
(363,140,l),
(156,140,l),
(111,13,ls)
);
},
{
closed = 1;
nodes = (
(118,608,qs),
(124,696,o),
(188,696,qs),
(213,696,o),
(255,678,qs),
(289,664,o),
(303,664,qs),
(320,664,o),
(325,686,q),
(326,696,o),
(336,696,qs),
(377,696,ls),
(388,696,o),
(387,686,qs),
(382,640,o),
(346,600,o),
(310,600,qs),
(288,600,o),
(247,616,qs),
(214,629,o),
(202,629,qs),
(184,629,o),
(181,607,qs),
(179,597,o),
(168,597,qs),
(128,597,ls),
(118,597,o)
);
}
);
userData = {
assembly = "PUSHB[ ]	/* 6 values pushed */
1 1 0 3 1 76 
MPPEM[ ]	/* MeasurePixelPerEm */
PUSHB[ ]	/* 1 value pushed */
30 
LT[ ]	/* LessThan */
IF[ ]	/* If */
NPUSHB[ ]	/* 45 values pushed */
0 6 9 5 5 6 114 10 1 8 9 5 8 90 0 9 7 12 2 5 3 9 5 106 11 1 0 0 1 2 0 1 104 0 3 3 39 77 4 1 2 2 40 2 78 
ELSE[ ]	/* Else */
NPUSHB[ ]	/* 46 values pushed */
0 6 9 5 9 6 5 128 10 1 8 9 5 8 90 0 9 7 12 2 5 3 9 5 106 11 1 0 0 1 2 0 1 104 0 3 3 39 77 4 1 2 2 40 2 78 
EIF[ ]	/* EndIf */
NPUSHB[ ]	/* 33 values pushed */
26 24 0 0 48 46 44 42 40 37 34 32 30 28 24 50 26 50 22 19 16 13 9 6 4 3 0 2 0 2 13 9 22 
CALL[ ]	/* CallFunction */";
};
width = 521;
}
);
note = Atilde;
unicode = 195;
},
{
glyphname = Adieresis;
kernLeft = A;
kernRight = A;
layers = (
{
layerId = m01;
shapes = (
{
closed = 1;
nodes = (
(260,438,l),
(186,223,l),
(335,223,l)
);
},
{
closed = 1;
nodes = (
(107,0,o),
(96,0,qs),
(19,0,ls),
(7,0,o),
(11,11,qs),
(205,546,ls),
(208,556,o),
(217,556,qs),
(250,556,ls),
(287,556,o),
(326,525,o),
(342,482,qs),
(513,11,l),
(518,0,o),
(506,0,qs),
(427,0,ls),
(412,0,o),
(408,13,qs),
(363,140,l),
(156,140,l),
(111,13,ls)
);
},
{
closed = 1;
nodes = (
(155,697,o),
(178,697,qs),
(201,697,o),
(232,665,o),
(232,642,qs),
(232,619,o),
(201,587,o),
(178,587,qs),
(156,587,o),
(124,619,o),
(124,642,qs),
(124,665,o)
);
},
{
closed = 1;
nodes = (
(312,697,o),
(336,697,qs),
(358,697,o),
(389,665,o),
(389,642,qs),
(389,619,o),
(358,587,o),
(336,587,qs),
(313,587,o),
(281,619,o),
(281,642,qs),
(281,665,o)
);
}
);
userData = {
assembly = "NPUSHB[ ]	/* 62 values pushed */
1 1 0 3 1 76 8 1 6 7 1 5 3 6 5 105 9 1 0 0 1 2 0 1 104 0 3 3 39 77 4 1 2 2 40 2 78 0 0 46 44 40 38 34 32 28 26 22 19 16 13 9 6 4 3 0 2 0 2 10 9 22 
CALL[ ]	/* CallFunction */";
};
width = 521;
}
);
note = Adieresis;
unicode = 196;
},
{
glyphname = Aring;
kernLeft = A;
kernRight = A;
layers = (
{
layerId = m01;
shapes = (
{
closed = 1;
nodes = (
(260,438,l),
(186,223,l),
(335,223,l)
);
},
{
closed = 1;
nodes = (
(107,0,o),
(96,0,qs),
(19,0,ls),
(7,0,o),
(11,11,qs),
(205,546,ls),
(208,556,o),
(217,556,qs),
(250,556,ls),
(287,556,o),
(326,525,o),
(342,482,qs),
(513,11,l),
(518,0,o),
(506,0,qs),
(427,0,ls),
(412,0,o),
(408,13,qs),
(363,140,l),
(156,140,l),
(111,13,ls)
);
},
{
closed = 1;
nodes = (
(225,737,o),
(256,737,qs),
(288,737,o),
(333,693,o),
(333,662,qs),
(333,630,o),
(288,586,o),
(256,586,qs),
(225,586,o),
(180,631,o),
(180,662,qs),
(180,693,o)
);
},
{
closed = 1;
nodes = (
(289,647,o),
(289,662,qs),
(289,676,o),
(271,696,o),
(256,696,qs),
(242,696,o),
(223,676,o),
(223,662,qs),
(223,647,o),
(242,628,o),
(256,628,qs),
(271,628,o)
);
}
);
userData = {
assembly = "NPUSHB[ ]	/* 73 values pushed */
1 1 0 3 1 76 0 6 0 8 7 6 8 105 10 1 7 0 5 3 7 5 105 9 1 0 0 1 2 0 1 104 0 3 3 39 77 4 1 2 2 40 2 78 37 36 0 0 43 41 36 47 37 47 34 32 28 26 22 19 16 13 9 6 4 3 0 2 0 2 11 9 22 
CALL[ ]	/* CallFunction */";
};
width = 521;
}
);
note = Aring;
unicode = 197;
},
{
glyphname = AE;
kernRight = E;
layers = (
{
layerId = m01;
shapes = (
{
closed = 1;
nodes = (
(109,0,o),
(95,0,qs),
(15,0,ls),
(3,0,o),
(8,11,qs),
(296,544,l),
(301,556,o),
(316,556,qs),
(620,556,ls),
(677,556,o),
(677,499,qs),
(677,478,ls),
(677,464,o),
(664,464,qs),
(451,464,l),
(451,323,l),
(601,323,ls),
(658,323,o),
(658,269,qs),
(658,247,ls),
(658,233,o),
(645,233,qs),
(451,233,l),
(451,91,l),
(629,91,ls),
(686,91,o),
(686,35,qs),
(686,14,ls),
(686,0,o),
(672,0,qs),
(362,0,ls),
(352,0,o),
(352,11,qs),
(352,140,l),
(181,140,l),
(115,13,ls)
);
},
{
closed = 1;
nodes = (
(352,466,l),
(224,224,l),
(352,224,l)
);
}
);
userData = {
assembly = "NPUSHB[ ]	/* 62 values pushed */
37 1 5 6 1 76 0 4 0 3 8 4 3 103 9 1 8 0 0 2 8 0 103 0 5 5 6 95 0 6 6 39 77 0 2 2 1 95 7 1 1 1 40 1 78 36 36 36 38 36 38 51 51 33 35 33 35 50 16 10 9 30 
CALL[ ]	/* CallFunction */";
};
width = 708;
}
);
note = AE;
unicode = 198;
},
{
glyphname = Ccedilla;
kernLeft = C;
kernRight = C;
layers = (
{
layerId = m01;
shapes = (
{
closed = 1;
nodes = (
(294,-112,o),
(275,-112,qs),
(213,-112,ls),
(200,-112,o),
(208,-100,qs),
(266,-9,l),
(171,2,o),
(112,68,qs),
(44,146,o),
(44,276,qs),
(44,400,o),
(109,478,qs),
(182,566,o),
(308,566,qs),
(379,566,o),
(437,541,q),
(464,527,o),
(482,494,o),
(476,467,qs),
(470,442,ls),
(467,431,o),
(460,431,qs),
(456,431,o),
(445,436,qs),
(378,472,o),
(310,472,qs),
(238,472,o),
(196,430,qs),
(144,378,o),
(144,276,qs),
(144,188,o),
(185,138,qs),
(230,83,o),
(313,83,qs),
(403,83,o),
(461,147,q),
(467,156,o),
(477,156,qs),
(492,156,o),
(492,132,qs),
(492,96,o),
(464,60,qs),
(423,6,o),
(346,-8,q),
(302,-97,ls)
);
}
);
userData = {
assembly = "PUSHB[ ]	/* 6 values pushed */
38 1 5 1 1 76 
MPPEM[ ]	/* MeasurePixelPerEm */
PUSHB[ ]	/* 1 value pushed */
39 
LT[ ]	/* LessThan */
IF[ ]	/* If */
NPUSHB[ ]	/* 33 values pushed */
0 3 2 0 2 3 0 128 0 0 1 2 0 1 126 0 1 0 5 1 5 99 0 2 2 4 97 0 4 4 39 2 78 
ELSE[ ]	/* Else */
NPUSHB[ ]	/* 39 values pushed */
0 3 2 0 2 3 0 128 0 0 1 2 0 1 126 0 4 0 2 3 4 2 105 0 1 5 5 1 89 0 1 1 5 95 0 5 1 5 79 
EIF[ ]	/* EndIf */
NPUSHB[ ]	/* 9 values pushed */
57 38 34 38 34 37 6 9 28 
CALL[ ]	/* CallFunction */";
};
width = 511;
}
);
note = Ccedilla;
unicode = 199;
},
{
glyphname = Egrave;
kernRight = E;
layers = (
{
layerId = m01;
shapes = (
{
closed = 1;
nodes = (
(391,91,o),
(391,35,qs),
(391,14,ls),
(391,0,o),
(378,0,qs),
(67,0,ls),
(56,0,o),
(56,11,qs),
(56,544,ls),
(56,556,o),
(67,556,qs),
(325,556,ls),
(383,556,o),
(383,500,qs),
(383,479,ls),
(383,465,o),
(369,465,qs),
(154,465,l),
(154,323,l),
(305,323,ls),
(363,323,o),
(363,268,qs),
(363,246,ls),
(363,232,o),
(350,232,qs),
(154,232,l),
(154,91,l),
(333,91,ls)
);
},
{
closed = 1;
nodes = (
(96,696,o),
(101,696,qs),
(181,696,ls),
(196,696,o),
(208,686,qs),
(291,610,ls),
(295,606,o),
(290,598,o),
(285,598,qs),
(219,598,ls),
(201,598,o),
(187,609,qs),
(97,683,ls),
(93,687,o)
);
}
);
userData = {
assembly = "NPUSHB[ ]	/* 58 values pushed */
0 7 6 7 133 0 6 3 6 133 0 1 0 0 5 1 0 103 0 2 2 3 95 0 3 3 39 77 8 1 5 5 4 95 0 4 4 40 4 78 0 0 39 37 32 30 0 27 0 26 51 51 33 35 33 9 9 27 
CALL[ ]	/* CallFunction */";
};
width = 418;
}
);
note = Egrave;
unicode = 200;
},
{
glyphname = Eacute;
kernRight = E;
layers = (
{
layerId = m01;
shapes = (
{
closed = 1;
nodes = (
(391,91,o),
(391,35,qs),
(391,14,ls),
(391,0,o),
(378,0,qs),
(67,0,ls),
(56,0,o),
(56,11,qs),
(56,544,ls),
(56,556,o),
(67,556,qs),
(325,556,ls),
(383,556,o),
(383,500,qs),
(383,479,ls),
(383,465,o),
(369,465,qs),
(154,465,l),
(154,323,l),
(305,323,ls),
(363,323,o),
(363,268,qs),
(363,246,ls),
(363,232,o),
(350,232,qs),
(154,232,l),
(154,91,l),
(333,91,ls)
);
},
{
closed = 1;
nodes = (
(129,607,o),
(132,610,qs),
(216,686,ls),
(228,696,o),
(243,696,qs),
(322,696,ls),
(328,696,o),
(330,687,o),
(326,683,qs),
(237,609,ls),
(222,598,o),
(204,598,qs),
(137,598,ls),
(133,598,o)
);
}
);
userData = {
assembly = "NPUSHB[ ]	/* 63 values pushed */
0 7 6 7 133 9 1 6 3 6 133 0 1 0 0 5 1 0 103 0 2 2 3 95 0 3 3 39 77 8 1 5 5 4 95 0 4 4 40 4 78 30 28 0 0 37 34 28 41 30 41 0 27 0 26 51 51 33 35 33 10 9 27 
CALL[ ]	/* CallFunction */";
};
width = 418;
}
);
note = Eacute;
unicode = 201;
},
{
glyphname = Ecircumflex;
kernRight = E;
layers = (
{
layerId = m01;
shapes = (
{
closed = 1;
nodes = (
(391,91,o),
(391,35,qs),
(391,14,ls),
(391,0,o),
(378,0,qs),
(67,0,ls),
(56,0,o),
(56,11,qs),
(56,544,ls),
(56,556,o),
(67,556,qs),
(325,556,ls),
(383,556,o),
(383,500,qs),
(383,479,ls),
(383,465,o),
(369,465,qs),
(154,465,l),
(154,323,l),
(305,323,ls),
(363,323,o),
(363,268,qs),
(363,246,ls),
(363,232,o),
(350,232,qs),
(154,232,l),
(154,91,l),
(333,91,ls)
);
},
{
closed = 1;
nodes = (
(157,598,o),
(137,598,qs),
(78,598,ls),
(74,598,o),
(70,607,o),
(73,610,qs),
(148,686,ls),
(159,696,o),
(176,696,qs),
(250,696,ls),
(269,696,o),
(278,686,qs),
(353,610,l),
(356,606,o),
(352,598,o),
(347,598,qs),
(288,598,ls),
(268,598,o),
(257,611,qs),
(214,661,l),
(169,611,ls)
);
}
);
userData = {
assembly = "NPUSHB[ ]	/* 61 values pushed */
0 7 6 7 133 8 1 6 3 6 133 0 1 0 0 5 1 0 103 0 2 2 3 95 0 3 3 39 77 9 1 5 5 4 95 0 4 4 40 4 78 0 0 47 44 40 37 32 30 0 27 0 26 51 51 33 35 33 10 9 27 
CALL[ ]	/* CallFunction */";
};
width = 418;
}
);
note = Ecircumflex;
unicode = 202;
},
{
glyphname = Edieresis;
kernRight = E;
layers = (
{
layerId = m01;
shapes = (
{
closed = 1;
nodes = (
(391,91,o),
(391,35,qs),
(391,14,ls),
(391,0,o),
(378,0,qs),
(67,0,ls),
(56,0,o),
(56,11,qs),
(56,544,ls),
(56,556,o),
(67,556,qs),
(325,556,ls),
(383,556,o),
(383,500,qs),
(383,479,ls),
(383,465,o),
(369,465,qs),
(154,465,l),
(154,323,l),
(305,323,ls),
(363,323,o),
(363,268,qs),
(363,246,ls),
(363,232,o),
(350,232,qs),
(154,232,l),
(154,91,l),
(333,91,ls)
);
},
{
closed = 1;
nodes = (
(117,697,o),
(140,697,qs),
(163,697,o),
(194,665,o),
(194,642,qs),
(194,619,o),
(162,587,o),
(140,587,qs),
(117,587,o),
(85,619,o),
(85,642,qs),
(85,665,o)
);
},
{
closed = 1;
nodes = (
(274,697,o),
(297,697,qs),
(320,697,o),
(350,665,o),
(350,642,qs),
(350,619,o),
(320,587,o),
(297,587,qs),
(274,587,o),
(243,619,o),
(243,642,qs),
(243,665,o)
);
}
);
userData = {
assembly = "NPUSHB[ ]	/* 62 values pushed */
9 1 7 8 1 6 3 7 6 105 0 1 0 0 5 1 0 103 0 2 2 3 95 0 3 3 39 77 10 1 5 5 4 95 0 4 4 40 4 78 0 0 50 48 44 42 38 36 32 30 0 27 0 26 51 51 33 35 33 11 9 27 
CALL[ ]	/* CallFunction */";
};
width = 418;
}
);
note = Edieresis;
unicode = 203;
},
{
glyphname = Igrave;
kernRight = I;
layers = (
{
layerId = m01;
shapes = (
{
closed = 1;
nodes = (
(59,11,qs),
(59,544,ls),
(59,556,o),
(70,556,qs),
(79,556,ls),
(157,556,o),
(157,469,qs),
(157,11,ls),
(157,0,o),
(146,0,qs),
(70,0,ls),
(59,0,o)
);
},
{
closed = 1;
nodes = (
(7,696,o),
(12,696,qs),
(92,696,ls),
(107,696,o),
(119,686,qs),
(202,610,ls),
(206,606,o),
(202,598,o),
(196,598,qs),
(131,598,ls),
(112,598,o),
(98,609,qs),
(9,683,ls),
(4,687,o)
);
}
);
userData = {
assembly = "NPUSHB[ ]	/* 37 values pushed */
0 3 2 3 133 0 2 1 2 133 0 1 1 39 77 4 1 0 0 40 0 78 2 0 23 21 16 14 8 5 0 11 2 11 5 9 22 
CALL[ ]	/* CallFunction */";
};
width = 212;
}
);
note = Igrave;
unicode = 204;
},
{
glyphname = Iacute;
kernRight = I;
layers = (
{
layerId = m01;
shapes = (
{
closed = 1;
nodes = (
(60,11,qs),
(60,544,ls),
(60,556,o),
(71,556,qs),
(80,556,ls),
(158,556,o),
(158,469,qs),
(158,11,ls),
(158,0,o),
(147,0,qs),
(71,0,ls),
(60,0,o)
);
},
{
closed = 1;
nodes = (
(4,607,o),
(7,610,qs),
(91,686,ls),
(103,696,o),
(117,696,qs),
(197,696,ls),
(202,696,o),
(205,687,o),
(201,683,qs),
(111,609,ls),
(97,598,o),
(79,598,qs),
(12,598,ls),
(7,598,o)
);
}
);
userData = {
assembly = "NPUSHB[ ]	/* 48 values pushed */
23 1 2 3 1 76 0 3 2 3 133 5 1 2 1 2 133 0 1 1 39 77 4 1 0 0 40 0 78 14 12 2 0 21 18 12 25 14 25 8 5 0 11 2 11 6 9 22 
CALL[ ]	/* CallFunction */";
};
width = 212;
}
);
note = Iacute;
unicode = 205;
},
{
glyphname = Icircumflex;
kernRight = I;
layers = (
{
layerId = m01;
shapes = (
{
closed = 1;
nodes = (
(56,11,qs),
(56,544,ls),
(56,556,o),
(67,556,qs),
(76,556,ls),
(154,556,o),
(154,469,qs),
(154,11,ls),
(154,0,o),
(143,0,qs),
(67,0,ls),
(56,0,o)
);
},
{
closed = 1;
nodes = (
(49,598,o),
(29,598,qs),
(-30,598,ls),
(-35,598,o),
(-38,607,o),
(-35,610,qs),
(40,686,ls),
(50,696,o),
(68,696,qs),
(142,696,ls),
(160,696,o),
(170,686,qs),
(244,610,ls),
(248,606,o),
(244,598,o),
(238,598,qs),
(180,598,ls),
(160,598,o),
(149,611,qs),
(105,661,l),
(60,611,ls)
);
}
);
userData = {
assembly = "NPUSHB[ ]	/* 46 values pushed */
26 1 2 3 1 76 0 3 2 3 133 4 1 2 1 2 133 0 1 1 39 77 5 1 0 0 40 0 78 2 0 31 28 24 21 16 14 8 5 0 11 2 11 6 9 22 
CALL[ ]	/* CallFunction */";
};
width = 212;
}
);
note = Icircumflex;
unicode = 206;
},
{
glyphname = Idieresis;
kernRight = I;
layers = (
{
layerId = m01;
shapes = (
{
closed = 1;
nodes = (
(57,11,qs),
(57,544,ls),
(57,556,o),
(68,556,qs),
(77,556,ls),
(155,556,o),
(155,469,qs),
(155,11,ls),
(155,0,o),
(144,0,qs),
(68,0,ls),
(57,0,o)
);
},
{
closed = 1;
nodes = (
(4,697,o),
(27,697,qs),
(50,697,o),
(81,665,o),
(81,642,qs),
(81,619,o),
(50,587,o),
(27,587,qs),
(5,587,o),
(-27,619,o),
(-27,642,qs),
(-27,665,o)
);
},
{
closed = 1;
nodes = (
(161,697,o),
(185,697,qs),
(207,697,o),
(238,665,o),
(238,642,qs),
(238,619,o),
(207,587,o),
(185,587,qs),
(162,587,o),
(130,619,o),
(130,642,qs),
(130,665,o)
);
}
);
userData = {
assembly = "NPUSHB[ ]	/* 41 values pushed */
5 1 3 4 1 2 1 3 2 105 0 1 1 39 77 6 1 0 0 40 0 78 2 0 34 32 28 26 22 20 16 14 8 5 0 11 2 11 7 9 22 
CALL[ ]	/* CallFunction */";
};
width = 212;
}
);
note = Idieresis;
unicode = 207;
},
{
glyphname = Eth;
layers = (
{
layerId = m01;
shapes = (
{
closed = 1;
nodes = (
(10,235,o),
(10,246,qs),
(10,314,ls),
(10,324,o),
(21,324,qs),
(70,324,l),
(70,544,ls),
(70,556,o),
(80,556,qs),
(243,556,ls),
(359,556,o),
(431,504,qs),
(527,436,o),
(527,286,qs),
(527,150,o),
(458,78,qs),
(383,0,o),
(235,0,qs),
(80,0,ls),
(70,0,o),
(70,11,qs),
(70,235,l),
(21,235,ls)
);
},
{
closed = 1;
nodes = (
(326,91,o),
(372,132,qs),
(426,181,o),
(426,283,qs),
(426,374,o),
(384,418,qs),
(339,464,o),
(241,464,qs),
(168,464,l),
(168,324,l),
(263,324,ls),
(319,324,o),
(319,269,qs),
(319,249,ls),
(319,235,o),
(307,235,qs),
(168,235,l),
(168,91,l),
(246,91,ls)
);
}
);
userData = {
assembly = "NPUSHB[ ]	/* 57 values pushed */
5 1 2 4 8 2 3 7 2 3 105 0 6 6 1 95 0 1 1 39 77 9 1 7 7 0 95 0 0 0 40 0 78 23 23 0 0 23 41 23 40 34 32 31 29 26 24 0 22 0 21 34 54 50 10 9 25 
CALL[ ]	/* CallFunction */";
};
width = 571;
}
);
note = Eth;
unicode = 208;
},
{
glyphname = Ntilde;
kernRight = N;
layers = (
{
layerId = m01;
shapes = (
{
closed = 1;
nodes = (
(378,556,o),
(389,556,qs),
(397,556,ls),
(476,556,o),
(476,469,qs),
(476,11,ls),
(476,0,o),
(465,0,qs),
(394,0,ls),
(379,0,o),
(372,13,qs),
(154,368,l),
(154,11,ls),
(154,0,o),
(143,0,qs),
(67,0,ls),
(56,0,o),
(56,11,qs),
(56,544,ls),
(56,556,o),
(67,556,qs),
(97,556,ls),
(126,556,o),
(161,535,o),
(178,507,qs),
(378,180,l),
(378,544,ls)
);
},
{
closed = 1;
nodes = (
(130,608,qs),
(137,696,o),
(201,696,qs),
(225,696,o),
(267,678,qs),
(302,664,o),
(315,664,qs),
(333,664,o),
(337,686,qs),
(339,696,o),
(349,696,qs),
(390,696,ls),
(401,696,o),
(400,686,qs),
(395,640,o),
(359,600,o),
(322,600,qs),
(301,600,o),
(260,616,qs),
(227,629,o),
(215,629,qs),
(196,629,o),
(193,607,qs),
(192,597,o),
(181,597,qs),
(140,597,ls),
(130,597,o)
);
}
);
userData = {
assembly = "NPUSHB[ ]	/* 11 values pushed */
52 1 4 5 14 0 2 1 0 2 76 
MPPEM[ ]	/* MeasurePixelPerEm */
PUSHB[ ]	/* 1 value pushed */
30 
LT[ ]	/* LessThan */
IF[ ]	/* If */
NPUSHB[ ]	/* 37 values pushed */
0 5 8 4 4 5 114 9 1 7 8 4 7 90 0 8 6 10 2 4 0 8 4 106 3 1 0 0 39 77 2 1 1 1 40 1 78 
ELSE[ ]	/* Else */
NPUSHB[ ]	/* 38 values pushed */
0 5 8 4 8 5 4 128 9 1 7 8 4 7 90 0 8 6 10 2 4 0 8 4 106 3 1 0 0 39 77 2 1 1 1 40 1 78 
EIF[ ]	/* EndIf */
NPUSHB[ ]	/* 23 values pushed */
29 27 51 49 47 45 43 40 37 35 33 31 27 53 29 53 51 52 51 51 11 9 26 
CALL[ ]	/* CallFunction */";
};
width = 533;
}
);
note = Ntilde;
unicode = 209;
},
{
glyphname = Ograve;
kernLeft = O;
kernRight = O;
layers = (
{
layerId = m01;
shapes = (
{
closed = 1;
nodes = (
(462,277,qs),
(462,374,o),
(420,424,qs),
(379,473,o),
(303,473,qs),
(237,473,o),
(197,436,qs),
(143,387,o),
(143,277,qs),
(143,83,o),
(303,83,qs),
(462,83,o)
);
},
{
closed = 1;
nodes = (
(120,58,qs),
(43,134,o),
(43,277,qs),
(43,401,o),
(103,477,qs),
(173,566,o),
(303,566,qs),
(416,566,o),
(485,497,qs),
(562,419,o),
(562,277,qs),
(562,153,o),
(503,78,qs),
(434,-10,o),
(303,-10,qs),
(189,-10,o)
);
},
{
closed = 1;
nodes = (
(197,696,o),
(202,696,qs),
(282,696,ls),
(297,696,o),
(309,686,qs),
(392,610,ls),
(396,606,o),
(392,598,o),
(386,598,qs),
(321,598,ls),
(302,598,o),
(288,609,qs),
(199,683,ls),
(194,687,o)
);
}
);
userData = {
assembly = "MPPEM[ ]	/* MeasurePixelPerEm */
PUSHB[ ]	/* 1 value pushed */
39 
LT[ ]	/* LessThan */
IF[ ]	/* If */
NPUSHB[ ]	/* 33 values pushed */
0 5 4 5 133 0 4 3 4 133 0 1 1 3 97 0 3 3 39 77 6 1 0 0 2 97 7 1 2 2 46 2 78 
ELSE[ ]	/* Else */
NPUSHB[ ]	/* 31 values pushed */
0 5 4 5 133 0 4 3 4 133 0 3 0 1 0 3 1 106 6 1 0 0 2 97 7 1 2 2 46 2 78 
EIF[ ]	/* EndIf */
NPUSHB[ ]	/* 23 values pushed */
13 12 1 0 39 37 32 30 21 19 12 27 13 27 7 5 0 11 1 11 8 9 22 
CALL[ ]	/* CallFunction */";
};
width = 607;
}
);
note = Ograve;
unicode = 210;
},
{
glyphname = Oacute;
kernLeft = O;
kernRight = O;
layers = (
{
layerId = m01;
shapes = (
{
closed = 1;
nodes = (
(462,277,qs),
(462,374,o),
(420,424,qs),
(379,473,o),
(303,473,qs),
(237,473,o),
(197,436,qs),
(143,387,o),
(143,277,qs),
(143,83,o),
(303,83,qs),
(462,83,o)
);
},
{
closed = 1;
nodes = (
(120,58,qs),
(43,134,o),
(43,277,qs),
(43,401,o),
(103,477,qs),
(173,566,o),
(303,566,qs),
(416,566,o),
(485,497,qs),
(562,419,o),
(562,277,qs),
(562,153,o),
(503,78,qs),
(434,-10,o),
(303,-10,qs),
(189,-10,o)
);
},
{
closed = 1;
nodes = (
(209,607,o),
(212,610,qs),
(296,686,ls),
(308,696,o),
(322,696,qs),
(402,696,ls),
(407,696,o),
(410,687,o),
(406,683,qs),
(316,609,ls),
(302,598,o),
(284,598,qs),
(217,598,ls),
(212,598,o)
);
}
);
userData = {
assembly = "PUSHB[ ]	/* 6 values pushed */
39 1 4 5 1 76 
MPPEM[ ]	/* MeasurePixelPerEm */
PUSHB[ ]	/* 1 value pushed */
39 
LT[ ]	/* LessThan */
IF[ ]	/* If */
NPUSHB[ ]	/* 34 values pushed */
0 5 4 5 133 8 1 4 3 4 133 0 1 1 3 97 0 3 3 39 77 6 1 0 0 2 97 7 1 2 2 46 2 78 
ELSE[ ]	/* Else */
NPUSHB[ ]	/* 32 values pushed */
0 5 4 5 133 8 1 4 3 4 133 0 3 0 1 0 3 1 106 6 1 0 0 2 97 7 1 2 2 46 2 78 
EIF[ ]	/* EndIf */
NPUSHB[ ]	/* 27 values pushed */
30 28 13 12 1 0 37 34 28 41 30 41 21 19 12 27 13 27 7 5 0 11 1 11 9 9 22 
CALL[ ]	/* CallFunction */";
};
width = 607;
}
);
note = Oacute;
unicode = 211;
},
{
glyphname = Ocircumflex;
kernLeft = O;
kernRight = O;
layers = (
{
layerId = m01;
shapes = (
{
closed = 1;
nodes = (
(462,277,qs),
(462,374,o),
(420,424,qs),
(379,473,o),
(303,473,qs),
(237,473,o),
(197,436,qs),
(143,387,o),
(143,277,qs),
(143,83,o),
(303,83,qs),
(462,83,o)
);
},
{
closed = 1;
nodes = (
(120,58,qs),
(43,134,o),
(43,277,qs),
(43,401,o),
(103,477,qs),
(173,566,o),
(303,566,qs),
(416,566,o),
(485,497,qs),
(562,419,o),
(562,277,qs),
(562,153,o),
(503,78,qs),
(434,-10,o),
(303,-10,qs),
(189,-10,o)
);
},
{
closed = 1;
nodes = (
(246,598,o),
(226,598,qs),
(167,598,ls),
(163,598,o),
(159,607,o),
(162,610,qs),
(237,686,ls),
(248,696,o),
(265,696,qs),
(340,696,ls),
(358,696,o),
(367,686,qs),
(442,610,l),
(445,606,o),
(441,598,o),
(436,598,qs),
(377,598,ls),
(357,598,o),
(346,611,qs),
(303,661,l),
(258,611,ls)
);
}
);
userData = {
assembly = "MPPEM[ ]	/* MeasurePixelPerEm */
PUSHB[ ]	/* 1 value pushed */
39 
LT[ ]	/* LessThan */
IF[ ]	/* If */
NPUSHB[ ]	/* 34 values pushed */
0 5 4 5 133 6 1 4 3 4 133 0 1 1 3 97 0 3 3 39 77 7 1 0 0 2 97 8 1 2 2 46 2 78 
ELSE[ ]	/* Else */
NPUSHB[ ]	/* 32 values pushed */
0 5 4 5 133 6 1 4 3 4 133 0 3 0 1 0 3 1 106 7 1 0 0 2 97 8 1 2 2 46 2 78 
EIF[ ]	/* EndIf */
NPUSHB[ ]	/* 25 values pushed */
13 12 1 0 47 44 40 37 32 30 21 19 12 27 13 27 7 5 0 11 1 11 9 9 22 
CALL[ ]	/* CallFunction */";
};
width = 607;
}
);
note = Ocircumflex;
unicode = 212;
},
{
glyphname = Otilde;
kernLeft = O;
kernRight = O;
layers = (
{
layerId = m01;
shapes = (
{
closed = 1;
nodes = (
(462,277,qs),
(462,374,o),
(420,424,qs),
(379,473,o),
(303,473,qs),
(237,473,o),
(197,436,qs),
(143,387,o),
(143,277,qs),
(143,83,o),
(303,83,qs),
(462,83,o)
);
},
{
closed = 1;
nodes = (
(120,58,qs),
(43,134,o),
(43,277,qs),
(43,401,o),
(103,477,qs),
(173,566,o),
(303,566,qs),
(416,566,o),
(485,497,qs),
(562,419,o),
(562,277,qs),
(562,153,o),
(503,78,qs),
(434,-10,o),
(303,-10,qs),
(189,-10,o)
);
},
{
closed = 1;
nodes = (
(164,608,qs),
(170,696,o),
(235,696,qs),
(259,696,o),
(301,678,qs),
(336,664,o),
(349,664,qs),
(367,664,o),
(371,686,qs),
(372,696,o),
(382,696,qs),
(424,696,ls),
(434,696,o),
(434,686,q),
(429,640,o),
(392,600,o),
(356,600,qs),
(334,600,o),
(294,616,qs),
(260,629,o),
(249,629,qs),
(230,629,o),
(227,607,qs),
(225,597,o),
(215,597,qs),
(174,597,ls),
(164,597,o)
);
}
);
userData = {
assembly = "PUSHB[ ]	/* 6 values pushed */
40 1 8 7 1 76 
MPPEM[ ]	/* MeasurePixelPerEm */
PUSHB[ ]	/* 1 value pushed */
30 
LT[ ]	/* LessThan */
IF[ ]	/* If */
NPUSHB[ ]	/* 47 values pushed */
0 5 8 4 4 5 114 9 1 7 8 4 7 90 0 8 6 12 2 4 3 8 4 106 0 1 1 3 97 0 3 3 39 77 10 1 0 0 2 97 11 1 2 2 46 2 78 
ELSE[ ]	/* Else */
MPPEM[ ]	/* MeasurePixelPerEm */
PUSHB[ ]	/* 1 value pushed */
39 
LT[ ]	/* LessThan */
IF[ ]	/* If */
NPUSHB[ ]	/* 48 values pushed */
0 5 8 4 8 5 4 128 9 1 7 8 4 7 90 0 8 6 12 2 4 3 8 4 106 0 1 1 3 97 0 3 3 39 77 10 1 0 0 2 97 11 1 2 2 46 2 78 
ELSE[ ]	/* Else */
NPUSHB[ ]	/* 46 values pushed */
0 5 8 4 8 5 4 128 9 1 7 8 4 7 90 0 8 6 12 2 4 3 8 4 106 0 3 0 1 0 3 1 105 10 1 0 0 2 97 11 1 2 2 46 2 78 
EIF[ ]	/* EndIf */
EIF[ ]	/* EndIf */
NPUSHB[ ]	/* 35 values pushed */
30 28 13 12 1 0 52 50 48 46 44 41 38 36 34 32 28 54 30 54 21 19 12 27 13 27 7 5 0 11 1 11 13 9 22 
CALL[ ]	/* CallFunction */";
};
width = 607;
}
);
note = Otilde;
unicode = 213;
},
{
glyphname = Odieresis;
kernLeft = O;
kernRight = O;
layers = (
{
layerId = m01;
shapes = (
{
closed = 1;
nodes = (
(462,277,qs),
(462,374,o),
(420,424,qs),
(379,473,o),
(303,473,qs),
(237,473,o),
(197,436,qs),
(143,387,o),
(143,277,qs),
(143,83,o),
(303,83,qs),
(462,83,o)
);
},
{
closed = 1;
nodes = (
(120,58,qs),
(43,134,o),
(43,277,qs),
(43,401,o),
(103,477,qs),
(173,566,o),
(303,566,qs),
(416,566,o),
(485,497,qs),
(562,419,o),
(562,277,qs),
(562,153,o),
(503,78,qs),
(434,-10,o),
(303,-10,qs),
(189,-10,o)
);
},
{
closed = 1;
nodes = (
(202,697,o),
(225,697,qs),
(248,697,o),
(279,665,o),
(279,642,qs),
(279,619,o),
(248,587,o),
(225,587,qs),
(202,587,o),
(171,619,o),
(171,642,qs),
(171,665,o)
);
},
{
closed = 1;
nodes = (
(359,697,o),
(382,697,qs),
(405,697,o),
(436,665,o),
(436,642,qs),
(436,619,o),
(405,587,o),
(382,587,qs),
(359,587,o),
(328,619,o),
(328,642,qs),
(328,665,o)
);
}
);
userData = {
assembly = "MPPEM[ ]	/* MeasurePixelPerEm */
PUSHB[ ]	/* 1 value pushed */
39 
LT[ ]	/* LessThan */
IF[ ]	/* If */
NPUSHB[ ]	/* 33 values pushed */
7 1 5 6 1 4 3 5 4 105 0 1 1 3 97 0 3 3 39 77 8 1 0 0 2 97 9 1 2 2 46 2 78 
ELSE[ ]	/* Else */
NPUSHB[ ]	/* 31 values pushed */
7 1 5 6 1 4 3 5 4 105 0 3 0 1 0 3 1 105 8 1 0 0 2 97 9 1 2 2 46 2 78 
EIF[ ]	/* EndIf */
NPUSHB[ ]	/* 27 values pushed */
13 12 1 0 50 48 44 42 38 36 32 30 21 19 12 27 13 27 7 5 0 11 1 11 10 9 22 
CALL[ ]	/* CallFunction */";
};
width = 607;
}
);
note = Odieresis;
unicode = 214;
},
{
glyphname = multiply;
layers = (
{
layerId = m01;
shapes = (
{
closed = 1;
nodes = (
(39,392,o),
(46,399,qs),
(73,427,o),
(114,425,o),
(144,394,qs),
(211,328,l),
(312,429,ls),
(320,437,o),
(328,429,qs),
(366,392,ls),
(374,384,o),
(366,376,qs),
(265,274,l),
(375,164,ls),
(382,156,o),
(375,148,qs),
(348,121,o),
(307,123,o),
(278,153,qs),
(211,221,l),
(108,118,ls),
(100,109,o),
(94,118,q),
(56,157,ls),
(49,164,o),
(56,172,qs),
(157,274,l),
(47,383,ls)
);
}
);
userData = {
assembly = "NPUSHB[ ]	/* 22 values pushed */
21 14 7 3 0 1 1 76 0 1 0 1 133 0 0 0 118 29 25 2 9 24 
CALL[ ]	/* CallFunction */";
};
width = 418;
}
);
note = multiply;
unicode = 215;
},
{
glyphname = Oslash;
kernLeft = O;
kernRight = O;
layers = (
{
layerId = m01;
shapes = (
{
closed = 1;
nodes = (
(341,472,o),
(304,472,qs),
(238,472,o),
(198,436,qs),
(144,387,o),
(144,277,qs),
(144,195,o),
(174,149,q),
(372,459,l)
);
},
{
closed = 1;
nodes = (
(265,84,o),
(304,84,qs),
(462,84,o),
(462,277,qs),
(462,358,o),
(435,403,q),
(239,96,l)
);
},
{
closed = 1;
nodes = (
(121,57,qs),
(44,134,o),
(44,277,qs),
(44,401,o),
(104,477,qs),
(174,566,o),
(304,566,qs),
(417,566,o),
(486,497,qs),
(563,419,o),
(563,277,qs),
(563,152,o),
(504,77,qs),
(435,-10,o),
(304,-10,qs),
(189,-10,o)
);
}
);
userData = {
assembly = "PUSHB[ ]	/* 7 values pushed */
15 8 2 1 0 1 76 
MPPEM[ ]	/* MeasurePixelPerEm */
PUSHB[ ]	/* 1 value pushed */
39 
LT[ ]	/* LessThan */
IF[ ]	/* If */
NPUSHB[ ]	/* 22 values pushed */
0 0 0 3 97 0 3 3 39 77 0 1 1 2 97 4 1 2 2 46 2 78 
ELSE[ ]	/* Else */
NPUSHB[ ]	/* 20 values pushed */
0 3 0 0 1 3 0 105 0 1 1 2 97 4 1 2 2 46 2 78 
EIF[ ]	/* EndIf */
NPUSHB[ ]	/* 13 values pushed */
17 16 25 23 16 31 17 31 37 37 5 9 24 
CALL[ ]	/* CallFunction */";
};
width = 607;
}
);
note = Oslash;
unicode = 216;
},
{
glyphname = Ugrave;
kernLeft = U;
kernRight = U;
layers = (
{
layerId = m01;
shapes = (
{
closed = 1;
nodes = (
(97,57,qs),
(53,113,o),
(53,203,qs),
(53,544,ls),
(53,556,o),
(64,556,qs),
(72,556,ls),
(151,556,o),
(151,469,qs),
(151,222,ls),
(151,82,o),
(260,82,qs),
(372,82,o),
(372,222,qs),
(372,544,ls),
(372,556,o),
(384,556,qs),
(392,556,ls),
(471,556,o),
(471,469,qs),
(471,204,ls),
(471,130,o),
(439,77,qs),
(386,-10,o),
(260,-10,qs),
(151,-10,o)
);
},
{
closed = 1;
nodes = (
(144,696,o),
(150,696,qs),
(230,696,ls),
(244,696,o),
(256,686,qs),
(340,610,l),
(343,606,o),
(339,598,o),
(334,598,qs),
(268,598,ls),
(250,598,o),
(235,609,qs),
(146,683,ls),
(142,687,o)
);
}
);
userData = {
assembly = "NPUSHB[ ]	/* 47 values pushed */
0 5 4 5 133 0 4 1 4 133 3 1 1 1 39 77 0 2 2 0 98 6 1 0 0 46 0 78 1 0 37 35 30 28 20 17 14 12 9 6 0 25 1 25 7 9 22 
CALL[ ]	/* CallFunction */";
};
width = 526;
}
);
note = Ugrave;
unicode = 217;
},
{
glyphname = Uacute;
kernLeft = U;
kernRight = U;
layers = (
{
layerId = m01;
shapes = (
{
closed = 1;
nodes = (
(97,57,qs),
(53,113,o),
(53,203,qs),
(53,544,ls),
(53,556,o),
(64,556,qs),
(72,556,ls),
(151,556,o),
(151,469,qs),
(151,222,ls),
(151,82,o),
(260,82,qs),
(372,82,o),
(372,222,qs),
(372,544,ls),
(372,556,o),
(384,556,qs),
(392,556,ls),
(471,556,o),
(471,469,qs),
(471,204,ls),
(471,130,o),
(439,77,qs),
(386,-10,o),
(260,-10,qs),
(151,-10,o)
);
},
{
closed = 1;
nodes = (
(160,607,o),
(164,610,qs),
(247,686,l),
(260,696,o),
(274,696,qs),
(354,696,ls),
(359,696,o),
(362,687,o),
(357,683,qs),
(268,609,ls),
(254,598,o),
(235,598,qs),
(169,598,ls),
(164,598,o)
);
}
);
userData = {
assembly = "NPUSHB[ ]	/* 52 values pushed */
0 5 4 5 133 7 1 4 1 4 133 3 1 1 1 39 77 0 2 2 0 98 6 1 0 0 46 0 78 28 26 1 0 35 32 26 39 28 39 20 17 14 12 9 6 0 25 1 25 8 9 22 
CALL[ ]	/* CallFunction */";
};
width = 526;
}
);
note = Uacute;
unicode = 218;
},
{
glyphname = Ucircumflex;
kernLeft = U;
kernRight = U;
layers = (
{
layerId = m01;
shapes = (
{
closed = 1;
nodes = (
(97,57,qs),
(53,113,o),
(53,203,qs),
(53,544,ls),
(53,556,o),
(64,556,qs),
(72,556,ls),
(151,556,o),
(151,469,qs),
(151,222,ls),
(151,82,o),
(260,82,qs),
(372,82,o),
(372,222,qs),
(372,544,ls),
(372,556,o),
(384,556,qs),
(392,556,ls),
(471,556,o),
(471,469,qs),
(471,204,ls),
(471,130,o),
(439,77,qs),
(386,-10,o),
(260,-10,qs),
(151,-10,o)
);
},
{
closed = 1;
nodes = (
(206,598,o),
(186,598,qs),
(127,598,ls),
(122,598,o),
(119,607,o),
(122,610,qs),
(197,686,ls),
(207,696,o),
(225,696,qs),
(299,696,ls),
(317,696,o),
(327,686,qs),
(401,610,ls),
(405,606,o),
(401,598,o),
(395,598,qs),
(337,598,ls),
(317,598,o),
(306,611,qs),
(262,661,l),
(217,611,ls)
);
}
);
userData = {
assembly = "NPUSHB[ ]	/* 56 values pushed */
40 1 4 5 1 76 0 5 4 5 133 6 1 4 1 4 133 3 1 1 1 39 77 0 2 2 0 98 7 1 0 0 46 0 78 1 0 45 42 38 35 30 28 20 17 14 12 9 6 0 25 1 25 8 9 22 
CALL[ ]	/* CallFunction */";
};
width = 526;
}
);
note = Ucircumflex;
unicode = 219;
},
{
glyphname = Udieresis;
kernLeft = U;
kernRight = U;
layers = (
{
layerId = m01;
shapes = (
{
closed = 1;
nodes = (
(97,57,qs),
(53,113,o),
(53,203,qs),
(53,544,ls),
(53,556,o),
(64,556,qs),
(72,556,ls),
(151,556,o),
(151,469,qs),
(151,222,ls),
(151,82,o),
(260,82,qs),
(372,82,o),
(372,222,qs),
(372,544,ls),
(372,556,o),
(384,556,qs),
(392,556,ls),
(471,556,o),
(471,469,qs),
(471,204,ls),
(471,130,o),
(439,77,qs),
(386,-10,o),
(260,-10,qs),
(151,-10,o)
);
},
{
closed = 1;
nodes = (
(155,697,o),
(179,697,qs),
(201,697,o),
(232,665,o),
(232,642,qs),
(232,619,o),
(201,587,o),
(179,587,qs),
(156,587,o),
(124,619,o),
(124,642,qs),
(124,665,o)
);
},
{
closed = 1;
nodes = (
(312,697,o),
(336,697,qs),
(358,697,o),
(389,665,o),
(389,642,qs),
(389,619,o),
(358,587,o),
(336,587,qs),
(313,587,o),
(281,619,o),
(281,642,qs),
(281,665,o)
);
}
);
userData = {
assembly = "NPUSHB[ ]	/* 51 values pushed */
7 1 5 6 1 4 1 5 4 105 3 1 1 1 39 77 0 2 2 0 98 8 1 0 0 46 0 78 1 0 48 46 42 40 36 34 30 28 20 17 14 12 9 6 0 25 1 25 9 9 22 
CALL[ ]	/* CallFunction */";
};
width = 526;
}
);
note = Udieresis;
unicode = 220;
},
{
glyphname = Yacute;
kernLeft = Y;
kernRight = Y;
layers = (
{
layerId = m01;
shapes = (
{
closed = 1;
nodes = (
(2,556,o),
(14,556,qs),
(53,556,ls),
(85,556,o),
(124,530,o),
(140,500,qs),
(241,308,l),
(363,542,ls),
(370,556,o),
(382,556,qs),
(459,556,ls),
(472,556,o),
(466,543,qs),
(285,206,l),
(285,11,ls),
(285,0,o),
(274,0,qs),
(197,0,ls),
(187,0,o),
(187,11,qs),
(187,208,l),
(8,544,ls)
);
},
{
closed = 1;
nodes = (
(150,607,o),
(153,610,qs),
(237,686,ls),
(249,696,o),
(263,696,qs),
(343,696,ls),
(348,696,o),
(351,687,o),
(347,683,qs),
(257,609,ls),
(243,598,o),
(224,598,qs),
(158,598,ls),
(153,598,o)
);
}
);
userData = {
assembly = "NPUSHB[ ]	/* 52 values pushed */
33 1 3 4 14 7 0 3 0 1 2 76 5 1 3 4 1 4 3 1 128 2 1 1 1 39 77 0 4 4 0 95 0 0 0 40 0 78 24 22 31 28 22 35 24 35 53 52 50 6 9 25 
CALL[ ]	/* CallFunction */";
};
width = 466;
}
);
note = Yacute;
unicode = 221;
},
{
glyphname = Thorn;
layers = (
{
layerId = m01;
shapes = (
{
closed = 1;
nodes = (
(365,188,o),
(365,281,qs),
(365,322,o),
(313,371,o),
(269,371,qs),
(155,371,l),
(155,188,l),
(268,188,ls)
);
},
{
closed = 1;
nodes = (
(155,0,o),
(144,0,qs),
(68,0,ls),
(57,0,o),
(57,11,qs),
(57,544,ls),
(57,556,o),
(68,556,qs),
(77,556,ls),
(155,556,o),
(155,468,qs),
(155,461,l),
(261,461,ls),
(355,461,o),
(407,418,qs),
(463,371,o),
(463,282,qs),
(463,205,o),
(418,155,qs),
(366,97,o),
(273,97,qs),
(155,97,l),
(155,11,ls)
);
}
);
userData = {
assembly = "NPUSHB[ ]	/* 46 values pushed */
0 3 0 0 1 3 0 103 6 1 1 0 2 5 1 2 103 0 4 4 39 77 0 5 5 40 5 78 0 0 29 26 23 20 18 16 10 8 0 7 0 6 33 7 9 23 
CALL[ ]	/* CallFunction */";
};
width = 496;
}
);
note = Thorn;
unicode = 222;
},
{
glyphname = germandbls;
layers = (
{
layerId = m01;
shapes = (
{
closed = 1;
nodes = (
(289,67,qs),
(345,67,o),
(345,108,qs),
(345,139,o),
(298,173,qs),
(255,202,o),
(245,211,qs),
(210,244,o),
(210,286,qs),
(210,316,o),
(240,359,qs),
(266,395,o),
(278,419,o),
(278,433,qs),
(278,456,o),
(243,484,o),
(215,484,qs),
(181,484,o),
(141,440,o),
(141,402,qs),
(141,11,ls),
(141,0,o),
(131,0,qs),
(56,0,ls),
(47,0,o),
(47,11,qs),
(47,403,ls),
(47,474,o),
(88,518,qs),
(134,566,o),
(213,566,qs),
(289,566,o),
(333,533,qs),
(374,501,o),
(374,454,qs),
(374,417,o),
(334,361,qs),
(301,314,o),
(301,299,qs),
(301,278,o),
(351,245,qs),
(403,212,o),
(443,155,o),
(443,114,qs),
(443,62,o),
(409,29,qs),
(371,-10,o),
(305,-10,qs),
(252,-10,o),
(175,48,o),
(175,89,qs),
(175,107,o),
(186,107,qs),
(191,107,o),
(195,103,q),
(246,67,o)
);
}
);
userData = {
assembly = "MPPEM[ ]	/* MeasurePixelPerEm */
PUSHB[ ]	/* 1 value pushed */
20 
LT[ ]	/* LessThan */
IF[ ]	/* If */
NPUSHB[ ]	/* 30 values pushed */
0 0 4 5 4 0 5 128 0 4 4 2 97 0 2 2 39 77 0 5 5 1 97 3 1 1 1 46 1 78 
ELSE[ ]	/* Else */
MPPEM[ ]	/* MeasurePixelPerEm */
PUSHB[ ]	/* 1 value pushed */
39 
LT[ ]	/* LessThan */
IF[ ]	/* If */
NPUSHB[ ]	/* 34 values pushed */
0 0 4 5 4 0 5 128 0 4 4 2 97 0 2 2 39 77 0 3 3 40 77 0 5 5 1 97 0 1 1 46 1 78 
ELSE[ ]	/* Else */
NPUSHB[ ]	/* 32 values pushed */
0 0 4 5 4 0 5 128 0 2 0 4 0 2 4 105 0 3 3 40 77 0 5 5 1 97 0 1 1 46 1 78 
EIF[ ]	/* EndIf */
EIF[ ]	/* EndIf */
NPUSHB[ ]	/* 9 values pushed */
46 36 53 47 35 33 6 9 28 
CALL[ ]	/* CallFunction */";
};
width = 466;
}
);
note = germandbls;
unicode = 223;
},
{
glyphname = agrave;
kernLeft = a;
kernRight = a;
layers = (
{
layerId = m01;
shapes = (
{
closed = 1;
nodes = (
(204,-9,qs),
(128,-9,o),
(82,42,qs),
(32,97,o),
(32,189,qs),
(32,269,o),
(73,322,qs),
(122,386,o),
(206,386,qs),
(285,386,o),
(329,332,q),
(343,376,o),
(400,376,qs),
(405,376,ls),
(416,376,o),
(416,364,qs),
(416,11,ls),
(416,0,o),
(405,0,qs),
(331,0,ls),
(321,0,o),
(321,11,qs),
(321,47,l),
(279,-9,o)
);
},
{
closed = 1;
nodes = (
(321,138,o),
(321,189,qs),
(321,239,o),
(272,294,o),
(226,294,qs),
(182,294,o),
(130,237,o),
(130,189,qs),
(130,140,o),
(182,81,o),
(225,81,qs),
(270,81,o)
);
},
{
closed = 1;
nodes = (
(117,528,o),
(122,528,qs),
(202,528,ls),
(217,528,o),
(229,518,qs),
(312,442,ls),
(316,439,o),
(311,430,o),
(306,430,qs),
(240,430,ls),
(222,430,o),
(208,441,qs),
(118,516,ls),
(114,519,o)
);
}
);
userData = {
assembly = "NPUSHB[ ]	/* 10 values pushed */
12 1 5 1 0 1 0 4 2 76 
MPPEM[ ]	/* MeasurePixelPerEm */
PUSHB[ ]	/* 1 value pushed */
20 
LT[ ]	/* LessThan */
IF[ ]	/* If */
NPUSHB[ ]	/* 34 values pushed */
0 7 6 7 133 0 6 1 6 133 0 5 5 1 97 2 1 1 1 42 77 8 1 4 4 0 97 3 1 0 0 40 0 78 
ELSE[ ]	/* Else */
MPPEM[ ]	/* MeasurePixelPerEm */
PUSHB[ ]	/* 1 value pushed */
22 
LT[ ]	/* LessThan */
IF[ ]	/* If */
NPUSHB[ ]	/* 38 values pushed */
0 7 6 7 133 0 6 2 6 133 0 1 1 42 77 0 5 5 2 97 0 2 2 48 77 8 1 4 4 0 97 3 1 0 0 40 0 78 
ELSE[ ]	/* Else */
NPUSHB[ ]	/* 42 values pushed */
0 7 6 7 133 0 6 2 6 133 0 1 1 42 77 0 5 5 2 97 0 2 2 48 77 0 0 0 40 77 8 1 4 4 3 97 0 3 3 46 3 78 
EIF[ ]	/* EndIf */
EIF[ ]	/* EndIf */
NPUSHB[ ]	/* 19 values pushed */
25 24 47 45 40 38 31 29 24 35 25 35 38 34 51 50 9 9 26 
CALL[ ]	/* CallFunction */";
};
width = 463;
}
);
note = agrave;
unicode = 224;
},
{
glyphname = aacute;
kernLeft = a;
kernRight = a;
layers = (
{
layerId = m01;
shapes = (
{
closed = 1;
nodes = (
(204,-9,qs),
(128,-9,o),
(82,42,qs),
(32,97,o),
(32,189,qs),
(32,269,o),
(73,322,qs),
(122,386,o),
(206,386,qs),
(285,386,o),
(329,332,q),
(343,376,o),
(400,376,qs),
(405,376,ls),
(416,376,o),
(416,364,qs),
(416,11,ls),
(416,0,o),
(405,0,qs),
(331,0,ls),
(321,0,o),
(321,11,qs),
(321,47,l),
(279,-9,o)
);
},
{
closed = 1;
nodes = (
(321,138,o),
(321,189,qs),
(321,239,o),
(272,294,o),
(226,294,qs),
(182,294,o),
(130,237,o),
(130,189,qs),
(130,140,o),
(182,81,o),
(225,81,qs),
(270,81,o)
);
},
{
closed = 1;
nodes = (
(138,439,o),
(141,442,qs),
(225,518,ls),
(237,528,o),
(251,528,qs),
(331,528,ls),
(336,528,o),
(339,519,o),
(335,516,qs),
(245,441,ls),
(231,430,o),
(213,430,qs),
(146,430,ls),
(141,430,o)
);
}
);
userData = {
assembly = "NPUSHB[ ]	/* 14 values pushed */
47 1 6 7 12 1 5 1 0 1 0 4 3 76 
MPPEM[ ]	/* MeasurePixelPerEm */
PUSHB[ ]	/* 1 value pushed */
20 
LT[ ]	/* LessThan */
IF[ ]	/* If */
NPUSHB[ ]	/* 35 values pushed */
0 7 6 7 133 9 1 6 1 6 133 0 5 5 1 97 2 1 1 1 42 77 8 1 4 4 0 97 3 1 0 0 40 0 78 
ELSE[ ]	/* Else */
MPPEM[ ]	/* MeasurePixelPerEm */
PUSHB[ ]	/* 1 value pushed */
22 
LT[ ]	/* LessThan */
IF[ ]	/* If */
NPUSHB[ ]	/* 39 values pushed */
0 7 6 7 133 9 1 6 2 6 133 0 1 1 42 77 0 5 5 2 97 0 2 2 48 77 8 1 4 4 0 97 3 1 0 0 40 0 78 
ELSE[ ]	/* Else */
NPUSHB[ ]	/* 43 values pushed */
0 7 6 7 133 9 1 6 2 6 133 0 1 1 42 77 0 5 5 2 97 0 2 2 48 77 0 0 0 40 77 8 1 4 4 3 97 0 3 3 46 3 78 
EIF[ ]	/* EndIf */
EIF[ ]	/* EndIf */
NPUSHB[ ]	/* 23 values pushed */
38 36 25 24 45 42 36 49 38 49 31 29 24 35 25 35 38 34 51 50 10 9 26 
CALL[ ]	/* CallFunction */";
};
width = 463;
}
);
note = aacute;
unicode = 225;
},
{
glyphname = acircumflex;
kernLeft = a;
kernRight = a;
layers = (
{
layerId = m01;
shapes = (
{
closed = 1;
nodes = (
(204,-9,qs),
(128,-9,o),
(82,42,qs),
(32,97,o),
(32,189,qs),
(32,269,o),
(73,322,qs),
(122,386,o),
(206,386,qs),
(285,386,o),
(329,332,q),
(343,376,o),
(400,376,qs),
(405,376,ls),
(416,376,o),
(416,364,qs),
(416,11,ls),
(416,0,o),
(405,0,qs),
(331,0,ls),
(321,0,o),
(321,11,qs),
(321,47,l),
(279,-9,o)
);
},
{
closed = 1;
nodes = (
(321,138,o),
(321,189,qs),
(321,239,o),
(272,294,o),
(226,294,qs),
(182,294,o),
(130,237,o),
(130,189,qs),
(130,140,o),
(182,81,o),
(225,81,qs),
(270,81,o)
);
},
{
closed = 1;
nodes = (
(176,430,o),
(156,430,qs),
(97,430,ls),
(92,430,o),
(89,439,o),
(92,442,qs),
(167,518,ls),
(178,528,o),
(195,528,qs),
(269,528,ls),
(288,528,o),
(297,518,qs),
(371,442,l),
(375,439,o),
(371,430,o),
(365,430,qs),
(307,430,ls),
(287,430,o),
(276,443,qs),
(233,493,l),
(188,443,ls)
);
}
);
userData = {
assembly = "NPUSHB[ ]	/* 14 values pushed */
50 1 6 7 12 1 5 1 0 1 0 4 3 76 
MPPEM[ ]	/* MeasurePixelPerEm */
PUSHB[ ]	/* 1 value pushed */
20 
LT[ ]	/* LessThan */
IF[ ]	/* If */
NPUSHB[ ]	/* 35 values pushed */
0 7 6 7 133 8 1 6 1 6 133 0 5 5 1 97 2 1 1 1 42 77 9 1 4 4 0 97 3 1 0 0 40 0 78 
ELSE[ ]	/* Else */
MPPEM[ ]	/* MeasurePixelPerEm */
PUSHB[ ]	/* 1 value pushed */
22 
LT[ ]	/* LessThan */
IF[ ]	/* If */
NPUSHB[ ]	/* 39 values pushed */
0 7 6 7 133 8 1 6 2 6 133 0 1 1 42 77 0 5 5 2 97 0 2 2 48 77 9 1 4 4 0 97 3 1 0 0 40 0 78 
ELSE[ ]	/* Else */
NPUSHB[ ]	/* 43 values pushed */
0 7 6 7 133 8 1 6 2 6 133 0 1 1 42 77 0 5 5 2 97 0 2 2 48 77 0 0 0 40 77 9 1 4 4 3 97 0 3 3 46 3 78 
EIF[ ]	/* EndIf */
EIF[ ]	/* EndIf */
NPUSHB[ ]	/* 21 values pushed */
25 24 55 52 48 45 40 38 31 29 24 35 25 35 38 34 51 50 10 9 26 
CALL[ ]	/* CallFunction */";
};
width = 463;
}
);
note = acircumflex;
unicode = 226;
},
{
glyphname = atilde;
kernLeft = a;
kernRight = a;
layers = (
{
layerId = m01;
shapes = (
{
closed = 1;
nodes = (
(204,-9,qs),
(128,-9,o),
(82,42,qs),
(32,97,o),
(32,189,qs),
(32,269,o),
(73,322,qs),
(122,386,o),
(206,386,qs),
(285,386,o),
(329,332,q),
(343,376,o),
(400,376,qs),
(405,376,ls),
(416,376,o),
(416,364,qs),
(416,11,ls),
(416,0,o),
(405,0,qs),
(331,0,ls),
(321,0,o),
(321,11,qs),
(321,47,l),
(279,-9,o)
);
},
{
closed = 1;
nodes = (
(321,138,o),
(321,189,qs),
(321,239,o),
(272,294,o),
(226,294,qs),
(182,294,o),
(130,237,o),
(130,189,qs),
(130,140,o),
(182,81,o),
(225,81,qs),
(270,81,o)
);
},
{
closed = 1;
nodes = (
(97,440,qs),
(103,528,o),
(168,528,qs),
(192,528,o),
(234,511,qs),
(269,497,o),
(282,497,qs),
(299,497,o),
(304,518,q),
(305,528,o),
(315,528,qs),
(356,528,ls),
(367,528,o),
(366,518,qs),
(362,472,o),
(325,432,o),
(289,432,qs),
(267,432,o),
(227,448,qs),
(193,461,o),
(181,461,qs),
(163,461,o),
(160,439,qs),
(158,429,o),
(148,429,qs),
(107,429,ls),
(97,429,o)
);
}
);
userData = {
assembly = "NPUSHB[ ]	/* 10 values pushed */
12 1 5 1 0 1 0 4 2 76 
MPPEM[ ]	/* MeasurePixelPerEm */
PUSHB[ ]	/* 1 value pushed */
20 
LT[ ]	/* LessThan */
IF[ ]	/* If */
NPUSHB[ ]	/* 48 values pushed */
0 7 10 6 6 7 114 11 1 9 10 6 9 90 0 10 8 13 2 6 1 10 6 106 0 5 5 1 97 2 1 1 1 42 77 12 1 4 4 0 97 3 1 0 0 40 0 78 
ELSE[ ]	/* Else */
MPPEM[ ]	/* MeasurePixelPerEm */
PUSHB[ ]	/* 1 value pushed */
22 
LT[ ]	/* LessThan */
IF[ ]	/* If */
NPUSHB[ ]	/* 52 values pushed */
0 7 10 6 6 7 114 11 1 9 10 6 9 90 0 10 8 13 2 6 2 10 6 106 0 1 1 42 77 0 5 5 2 97 0 2 2 48 77 12 1 4 4 0 97 3 1 0 0 40 0 78 
ELSE[ ]	/* Else */
MPPEM[ ]	/* MeasurePixelPerEm */
PUSHB[ ]	/* 1 value pushed */
30 
LT[ ]	/* LessThan */
IF[ ]	/* If */
NPUSHB[ ]	/* 56 values pushed */
0 7 10 6 6 7 114 11 1 9 10 6 9 90 0 10 8 13 2 6 2 10 6 106 0 1 1 42 77 0 5 5 2 97 0 2 2 48 77 0 0 0 40 77 12 1 4 4 3 97 0 3 3 46 3 78 
ELSE[ ]	/* Else */
NPUSHB[ ]	/* 57 values pushed */
0 7 10 6 10 7 6 128 11 1 9 10 6 9 90 0 10 8 13 2 6 2 10 6 106 0 1 1 42 77 0 5 5 2 97 0 2 2 48 77 0 0 0 40 77 12 1 4 4 3 97 0 3 3 46 3 78 
EIF[ ]	/* EndIf */
EIF[ ]	/* EndIf */
EIF[ ]	/* EndIf */
NPUSHB[ ]	/* 31 values pushed */
38 36 25 24 60 58 56 54 52 49 46 44 42 40 36 62 38 62 31 29 24 35 25 35 38 34 51 50 14 9 26 
CALL[ ]	/* CallFunction */";
};
width = 463;
}
);
note = atilde;
unicode = 227;
},
{
glyphname = adieresis;
kernLeft = a;
kernRight = a;
layers = (
{
layerId = m01;
shapes = (
{
closed = 1;
nodes = (
(204,-9,qs),
(128,-9,o),
(82,42,qs),
(32,97,o),
(32,189,qs),
(32,269,o),
(73,322,qs),
(122,386,o),
(206,386,qs),
(285,386,o),
(329,332,q),
(343,376,o),
(400,376,qs),
(405,376,ls),
(416,376,o),
(416,364,qs),
(416,11,ls),
(416,0,o),
(405,0,qs),
(331,0,ls),
(321,0,o),
(321,11,qs),
(321,47,l),
(279,-9,o)
);
},
{
closed = 1;
nodes = (
(321,138,o),
(321,189,qs),
(321,239,o),
(272,294,o),
(226,294,qs),
(182,294,o),
(130,237,o),
(130,189,qs),
(130,140,o),
(182,81,o),
(225,81,qs),
(270,81,o)
);
},
{
closed = 1;
nodes = (
(123,529,o),
(146,529,qs),
(169,529,o),
(200,497,o),
(200,474,qs),
(200,451,o),
(169,419,o),
(146,419,qs),
(123,419,o),
(92,451,o),
(92,474,qs),
(92,498,o)
);
},
{
closed = 1;
nodes = (
(280,529,o),
(304,529,qs),
(326,529,o),
(357,498,o),
(357,474,qs),
(357,451,o),
(326,419,o),
(304,419,qs),
(281,419,o),
(249,451,o),
(249,474,qs),
(249,498,o)
);
}
);
userData = {
assembly = "NPUSHB[ ]	/* 10 values pushed */
12 1 5 1 0 1 0 4 2 76 
MPPEM[ ]	/* MeasurePixelPerEm */
PUSHB[ ]	/* 1 value pushed */
20 
LT[ ]	/* LessThan */
IF[ ]	/* If */
NPUSHB[ ]	/* 34 values pushed */
9 1 7 8 1 6 1 7 6 105 0 5 5 1 97 2 1 1 1 42 77 10 1 4 4 0 97 3 1 0 0 40 0 78 
ELSE[ ]	/* Else */
MPPEM[ ]	/* MeasurePixelPerEm */
PUSHB[ ]	/* 1 value pushed */
22 
LT[ ]	/* LessThan */
IF[ ]	/* If */
NPUSHB[ ]	/* 38 values pushed */
9 1 7 8 1 6 2 7 6 105 0 1 1 42 77 0 5 5 2 97 0 2 2 48 77 10 1 4 4 0 97 3 1 0 0 40 0 78 
ELSE[ ]	/* Else */
NPUSHB[ ]	/* 42 values pushed */
9 1 7 8 1 6 2 7 6 105 0 1 1 42 77 0 5 5 2 97 0 2 2 48 77 0 0 0 40 77 10 1 4 4 3 97 0 3 3 46 3 78 
EIF[ ]	/* EndIf */
EIF[ ]	/* EndIf */
NPUSHB[ ]	/* 23 values pushed */
25 24 58 56 52 50 46 44 40 38 31 29 24 35 25 35 38 34 51 50 11 9 26 
CALL[ ]	/* CallFunction */";
};
width = 463;
}
);
note = adieresis;
unicode = 228;
},
{
glyphname = aring;
kernLeft = a;
kernRight = a;
layers = (
{
layerId = m01;
shapes = (
{
closed = 1;
nodes = (
(204,-9,qs),
(128,-9,o),
(82,42,qs),
(32,97,o),
(32,189,qs),
(32,269,o),
(73,322,qs),
(122,386,o),
(206,386,qs),
(285,386,o),
(329,332,q),
(343,376,o),
(400,376,qs),
(405,376,ls),
(416,376,o),
(416,364,qs),
(416,11,ls),
(416,0,o),
(405,0,qs),
(331,0,ls),
(321,0,o),
(321,11,qs),
(321,47,l),
(279,-9,o)
);
},
{
closed = 1;
nodes = (
(321,138,o),
(321,189,qs),
(321,239,o),
(272,294,o),
(226,294,qs),
(182,294,o),
(130,237,o),
(130,189,qs),
(130,140,o),
(182,81,o),
(225,81,qs),
(270,81,o)
);
},
{
closed = 1;
nodes = (
(192,569,o),
(224,569,qs),
(256,569,o),
(300,525,o),
(300,494,qs),
(300,462,o),
(256,418,o),
(224,418,qs),
(192,418,o),
(147,463,o),
(147,494,qs),
(147,525,o)
);
},
{
closed = 1;
nodes = (
(256,479,o),
(256,494,qs),
(256,509,o),
(238,528,o),
(224,528,qs),
(210,528,o),
(191,508,o),
(191,494,qs),
(191,480,o),
(210,460,o),
(224,460,qs),
(238,460,o)
);
}
);
userData = {
assembly = "NPUSHB[ ]	/* 10 values pushed */
12 1 5 1 0 1 0 4 2 76 
MPPEM[ ]	/* MeasurePixelPerEm */
PUSHB[ ]	/* 1 value pushed */
20 
LT[ ]	/* LessThan */
IF[ ]	/* If */
NPUSHB[ ]	/* 43 values pushed */
11 1 8 0 6 1 8 6 105 0 9 9 7 97 0 7 7 39 77 0 5 5 1 97 2 1 1 1 42 77 10 1 4 4 0 97 3 1 0 0 40 0 78 
ELSE[ ]	/* Else */
MPPEM[ ]	/* MeasurePixelPerEm */
PUSHB[ ]	/* 1 value pushed */
22 
LT[ ]	/* LessThan */
IF[ ]	/* If */
NPUSHB[ ]	/* 47 values pushed */
11 1 8 0 6 2 8 6 105 0 9 9 7 97 0 7 7 39 77 0 1 1 42 77 0 5 5 2 97 0 2 2 48 77 10 1 4 4 0 97 3 1 0 0 40 0 78 
ELSE[ ]	/* Else */
MPPEM[ ]	/* MeasurePixelPerEm */
PUSHB[ ]	/* 1 value pushed */
30 
LT[ ]	/* LessThan */
IF[ ]	/* If */
NPUSHB[ ]	/* 51 values pushed */
11 1 8 0 6 2 8 6 105 0 9 9 7 97 0 7 7 39 77 0 1 1 42 77 0 5 5 2 97 0 2 2 48 77 0 0 0 40 77 10 1 4 4 3 97 0 3 3 46 3 78 
ELSE[ ]	/* Else */
NPUSHB[ ]	/* 49 values pushed */
0 7 0 9 8 7 9 105 11 1 8 0 6 2 8 6 105 0 1 1 42 77 0 5 5 2 97 0 2 2 48 77 0 0 0 40 77 10 1 4 4 3 97 0 3 3 46 3 78 
EIF[ ]	/* EndIf */
EIF[ ]	/* EndIf */
EIF[ ]	/* EndIf */
NPUSHB[ ]	/* 27 values pushed */
49 48 25 24 55 53 48 59 49 59 46 44 40 38 31 29 24 35 25 35 38 34 51 50 12 9 26 
CALL[ ]	/* CallFunction */";
};
width = 463;
}
);
note = aring;
unicode = 229;
},
{
glyphname = ae;
kernLeft = a;
kernRight = e;
layers = (
{
layerId = m01;
shapes = (
{
closed = 1;
nodes = (
(415,0,o),
(405,0,qs),
(335,0,ls),
(324,0,o),
(324,11,qs),
(324,47,l),
(282,-9,o),
(205,-9,qs),
(129,-9,o),
(83,43,qs),
(33,98,o),
(33,189,qs),
(33,268,o),
(75,322,qs),
(124,386,o),
(208,386,qs),
(286,386,o),
(331,329,q),
(345,376,o),
(403,376,qs),
(405,376,ls),
(415,376,o),
(415,364,qs),
(415,329,l),
(466,386,o),
(540,386,qs),
(618,386,o),
(663,339,qs),
(709,292,o),
(709,215,qs),
(709,189,o),
(706,168,qs),
(705,154,o),
(690,154,qs),
(454,154,l),
(464,73,o),
(562,73,qs),
(617,73,o),
(675,102,qs),
(687,109,o),
(690,109,qs),
(701,109,o),
(701,94,qs),
(701,60,o),
(672,32,qs),
(629,-9,o),
(551,-9,qs),
(467,-9,o),
(415,47,q),
(415,11,ls)
);
},
{
closed = 1;
nodes = (
(322,138,o),
(322,189,qs),
(322,239,o),
(273,294,o),
(228,294,qs),
(183,294,o),
(131,238,o),
(131,189,qs),
(131,140,o),
(183,81,o),
(227,81,qs),
(272,81,o)
);
},
{
closed = 1;
nodes = (
(616,260,o),
(577,303,o),
(540,303,qs),
(461,303,o),
(455,223,q),
(614,223,l)
);
}
);
userData = {
assembly = "MPPEM[ ]	/* MeasurePixelPerEm */
PUSHB[ ]	/* 1 value pushed */
20 
LT[ ]	/* LessThan */
IF[ ]	/* If */
NPUSHB[ ]	/* 12 values pushed */
31 25 2 10 4 43 0 2 0 2 2 76 
ELSE[ ]	/* Else */
MPPEM[ ]	/* MeasurePixelPerEm */
PUSHB[ ]	/* 1 value pushed */
22 
LT[ ]	/* LessThan */
IF[ ]	/* If */
NPUSHB[ ]	/* 12 values pushed */
31 25 2 10 5 43 0 2 0 2 2 76 
ELSE[ ]	/* Else */
NPUSHB[ ]	/* 12 values pushed */
31 25 2 11 5 43 0 2 8 2 2 76 
EIF[ ]	/* EndIf */
EIF[ ]	/* EndIf */
MPPEM[ ]	/* MeasurePixelPerEm */
PUSHB[ ]	/* 1 value pushed */
20 
LT[ ]	/* LessThan */
IF[ ]	/* If */
NPUSHB[ ]	/* 45 values pushed */
0 1 3 2 3 1 2 128 14 1 12 0 3 1 12 3 103 11 1 10 10 4 97 6 5 2 4 4 48 77 13 9 2 2 2 0 97 8 7 2 0 0 46 0 78 
ELSE[ ]	/* Else */
MPPEM[ ]	/* MeasurePixelPerEm */
PUSHB[ ]	/* 1 value pushed */
22 
LT[ ]	/* LessThan */
IF[ ]	/* If */
NPUSHB[ ]	/* 49 values pushed */
0 1 3 2 3 1 2 128 14 1 12 0 3 1 12 3 103 0 5 5 42 77 11 1 10 10 4 97 6 1 4 4 48 77 13 9 2 2 2 0 97 8 7 2 0 0 46 0 78 
ELSE[ ]	/* Else */
MPPEM[ ]	/* MeasurePixelPerEm */
PUSHB[ ]	/* 1 value pushed */
24 
LT[ ]	/* LessThan */
IF[ ]	/* If */
NPUSHB[ ]	/* 63 values pushed */
0 1 3 2 3 1 2 128 14 1 12 0 3 1 12 3 103 0 5 5 42 77 0 11 11 4 97 6 1 4 4 48 77 0 10 10 4 97 6 1 4 4 48 77 0 8 8 40 77 13 9 2 2 2 0 97 7 1 0 0 46 0 78 
ELSE[ ]	/* Else */
NPUSHB[ ]	/* 73 values pushed */
0 1 3 9 3 1 9 128 14 1 12 0 3 1 12 3 103 0 5 5 42 77 0 11 11 4 97 6 1 4 4 48 77 0 10 10 4 97 6 1 4 4 48 77 13 1 9 9 0 97 7 1 0 0 46 77 0 8 8 40 77 0 2 2 0 97 7 1 0 0 46 0 78 
EIF[ ]	/* EndIf */
EIF[ ]	/* EndIf */
EIF[ ]	/* EndIf */
NPUSHB[ ]	/* 28 values pushed */
62 62 51 50 62 67 62 67 65 63 57 55 50 61 51 61 51 38 34 51 38 33 35 20 33 15 9 31 
CALL[ ]	/* CallFunction */";
};
width = 739;
}
);
note = ae;
unicode = 230;
},
{
glyphname = ccedilla;
kernLeft = c;
kernRight = c;
layers = (
{
layerId = m01;
shapes = (
{
closed = 1;
nodes = (
(202,-109,o),
(181,-109,qs),
(119,-109,ls),
(107,-109,o),
(114,-97,qs),
(172,-6,l),
(112,7,o),
(76,52,qs),
(33,104,o),
(33,188,qs),
(33,272,o),
(79,325,qs),
(131,384,o),
(223,384,qs),
(268,384,o),
(301,372,qs),
(349,353,o),
(335,301,qs),
(329,279,l),
(325,271,o),
(321,271,qs),
(316,271,o),
(312,274,q),
(266,294,o),
(227,294,qs),
(183,294,o),
(131,236,o),
(131,186,qs),
(131,132,o),
(187,74,o),
(238,74,qs),
(284,74,o),
(325,104,qs),
(333,111,o),
(337,111,qs),
(348,111,o),
(348,95,qs),
(348,57,o),
(295,1,o),
(252,-7,q),
(209,-94,ls)
);
}
);
userData = {
assembly = "NPUSHB[ ]	/* 48 values pushed */
34 1 5 1 1 76 0 3 2 0 2 3 0 128 0 0 1 2 0 1 126 0 1 0 5 1 5 99 0 2 2 4 97 0 4 4 48 2 78 57 37 34 36 35 20 6 9 28 
CALL[ ]	/* CallFunction */";
};
width = 363;
}
);
note = ccedilla;
unicode = 231;
},
{
glyphname = egrave;
kernLeft = e;
kernRight = e;
layers = (
{
layerId = m01;
shapes = (
{
closed = 1;
nodes = (
(193,72,o),
(240,72,qs),
(298,72,o),
(353,102,qs),
(364,108,o),
(369,108,qs),
(380,108,o),
(380,94,qs),
(380,59,o),
(349,30,qs),
(307,-10,o),
(228,-10,qs),
(149,-10,o),
(97,34,qs),
(33,89,o),
(33,189,qs),
(33,269,o),
(76,322,qs),
(127,384,o),
(217,384,qs),
(295,384,o),
(341,338,qs),
(387,291,o),
(387,213,qs),
(387,188,o),
(385,167,qs),
(383,154,o),
(368,154,qs),
(129,154,l),
(134,115,o)
);
},
{
closed = 1;
nodes = (
(295,258,o),
(254,303,o),
(217,303,qs),
(141,303,o),
(129,223,q),
(291,223,l)
);
},
{
closed = 1;
nodes = (
(96,528,o),
(101,528,qs),
(181,528,ls),
(195,528,o),
(207,518,qs),
(291,442,ls),
(294,439,o),
(290,430,o),
(285,430,qs),
(219,430,ls),
(201,430,o),
(186,441,q),
(97,516,ls),
(93,519,o)
);
}
);
userData = {
assembly = "NPUSHB[ ]	/* 67 values pushed */
0 8 7 8 133 0 7 1 7 133 0 3 0 4 0 3 4 128 9 1 6 0 0 3 6 0 103 0 5 5 1 97 0 1 1 48 77 0 4 4 2 97 0 2 2 46 2 78 30 30 47 45 40 38 30 35 30 35 35 35 20 38 38 32 10 9 28 
CALL[ ]	/* CallFunction */";
};
width = 418;
}
);
note = egrave;
unicode = 232;
},
{
glyphname = eacute;
kernLeft = e;
kernRight = e;
layers = (
{
layerId = m01;
shapes = (
{
closed = 1;
nodes = (
(193,72,o),
(240,72,qs),
(298,72,o),
(353,102,qs),
(364,108,o),
(369,108,qs),
(380,108,o),
(380,94,qs),
(380,59,o),
(349,30,qs),
(307,-10,o),
(228,-10,qs),
(149,-10,o),
(97,34,qs),
(33,89,o),
(33,189,qs),
(33,269,o),
(76,322,qs),
(127,384,o),
(217,384,qs),
(295,384,o),
(341,338,qs),
(387,291,o),
(387,213,qs),
(387,188,o),
(385,167,qs),
(383,154,o),
(368,154,qs),
(129,154,l),
(134,115,o)
);
},
{
closed = 1;
nodes = (
(295,258,o),
(254,303,o),
(217,303,qs),
(141,303,o),
(129,223,q),
(291,223,l)
);
},
{
closed = 1;
nodes = (
(116,439,o),
(120,442,qs),
(204,518,ls),
(216,528,o),
(230,528,qs),
(310,528,ls),
(315,528,o),
(318,519,o),
(314,516,qs),
(224,441,ls),
(210,430,o),
(191,430,qs),
(125,430,ls),
(120,430,o)
);
}
);
userData = {
assembly = "NPUSHB[ ]	/* 72 values pushed */
0 8 7 8 133 10 1 7 1 7 133 0 3 0 4 0 3 4 128 9 1 6 0 0 3 6 0 103 0 5 5 1 97 0 1 1 48 77 0 4 4 2 97 0 2 2 46 2 78 38 36 30 30 45 42 36 49 38 49 30 35 30 35 35 35 20 38 38 32 11 9 28 
CALL[ ]	/* CallFunction */";
};
width = 418;
}
);
note = eacute;
unicode = 233;
},
{
glyphname = ecircumflex;
kernLeft = e;
kernRight = e;
layers = (
{
layerId = m01;
shapes = (
{
closed = 1;
nodes = (
(193,72,o),
(240,72,qs),
(298,72,o),
(353,102,qs),
(364,108,o),
(369,108,qs),
(380,108,o),
(380,94,qs),
(380,59,o),
(349,30,qs),
(307,-10,o),
(228,-10,qs),
(149,-10,o),
(97,34,qs),
(33,89,o),
(33,189,qs),
(33,269,o),
(76,322,qs),
(127,384,o),
(217,384,qs),
(295,384,o),
(341,338,qs),
(387,291,o),
(387,213,qs),
(387,188,o),
(385,167,qs),
(383,154,o),
(368,154,qs),
(129,154,l),
(134,115,o)
);
},
{
closed = 1;
nodes = (
(295,258,o),
(254,303,o),
(217,303,qs),
(141,303,o),
(129,223,q),
(291,223,l)
);
},
{
closed = 1;
nodes = (
(161,430,o),
(141,430,qs),
(82,430,ls),
(77,430,o),
(74,439,o),
(77,442,qs),
(152,518,ls),
(162,528,o),
(180,528,qs),
(254,528,ls),
(273,528,o),
(282,518,qs),
(356,442,l),
(360,439,o),
(356,430,o),
(350,430,qs),
(292,430,ls),
(272,430,o),
(261,443,qs),
(217,493,l),
(172,443,ls)
);
}
);
userData = {
assembly = "NPUSHB[ ]	/* 76 values pushed */
50 1 7 8 1 76 0 8 7 8 133 9 1 7 1 7 133 0 3 0 4 0 3 4 128 10 1 6 0 0 3 6 0 103 0 5 5 1 97 0 1 1 48 77 0 4 4 2 97 0 2 2 46 2 78 30 30 55 52 48 45 40 38 30 35 30 35 35 35 20 38 38 32 11 9 28 
CALL[ ]	/* CallFunction */";
};
width = 418;
}
);
note = ecircumflex;
unicode = 234;
},
{
glyphname = edieresis;
kernLeft = e;
kernRight = e;
layers = (
{
layerId = m01;
shapes = (
{
closed = 1;
nodes = (
(193,72,o),
(240,72,qs),
(298,72,o),
(353,102,qs),
(364,108,o),
(369,108,qs),
(380,108,o),
(380,94,qs),
(380,59,o),
(349,30,qs),
(307,-10,o),
(228,-10,qs),
(149,-10,o),
(97,34,qs),
(33,89,o),
(33,189,qs),
(33,269,o),
(76,322,qs),
(127,384,o),
(217,384,qs),
(295,384,o),
(341,338,qs),
(387,291,o),
(387,213,qs),
(387,188,o),
(385,167,qs),
(383,154,o),
(368,154,qs),
(129,154,l),
(134,115,o)
);
},
{
closed = 1;
nodes = (
(295,258,o),
(254,303,o),
(217,303,qs),
(141,303,o),
(129,223,q),
(291,223,l)
);
},
{
closed = 1;
nodes = (
(115,529,o),
(139,529,qs),
(161,529,o),
(192,497,o),
(192,474,qs),
(192,451,o),
(161,419,o),
(139,419,qs),
(116,419,o),
(84,451,o),
(84,474,qs),
(84,497,o)
);
},
{
closed = 1;
nodes = (
(272,529,o),
(296,529,qs),
(318,529,o),
(349,497,o),
(349,474,qs),
(349,451,o),
(318,419,o),
(296,419,qs),
(273,419,o),
(241,451,o),
(241,474,qs),
(241,498,o)
);
}
);
userData = {
assembly = "NPUSHB[ ]	/* 71 values pushed */
0 3 0 4 0 3 4 128 10 1 8 9 1 7 1 8 7 105 11 1 6 0 0 3 6 0 103 0 5 5 1 97 0 1 1 48 77 0 4 4 2 97 0 2 2 46 2 78 30 30 58 56 52 50 46 44 40 38 30 35 30 35 35 35 20 38 38 32 12 9 28 
CALL[ ]	/* CallFunction */";
};
width = 418;
}
);
note = edieresis;
unicode = 235;
},
{
glyphname = igrave;
kernLeft = i;
kernRight = i;
layers = (
{
layerId = m01;
shapes = (
{
closed = 1;
nodes = (
(46,11,qs),
(46,364,ls),
(46,376,o),
(57,376,qs),
(62,376,ls),
(141,376,o),
(141,291,qs),
(141,11,ls),
(141,0,o),
(131,0,qs),
(57,0,ls),
(46,0,o)
);
},
{
closed = 1;
nodes = (
(-5,528,o),
(0,528,qs),
(80,528,ls),
(95,528,o),
(107,518,qs),
(190,442,ls),
(194,439,o),
(190,430,o),
(184,430,qs),
(119,430,ls),
(100,430,o),
(86,441,qs),
(-3,516,l),
(-8,519,o)
);
}
);
userData = {
assembly = "NPUSHB[ ]	/* 37 values pushed */
0 3 2 3 133 0 2 1 2 133 0 1 1 42 77 4 1 0 0 40 0 78 2 0 23 21 16 14 8 5 0 11 2 11 5 9 22 
CALL[ ]	/* CallFunction */";
};
width = 188;
}
);
note = igrave;
unicode = 236;
},
{
glyphname = iacute;
kernLeft = i;
kernRight = i;
layers = (
{
layerId = m01;
shapes = (
{
closed = 1;
nodes = (
(46,11,qs),
(46,364,ls),
(46,376,o),
(57,376,qs),
(62,376,ls),
(141,376,o),
(141,291,qs),
(141,11,ls),
(141,0,o),
(131,0,qs),
(57,0,ls),
(46,0,o)
);
},
{
closed = 1;
nodes = (
(-8,439,o),
(-5,442,qs),
(79,518,ls),
(91,528,o),
(105,528,qs),
(185,528,ls),
(190,528,o),
(193,519,o),
(189,516,qs),
(99,441,ls),
(85,430,o),
(67,430,qs),
(0,430,ls),
(-5,430,o)
);
}
);
userData = {
assembly = "NPUSHB[ ]	/* 48 values pushed */
23 1 2 3 1 76 0 3 2 3 133 5 1 2 1 2 133 0 1 1 42 77 4 1 0 0 40 0 78 14 12 2 0 21 18 12 25 14 25 8 5 0 11 2 11 6 9 22 
CALL[ ]	/* CallFunction */";
};
width = 188;
}
);
note = iacute;
unicode = 237;
},
{
glyphname = icircumflex;
kernLeft = i;
kernRight = i;
layers = (
{
layerId = m01;
shapes = (
{
closed = 1;
nodes = (
(45,11,qs),
(45,364,ls),
(45,376,o),
(56,376,qs),
(61,376,ls),
(140,376,o),
(140,291,qs),
(140,11,ls),
(140,0,o),
(130,0,qs),
(56,0,ls),
(45,0,o)
);
},
{
closed = 1;
nodes = (
(37,430,o),
(17,430,qs),
(-42,430,ls),
(-47,430,o),
(-50,439,o),
(-47,442,qs),
(28,518,ls),
(38,528,o),
(56,528,qs),
(130,528,ls),
(149,528,o),
(158,518,qs),
(232,442,l),
(236,439,o),
(232,430,o),
(226,430,qs),
(168,430,ls),
(148,430,o),
(137,443,qs),
(93,493,l),
(48,443,ls)
);
}
);
userData = {
assembly = "NPUSHB[ ]	/* 46 values pushed */
26 1 2 3 1 76 0 3 2 3 133 4 1 2 1 2 133 0 1 1 42 77 5 1 0 0 40 0 78 2 0 31 28 24 21 16 14 8 5 0 11 2 11 6 9 22 
CALL[ ]	/* CallFunction */";
};
width = 188;
}
);
note = icircumflex;
unicode = 238;
},
{
glyphname = idieresis;
kernLeft = i;
kernRight = i;
layers = (
{
layerId = m01;
shapes = (
{
closed = 1;
nodes = (
(46,11,qs),
(46,364,ls),
(46,376,o),
(57,376,qs),
(62,376,ls),
(141,376,o),
(141,291,qs),
(141,11,ls),
(141,0,o),
(131,0,qs),
(57,0,ls),
(46,0,o)
);
},
{
closed = 1;
nodes = (
(-8,529,o),
(15,529,qs),
(38,529,o),
(69,497,o),
(69,474,qs),
(69,451,o),
(38,419,o),
(15,419,qs),
(-7,419,o),
(-39,451,o),
(-39,474,qs),
(-39,497,o)
);
},
{
closed = 1;
nodes = (
(149,529,o),
(173,529,qs),
(195,529,o),
(226,497,o),
(226,474,qs),
(226,451,o),
(195,419,o),
(173,419,qs),
(150,419,o),
(118,451,o),
(118,474,qs),
(118,498,o)
);
}
);
userData = {
assembly = "NPUSHB[ ]	/* 41 values pushed */
5 1 3 4 1 2 1 3 2 105 0 1 1 42 77 6 1 0 0 40 0 78 2 0 34 32 28 26 22 20 16 14 8 5 0 11 2 11 7 9 22 
CALL[ ]	/* CallFunction */";
};
width = 188;
}
);
note = idieresis;
unicode = 239;
},
{
glyphname = eth;
layers = (
{
layerId = m01;
shapes = (
{
closed = 1;
nodes = (
(131,404,ls),
(122,400,o),
(117,408,qs),
(101,433,ls),
(96,442,o),
(104,446,qs),
(161,474,l),
(113,544,l),
(111,548,o),
(115,556,o),
(119,556,qs),
(140,556,ls),
(178,556,o),
(221,538,o),
(238,514,q),
(288,541,ls),
(296,545,o),
(303,537,q),
(319,512,ls),
(325,503,o),
(317,499,qs),
(268,473,l),
(368,329,ls),
(413,267,o),
(413,195,qs),
(413,110,o),
(370,55,qs),
(318,-10,o),
(221,-10,qs),
(141,-10,o),
(91,38,qs),
(33,93,o),
(33,188,qs),
(33,264,o),
(78,314,qs),
(132,374,o),
(232,374,q),
(190,434,l)
);
},
{
closed = 1;
nodes = (
(315,132,o),
(315,182,qs),
(315,231,o),
(266,287,o),
(222,287,qs),
(179,287,o),
(130,231,o),
(130,182,qs),
(130,134,o),
(179,79,o),
(221,79,qs),
(266,79,o)
);
}
);
userData = {
assembly = "NPUSHB[ ]	/* 50 values pushed */
37 30 22 15 4 0 2 1 76 0 2 2 39 77 0 4 4 0 97 0 0 0 42 77 5 1 3 3 1 98 0 1 1 46 1 78 39 38 45 43 38 49 39 49 47 38 16 6 9 25 
CALL[ ]	/* CallFunction */";
};
width = 446;
}
);
note = eth;
unicode = 240;
},
{
glyphname = ntilde;
kernLeft = n;
kernRight = n;
layers = (
{
layerId = m01;
shapes = (
{
closed = 1;
nodes = (
(249,383,qs),
(316,383,o),
(355,346,qs),
(401,303,o),
(401,216,qs),
(401,11,ls),
(401,0,o),
(390,0,qs),
(316,0,ls),
(305,0,o),
(305,11,qs),
(305,204,ls),
(305,295,o),
(224,295,qs),
(143,295,o),
(143,202,qs),
(143,11,ls),
(143,0,o),
(131,0,qs),
(58,0,ls),
(47,0,o),
(47,11,qs),
(47,364,ls),
(47,376,o),
(58,376,qs),
(63,376,ls),
(123,376,o),
(136,327,q),
(178,383,o)
);
},
{
closed = 1;
nodes = (
(89,440,qs),
(95,528,o),
(160,528,qs),
(184,528,o),
(226,511,qs),
(261,497,o),
(274,497,qs),
(292,497,o),
(296,518,qs),
(297,528,o),
(308,528,qs),
(349,528,ls),
(360,528,o),
(359,518,qs),
(354,472,o),
(317,432,o),
(281,432,qs),
(260,432,o),
(219,448,qs),
(185,461,o),
(174,461,qs),
(155,461,o),
(152,439,qs),
(150,429,o),
(140,429,qs),
(99,429,ls),
(89,429,o)
);
}
);
userData = {
assembly = "MPPEM[ ]	/* MeasurePixelPerEm */
PUSHB[ ]	/* 1 value pushed */
26 
LT[ ]	/* LessThan */
IF[ ]	/* If */
NPUSHB[ ]	/* 42 values pushed */
0 6 9 5 5 6 114 10 1 8 9 5 8 90 0 9 7 11 2 5 0 9 5 106 0 2 2 0 97 4 1 0 0 42 77 3 1 1 1 40 1 78 
ELSE[ ]	/* Else */
MPPEM[ ]	/* MeasurePixelPerEm */
PUSHB[ ]	/* 1 value pushed */
30 
LT[ ]	/* LessThan */
IF[ ]	/* If */
NPUSHB[ ]	/* 46 values pushed */
0 6 9 5 5 6 114 10 1 8 9 5 8 90 0 9 7 11 2 5 4 9 5 106 0 0 0 42 77 0 2 2 4 97 0 4 4 48 77 3 1 1 1 40 1 78 
ELSE[ ]	/* Else */
NPUSHB[ ]	/* 47 values pushed */
0 6 9 5 9 6 5 128 10 1 8 9 5 8 90 0 9 7 11 2 5 4 9 5 106 0 0 0 42 77 0 2 2 4 97 0 4 4 48 77 3 1 1 1 40 1 78 
EIF[ ]	/* EndIf */
EIF[ ]	/* EndIf */
NPUSHB[ ]	/* 24 values pushed */
31 29 53 51 49 47 45 42 39 37 35 33 29 55 31 55 37 51 35 51 49 12 9 27 
CALL[ ]	/* CallFunction */";
};
width = 444;
}
);
note = ntilde;
unicode = 241;
},
{
glyphname = ograve;
kernLeft = o;
kernRight = o;
layers = (
{
layerId = m01;
shapes = (
{
closed = 1;
nodes = (
(92,37,qs),
(33,92,o),
(33,188,qs),
(33,271,o),
(78,324,qs),
(131,384,o),
(225,384,qs),
(306,384,o),
(358,338,qs),
(417,284,o),
(417,188,qs),
(417,105,o),
(372,52,qs),
(320,-10,o),
(226,-10,qs),
(144,-10,o)
);
},
{
closed = 1;
nodes = (
(287,102,qs),
(319,129,o),
(319,186,qs),
(319,236,o),
(269,294,o),
(225,294,qs),
(181,294,o),
(131,237,o),
(131,187,qs),
(131,137,o),
(181,81,o),
(225,81,qs),
(263,81,o)
);
},
{
closed = 1;
nodes = (
(119,528,o),
(125,528,qs),
(205,528,ls),
(219,528,o),
(231,518,qs),
(315,442,ls),
(318,439,o),
(314,430,o),
(309,430,qs),
(243,430,ls),
(224,430,o),
(210,441,qs),
(121,516,ls),
(117,519,o)
);
}
);
userData = {
assembly = "NPUSHB[ ]	/* 56 values pushed */
0 5 4 5 133 0 4 1 4 133 0 3 3 1 97 0 1 1 48 77 7 1 2 2 0 97 6 1 0 0 46 0 78 17 16 1 0 40 38 33 31 23 21 16 28 17 28 9 7 0 15 1 15 8 9 22 
CALL[ ]	/* CallFunction */";
};
width = 451;
}
);
note = ograve;
unicode = 242;
},
{
glyphname = oacute;
kernLeft = o;
kernRight = o;
layers = (
{
layerId = m01;
shapes = (
{
closed = 1;
nodes = (
(92,37,qs),
(33,92,o),
(33,188,qs),
(33,271,o),
(78,324,qs),
(131,384,o),
(225,384,qs),
(306,384,o),
(358,338,qs),
(417,284,o),
(417,188,qs),
(417,105,o),
(372,52,qs),
(320,-10,o),
(226,-10,qs),
(144,-10,o)
);
},
{
closed = 1;
nodes = (
(287,102,qs),
(319,129,o),
(319,186,qs),
(319,236,o),
(269,294,o),
(225,294,qs),
(181,294,o),
(131,237,o),
(131,187,qs),
(131,137,o),
(181,81,o),
(225,81,qs),
(263,81,o)
);
},
{
closed = 1;
nodes = (
(131,439,o),
(134,442,qs),
(218,518,ls),
(230,528,o),
(245,528,qs),
(324,528,ls),
(330,528,o),
(332,519,o),
(328,516,qs),
(239,441,l),
(224,430,o),
(206,430,qs),
(139,430,ls),
(135,430,o)
);
}
);
userData = {
assembly = "NPUSHB[ ]	/* 61 values pushed */
0 5 4 5 133 8 1 4 1 4 133 0 3 3 1 97 0 1 1 48 77 7 1 2 2 0 97 6 1 0 0 46 0 78 31 29 17 16 1 0 38 35 29 42 31 42 23 21 16 28 17 28 9 7 0 15 1 15 9 9 22 
CALL[ ]	/* CallFunction */";
};
width = 451;
}
);
note = oacute;
unicode = 243;
},
{
glyphname = ocircumflex;
kernLeft = o;
kernRight = o;
layers = (
{
layerId = m01;
shapes = (
{
closed = 1;
nodes = (
(92,37,qs),
(33,92,o),
(33,188,qs),
(33,271,o),
(78,324,qs),
(131,384,o),
(225,384,qs),
(306,384,o),
(358,338,qs),
(417,284,o),
(417,188,qs),
(417,105,o),
(372,52,qs),
(320,-10,o),
(226,-10,qs),
(144,-10,o)
);
},
{
closed = 1;
nodes = (
(287,102,qs),
(319,129,o),
(319,186,qs),
(319,236,o),
(269,294,o),
(225,294,qs),
(181,294,o),
(131,237,o),
(131,187,qs),
(131,137,o),
(181,81,o),
(225,81,qs),
(263,81,o)
);
},
{
closed = 1;
nodes = (
(171,430,o),
(151,430,qs),
(92,430,ls),
(87,430,o),
(84,439,o),
(87,442,qs),
(162,518,ls),
(172,528,o),
(190,528,qs),
(264,528,ls),
(283,528,o),
(292,518,qs),
(366,442,l),
(370,439,o),
(366,430,o),
(360,430,qs),
(302,430,ls),
(282,430,o),
(271,443,qs),
(227,493,l),
(182,443,ls)
);
}
);
userData = {
assembly = "NPUSHB[ ]	/* 65 values pushed */
43 1 4 5 1 76 0 5 4 5 133 6 1 4 1 4 133 0 3 3 1 97 0 1 1 48 77 8 1 2 2 0 97 7 1 0 0 46 0 78 17 16 1 0 48 45 41 38 33 31 23 21 16 28 17 28 9 7 0 15 1 15 9 9 22 
CALL[ ]	/* CallFunction */";
};
width = 451;
}
);
note = ocircumflex;
unicode = 244;
},
{
glyphname = otilde;
kernLeft = o;
kernRight = o;
layers = (
{
layerId = m01;
shapes = (
{
closed = 1;
nodes = (
(92,37,qs),
(33,92,o),
(33,188,qs),
(33,271,o),
(78,324,qs),
(131,384,o),
(225,384,qs),
(306,384,o),
(358,338,qs),
(417,284,o),
(417,188,qs),
(417,105,o),
(372,52,qs),
(320,-10,o),
(226,-10,qs),
(144,-10,o)
);
},
{
closed = 1;
nodes = (
(287,102,qs),
(319,129,o),
(319,186,qs),
(319,236,o),
(269,294,o),
(225,294,qs),
(181,294,o),
(131,237,o),
(131,187,qs),
(131,137,o),
(181,81,o),
(225,81,qs),
(263,81,o)
);
},
{
closed = 1;
nodes = (
(87,440,qs),
(93,528,o),
(157,528,qs),
(182,528,o),
(224,511,qs),
(258,497,o),
(272,497,qs),
(289,497,o),
(294,518,q),
(295,528,o),
(305,528,qs),
(346,528,ls),
(357,528,o),
(356,518,qs),
(351,472,o),
(315,432,o),
(279,432,qs),
(257,432,o),
(216,448,qs),
(183,461,o),
(171,461,qs),
(153,461,o),
(150,439,qs),
(148,429,o),
(137,429,qs),
(97,429,ls),
(87,429,o)
);
}
);
userData = {
assembly = "MPPEM[ ]	/* MeasurePixelPerEm */
PUSHB[ ]	/* 1 value pushed */
30 
LT[ ]	/* LessThan */
IF[ ]	/* If */
NPUSHB[ ]	/* 47 values pushed */
0 5 8 4 4 5 114 9 1 7 8 4 7 90 0 8 6 12 2 4 1 8 4 106 0 3 3 1 97 0 1 1 48 77 11 1 2 2 0 97 10 1 0 0 46 0 78 
ELSE[ ]	/* Else */
NPUSHB[ ]	/* 48 values pushed */
0 5 8 4 8 5 4 128 9 1 7 8 4 7 90 0 8 6 12 2 4 1 8 4 106 0 3 3 1 97 0 1 1 48 77 11 1 2 2 0 97 10 1 0 0 46 0 78 
EIF[ ]	/* EndIf */
NPUSHB[ ]	/* 35 values pushed */
31 29 17 16 1 0 53 51 49 47 45 42 39 37 35 33 29 55 31 55 23 21 16 28 17 28 9 7 0 15 1 15 13 9 22 
CALL[ ]	/* CallFunction */";
};
width = 451;
}
);
note = otilde;
unicode = 245;
},
{
glyphname = odieresis;
kernLeft = o;
kernRight = o;
layers = (
{
layerId = m01;
shapes = (
{
closed = 1;
nodes = (
(92,37,qs),
(33,92,o),
(33,188,qs),
(33,271,o),
(78,324,qs),
(131,384,o),
(225,384,qs),
(306,384,o),
(358,338,qs),
(417,284,o),
(417,188,qs),
(417,105,o),
(372,52,qs),
(320,-10,o),
(226,-10,qs),
(144,-10,o)
);
},
{
closed = 1;
nodes = (
(287,102,qs),
(319,129,o),
(319,186,qs),
(319,236,o),
(269,294,o),
(225,294,qs),
(181,294,o),
(131,237,o),
(131,187,qs),
(131,137,o),
(181,81,o),
(225,81,qs),
(263,81,o)
);
},
{
closed = 1;
nodes = (
(124,529,o),
(147,529,qs),
(170,529,o),
(201,497,o),
(201,474,qs),
(201,451,o),
(170,419,o),
(147,419,qs),
(125,419,o),
(93,451,o),
(93,474,qs),
(93,497,o)
);
},
{
closed = 1;
nodes = (
(281,529,o),
(305,529,qs),
(327,529,o),
(358,497,o),
(358,474,qs),
(358,451,o),
(327,419,o),
(305,419,qs),
(282,419,o),
(250,451,o),
(250,474,qs),
(250,498,o)
);
}
);
userData = {
assembly = "NPUSHB[ ]	/* 60 values pushed */
7 1 5 6 1 4 1 5 4 105 0 3 3 1 97 0 1 1 48 77 9 1 2 2 0 97 8 1 0 0 46 0 78 17 16 1 0 51 49 45 43 39 37 33 31 23 21 16 28 17 28 9 7 0 15 1 15 10 9 22 
CALL[ ]	/* CallFunction */";
};
width = 451;
}
);
note = odieresis;
unicode = 246;
},
{
glyphname = divide;
layers = (
{
layerId = m01;
shapes = (
{
closed = 1;
nodes = (
(33,242,qs),
(33,299,ls),
(33,311,o),
(44,311,qs),
(324,311,ls),
(385,311,o),
(385,254,qs),
(385,242,ls),
(385,231,o),
(374,231,qs),
(44,231,ls),
(33,231,o)
);
},
{
closed = 1;
nodes = (
(186,467,o),
(209,467,qs),
(232,467,o),
(262,436,o),
(262,413,qs),
(262,390,o),
(232,359,o),
(209,359,qs),
(186,359,o),
(155,391,o),
(155,413,qs),
(155,436,o)
);
},
{
closed = 1;
nodes = (
(186,182,o),
(209,182,qs),
(232,182,o),
(262,150,o),
(262,127,qs),
(262,104,o),
(232,74,o),
(209,74,qs),
(186,74,o),
(155,104,o),
(155,127,qs),
(155,150,o)
);
}
);
userData = {
assembly = "NPUSHB[ ]	/* 52 values pushed */
0 3 0 2 1 3 2 105 0 1 6 1 0 5 1 0 103 0 5 4 4 5 89 0 5 5 4 97 0 4 5 4 81 2 0 34 32 28 26 22 20 16 14 8 5 0 11 2 11 7 9 22 
CALL[ ]	/* CallFunction */";
};
width = 418;
}
);
note = divide;
unicode = 247;
},
{
glyphname = oslash;
kernLeft = o;
kernRight = o;
layers = (
{
layerId = m01;
shapes = (
{
closed = 1;
nodes = (
(239,294,o),
(225,294,qs),
(181,294,o),
(131,237,o),
(131,187,qs),
(131,146,o),
(149,119,q),
(258,287,l)
);
},
{
closed = 1;
nodes = (
(210,81,o),
(225,81,qs),
(263,81,o),
(288,102,qs),
(319,129,o),
(319,186,qs),
(319,221,o),
(305,248,q),
(201,84,l)
);
},
{
closed = 1;
nodes = (
(92,38,qs),
(33,92,o),
(33,188,qs),
(33,271,o),
(78,324,qs),
(131,384,o),
(225,384,qs),
(307,384,o),
(358,337,qs),
(418,283,o),
(418,188,qs),
(418,105,o),
(373,52,qs),
(320,-10,o),
(226,-10,qs),
(144,-10,o)
);
}
);
userData = {
assembly = "NPUSHB[ ]	/* 42 values pushed */
16 7 2 1 0 1 76 0 0 0 3 97 0 3 3 48 77 0 1 1 2 97 4 1 2 2 46 2 78 18 17 26 24 17 32 18 32 39 36 5 9 24 
CALL[ ]	/* CallFunction */";
};
width = 451;
}
);
note = oslash;
unicode = 248;
},
{
glyphname = ugrave;
kernLeft = u;
kernRight = u;
layers = (
{
layerId = m01;
shapes = (
{
closed = 1;
nodes = (
(93,36,qs),
(46,85,o),
(46,182,qs),
(46,364,ls),
(46,376,o),
(56,376,qs),
(61,376,ls),
(142,376,o),
(142,291,qs),
(142,170,ls),
(142,126,o),
(182,78,o),
(219,78,qs),
(299,78,o),
(299,169,qs),
(299,364,ls),
(299,376,o),
(310,376,qs),
(315,376,ls),
(395,376,o),
(395,291,qs),
(395,176,ls),
(395,-10,o),
(219,-10,qs),
(137,-10,o)
);
},
{
closed = 1;
nodes = (
(102,528,o),
(107,528,qs),
(187,528,ls),
(202,528,o),
(214,518,qs),
(297,442,ls),
(301,439,o),
(296,430,o),
(291,430,qs),
(225,430,ls),
(207,430,o),
(193,441,qs),
(103,516,ls),
(99,519,o)
);
}
);
userData = {
assembly = "NPUSHB[ ]	/* 47 values pushed */
0 5 4 5 133 0 4 1 4 133 3 1 1 1 42 77 0 2 2 0 98 6 1 0 0 46 0 78 1 0 36 34 29 27 19 16 12 10 7 4 0 24 1 24 7 9 22 
CALL[ ]	/* CallFunction */";
};
width = 441;
}
);
note = ugrave;
unicode = 249;
},
{
glyphname = uacute;
kernLeft = u;
kernRight = u;
layers = (
{
layerId = m01;
shapes = (
{
closed = 1;
nodes = (
(93,36,qs),
(46,85,o),
(46,182,qs),
(46,364,ls),
(46,376,o),
(56,376,qs),
(61,376,ls),
(142,376,o),
(142,291,qs),
(142,170,ls),
(142,126,o),
(182,78,o),
(219,78,qs),
(299,78,o),
(299,169,qs),
(299,364,ls),
(299,376,o),
(310,376,qs),
(315,376,ls),
(395,376,o),
(395,291,qs),
(395,176,ls),
(395,-10,o),
(219,-10,qs),
(137,-10,o)
);
},
{
closed = 1;
nodes = (
(118,439,o),
(121,442,qs),
(205,518,ls),
(217,528,o),
(232,528,qs),
(311,528,ls),
(317,528,o),
(319,519,o),
(315,516,qs),
(225,441,ls),
(211,430,o),
(193,430,qs),
(126,430,ls),
(121,430,o)
);
}
);
userData = {
assembly = "NPUSHB[ ]	/* 58 values pushed */
36 1 4 5 1 76 0 5 4 5 133 7 1 4 1 4 133 3 1 1 1 42 77 0 2 2 0 98 6 1 0 0 46 0 78 27 25 1 0 34 31 25 38 27 38 19 16 12 10 7 4 0 24 1 24 8 9 22 
CALL[ ]	/* CallFunction */";
};
width = 441;
}
);
note = uacute;
unicode = 250;
},
{
glyphname = ucircumflex;
kernLeft = u;
kernRight = u;
layers = (
{
layerId = m01;
shapes = (
{
closed = 1;
nodes = (
(93,36,qs),
(46,85,o),
(46,182,qs),
(46,364,ls),
(46,376,o),
(56,376,qs),
(61,376,ls),
(142,376,o),
(142,291,qs),
(142,170,ls),
(142,126,o),
(182,78,o),
(219,78,qs),
(299,78,o),
(299,169,qs),
(299,364,ls),
(299,376,o),
(310,376,qs),
(315,376,ls),
(395,376,o),
(395,291,qs),
(395,176,ls),
(395,-10,o),
(219,-10,qs),
(137,-10,o)
);
},
{
closed = 1;
nodes = (
(160,430,o),
(140,430,qs),
(81,430,ls),
(76,430,o),
(73,439,o),
(76,442,qs),
(151,518,ls),
(162,528,o),
(179,528,qs),
(253,528,ls),
(272,528,o),
(281,518,qs),
(355,442,l),
(359,439,o),
(355,430,o),
(349,430,qs),
(291,430,ls),
(271,430,o),
(260,443,qs),
(217,493,l),
(172,443,ls)
);
}
);
userData = {
assembly = "NPUSHB[ ]	/* 56 values pushed */
39 1 4 5 1 76 0 5 4 5 133 6 1 4 1 4 133 3 1 1 1 42 77 0 2 2 0 98 7 1 0 0 46 0 78 1 0 44 41 37 34 29 27 19 16 12 10 7 4 0 24 1 24 8 9 22 
CALL[ ]	/* CallFunction */";
};
width = 441;
}
);
note = ucircumflex;
unicode = 251;
},
{
glyphname = udieresis;
kernLeft = u;
kernRight = u;
layers = (
{
layerId = m01;
shapes = (
{
closed = 1;
nodes = (
(93,36,qs),
(46,85,o),
(46,182,qs),
(46,364,ls),
(46,376,o),
(56,376,qs),
(61,376,ls),
(142,376,o),
(142,291,qs),
(142,170,ls),
(142,126,o),
(182,78,o),
(219,78,qs),
(299,78,o),
(299,169,qs),
(299,364,ls),
(299,376,o),
(310,376,qs),
(315,376,ls),
(395,376,o),
(395,291,qs),
(395,176,ls),
(395,-10,o),
(219,-10,qs),
(137,-10,o)
);
},
{
closed = 1;
nodes = (
(118,529,o),
(142,529,qs),
(164,529,o),
(195,497,o),
(195,474,qs),
(195,451,o),
(164,419,o),
(142,419,qs),
(119,419,o),
(87,451,o),
(87,474,qs),
(87,497,o)
);
},
{
closed = 1;
nodes = (
(275,529,o),
(299,529,qs),
(321,529,o),
(352,497,o),
(352,474,qs),
(352,451,o),
(321,419,o),
(299,419,qs),
(276,419,o),
(244,451,o),
(244,474,qs),
(244,498,o)
);
}
);
userData = {
assembly = "NPUSHB[ ]	/* 51 values pushed */
7 1 5 6 1 4 1 5 4 105 3 1 1 1 42 77 0 2 2 0 98 8 1 0 0 46 0 78 1 0 47 45 41 39 35 33 29 27 19 16 12 10 7 4 0 24 1 24 9 9 22 
CALL[ ]	/* CallFunction */";
};
width = 441;
}
);
note = udieresis;
unicode = 252;
},
{
glyphname = yacute;
kernLeft = y;
kernRight = y;
layers = (
{
layerId = m01;
shapes = (
{
closed = 1;
nodes = (
(10,368,o),
(14,376,o),
(17,376,qs),
(38,376,ls),
(79,376,o),
(117,343,o),
(135,295,qs),
(197,109,l),
(281,363,ls),
(286,376,o),
(297,376,qs),
(371,376,ls),
(381,376,o),
(377,364,qs),
(247,-1,ls),
(214,-97,o),
(146,-171,o),
(92,-171,qs),
(51,-171,o),
(-6,-120,o),
(-6,-82,qs),
(-6,-63,o),
(6,-63,qs),
(9,-63,o),
(15,-68,qs),
(43,-88,o),
(69,-88,qs),
(96,-88,o),
(128,-54,o),
(145,-9,q),
(11,364,ls)
);
},
{
closed = 1;
nodes = (
(102,439,o),
(106,442,qs),
(190,518,ls),
(202,528,o),
(216,528,qs),
(296,528,ls),
(301,528,o),
(304,519,o),
(300,516,qs),
(210,441,ls),
(196,430,o),
(177,430,qs),
(111,430,ls),
(106,430,o)
);
}
);
userData = {
assembly = "NPUSHB[ ]	/* 58 values pushed */
22 1 1 3 1 76 0 6 5 6 133 7 1 5 3 5 133 0 1 3 0 3 1 0 128 4 1 3 3 42 77 0 0 0 2 98 0 2 2 50 2 78 33 31 40 37 31 44 33 44 37 52 35 34 34 8 9 27 
CALL[ ]	/* CallFunction */";
};
width = 388;
}
);
note = yacute;
unicode = 253;
},
{
glyphname = thorn;
layers = (
{
layerId = m01;
shapes = (
{
closed = 1;
nodes = (
(141,-160,o),
(131,-160,qs),
(56,-160,ls),
(47,-160,o),
(47,-149,qs),
(47,544,ls),
(47,556,o),
(56,556,qs),
(61,556,ls),
(141,556,o),
(141,472,qs),
(141,334,l),
(182,384,o),
(253,384,qs),
(331,384,o),
(379,335,qs),
(430,282,o),
(430,189,qs),
(430,110,o),
(392,57,qs),
(345,-9,o),
(259,-9,qs),
(181,-9,o),
(141,44,q),
(141,-149,ls)
);
},
{
closed = 1;
nodes = (
(331,141,o),
(331,190,qs),
(331,238,o),
(280,294,o),
(236,294,qs),
(192,294,o),
(141,239,o),
(141,190,qs),
(141,140,o),
(193,81,o),
(238,81,qs),
(280,81,o)
);
}
);
userData = {
assembly = "NPUSHB[ ]	/* 57 values pushed */
12 1 5 1 0 1 0 4 2 76 0 2 2 39 77 0 5 5 1 97 0 1 1 48 77 6 1 4 4 0 97 0 0 0 46 77 0 3 3 44 3 78 26 25 32 30 25 36 26 36 51 51 38 33 7 9 26 
CALL[ ]	/* CallFunction */";
};
width = 462;
}
);
note = thorn;
unicode = 254;
},
{
glyphname = ydieresis;
kernLeft = y;
kernRight = y;
layers = (
{
layerId = m01;
shapes = (
{
closed = 1;
nodes = (
(10,368,o),
(14,376,o),
(17,376,qs),
(38,376,ls),
(79,376,o),
(117,343,o),
(135,295,qs),
(197,109,l),
(281,363,ls),
(286,376,o),
(297,376,qs),
(371,376,ls),
(381,376,o),
(377,364,qs),
(247,-1,ls),
(214,-97,o),
(146,-171,o),
(92,-171,qs),
(51,-171,o),
(-6,-120,o),
(-6,-82,qs),
(-6,-63,o),
(6,-63,qs),
(9,-63,o),
(15,-68,qs),
(43,-88,o),
(69,-88,qs),
(96,-88,o),
(128,-54,o),
(145,-9,q),
(11,364,ls)
);
},
{
closed = 1;
nodes = (
(90,529,o),
(113,529,qs),
(136,529,o),
(167,497,o),
(167,474,qs),
(167,451,o),
(136,419,o),
(113,419,qs),
(91,419,o),
(59,451,o),
(59,474,qs),
(59,497,o)
);
},
{
closed = 1;
nodes = (
(247,529,o),
(271,529,qs),
(293,529,o),
(324,497,o),
(324,474,qs),
(324,451,o),
(293,419,o),
(271,419,qs),
(248,419,o),
(216,451,o),
(216,474,qs),
(216,498,o)
);
}
);
userData = {
assembly = "NPUSHB[ ]	/* 53 values pushed */
22 1 1 3 1 76 0 1 3 0 3 1 0 128 8 1 6 7 1 5 3 6 5 105 4 1 3 3 42 77 0 0 0 2 98 0 2 2 50 2 78 36 36 36 38 37 52 35 34 34 9 9 31 
CALL[ ]	/* CallFunction */";
};
width = 388;
}
);
note = ydieresis;
unicode = 255;
},
{
glyphname = dotlessi;
kernLeft = r;
kernRight = i;
layers = (
{
layerId = m01;
shapes = (
{
closed = 1;
nodes = (
(46,11,qs),
(46,364,ls),
(46,376,o),
(57,376,qs),
(62,376,ls),
(141,376,o),
(141,291,qs),
(141,11,ls),
(141,0,o),
(131,0,qs),
(57,0,ls),
(46,0,o)
);
}
);
userData = {
assembly = "NPUSHB[ ]	/* 23 values pushed */
0 1 1 42 77 2 1 0 0 40 0 78 2 0 8 5 0 11 2 11 3 9 22 
CALL[ ]	/* CallFunction */";
};
width = 188;
}
);
note = dotlessi;
unicode = 305;
},
{
glyphname = Lslash;
layers = (
{
layerId = m01;
shapes = (
{
closed = 1;
nodes = (
(373,91,o),
(373,35,qs),
(373,14,ls),
(373,0,o),
(358,0,qs),
(79,0,ls),
(69,0,o),
(69,11,qs),
(69,196,l),
(29,174,ls),
(24,171,o),
(16,175,o),
(16,180,qs),
(16,241,ls),
(16,253,o),
(28,259,qs),
(69,281,l),
(69,544,ls),
(69,556,o),
(79,556,qs),
(89,556,ls),
(167,556,o),
(167,468,qs),
(167,334,l),
(285,398,ls),
(290,401,o),
(298,397,o),
(298,393,qs),
(298,332,ls),
(298,318,o),
(287,313,qs),
(167,249,l),
(167,91,l),
(314,91,ls)
);
}
);
userData = {
assembly = "NPUSHB[ ]	/* 39 values pushed */
24 20 16 9 5 1 6 2 0 1 76 0 0 0 39 77 3 1 2 2 1 96 0 1 1 40 1 78 0 0 0 33 0 32 60 59 4 9 24 
CALL[ ]	/* CallFunction */";
};
width = 389;
}
);
note = Lslash;
unicode = 321;
},
{
glyphname = lslash;
layers = (
{
layerId = m01;
shapes = (
{
closed = 1;
nodes = (
(24,171,o),
(16,175,o),
(16,180,qs),
(16,237,ls),
(16,250,o),
(28,256,qs),
(64,274,l),
(64,544,ls),
(64,556,o),
(75,556,qs),
(80,556,ls),
(159,556,o),
(159,472,qs),
(159,327,l),
(207,353,l),
(219,358,o),
(219,346,qs),
(219,289,ls),
(219,277,o),
(208,271,qs),
(159,245,l),
(159,128,ls),
(159,76,o),
(198,76,qs),
(222,76,o),
(242,95,qs),
(244,97,l),
(250,100,o),
(253,100,qs),
(263,100,o),
(263,87,qs),
(263,44,o),
(210,-8,o),
(167,-8,qs),
(64,-8,o),
(64,119,qs),
(64,193,l),
(29,174,ls)
);
}
);
userData = {
assembly = "NPUSHB[ ]	/* 41 values pushed */
34 30 23 16 0 5 1 3 1 76 0 1 3 2 3 1 2 128 0 3 3 39 77 0 2 2 0 98 0 0 0 46 0 78 59 36 19 34 4 9 26 
CALL[ ]	/* CallFunction */";
};
width = 263;
}
);
note = lslash;
unicode = 322;
},
{
glyphname = OE;
kernLeft = O;
kernRight = E;
layers = (
{
layerId = m01;
shapes = (
{
closed = 1;
nodes = (
(796,91,o),
(796,35,qs),
(796,14,ls),
(796,0,o),
(782,0,qs),
(471,0,ls),
(461,0,o),
(461,11,qs),
(461,47,l),
(399,-10,o),
(304,-10,qs),
(189,-10,o),
(121,57,qs),
(44,134,o),
(44,277,qs),
(44,401,o),
(104,477,qs),
(174,566,o),
(304,566,qs),
(401,566,o),
(461,507,q),
(461,544,ls),
(461,556,o),
(471,556,qs),
(730,556,ls),
(787,556,o),
(787,499,qs),
(787,478,ls),
(787,464,o),
(774,464,qs),
(560,464,l),
(560,323,l),
(710,323,ls),
(768,323,o),
(768,269,qs),
(768,247,ls),
(768,233,o),
(754,233,qs),
(560,233,l),
(560,91,l),
(738,91,ls)
);
},
{
closed = 1;
nodes = (
(461,277,qs),
(461,472,o),
(304,472,qs),
(238,472,o),
(198,436,qs),
(144,387,o),
(144,277,qs),
(144,84,o),
(304,84,qs),
(461,84,o)
);
}
);
userData = {
assembly = "MPPEM[ ]	/* MeasurePixelPerEm */
PUSHB[ ]	/* 1 value pushed */
20 
LT[ ]	/* LessThan */
IF[ ]	/* If */
NPUSHB[ ]	/* 10 values pushed */
19 1 2 3 31 1 5 7 2 76 
ELSE[ ]	/* Else */
MPPEM[ ]	/* MeasurePixelPerEm */
PUSHB[ ]	/* 1 value pushed */
24 
LT[ ]	/* LessThan */
IF[ ]	/* If */
NPUSHB[ ]	/* 10 values pushed */
19 1 2 3 31 1 6 7 2 76 
ELSE[ ]	/* Else */
MPPEM[ ]	/* MeasurePixelPerEm */
PUSHB[ ]	/* 1 value pushed */
26 
LT[ ]	/* LessThan */
IF[ ]	/* If */
NPUSHB[ ]	/* 10 values pushed */
19 1 9 3 31 1 6 7 2 76 
ELSE[ ]	/* Else */
NPUSHB[ ]	/* 10 values pushed */
19 1 9 3 31 1 6 8 2 76 
EIF[ ]	/* EndIf */
EIF[ ]	/* EndIf */
EIF[ ]	/* EndIf */
MPPEM[ ]	/* MeasurePixelPerEm */
PUSHB[ ]	/* 1 value pushed */
20 
LT[ ]	/* LessThan */
IF[ ]	/* If */
NPUSHB[ ]	/* 35 values pushed */
0 1 0 0 7 1 0 103 9 1 2 2 3 97 4 1 3 3 39 77 11 8 10 3 7 7 5 97 6 1 5 5 46 5 78 
ELSE[ ]	/* Else */
MPPEM[ ]	/* MeasurePixelPerEm */
PUSHB[ ]	/* 1 value pushed */
24 
LT[ ]	/* LessThan */
IF[ ]	/* If */
NPUSHB[ ]	/* 57 values pushed */
0 1 0 0 7 1 0 103 9 1 2 2 4 97 0 4 4 39 77 9 1 2 2 3 95 0 3 3 39 77 11 8 10 3 7 7 6 95 0 6 6 40 77 11 8 10 3 7 7 5 97 0 5 5 46 5 78 
ELSE[ ]	/* Else */
MPPEM[ ]	/* MeasurePixelPerEm */
PUSHB[ ]	/* 1 value pushed */
26 
LT[ ]	/* LessThan */
IF[ ]	/* If */
NPUSHB[ ]	/* 55 values pushed */
0 1 0 0 7 1 0 103 0 9 9 4 97 0 4 4 39 77 0 2 2 3 95 0 3 3 39 77 11 8 10 3 7 7 6 95 0 6 6 40 77 11 8 10 3 7 7 5 97 0 5 5 46 5 78 
ELSE[ ]	/* Else */
MPPEM[ ]	/* MeasurePixelPerEm */
PUSHB[ ]	/* 1 value pushed */
39 
LT[ ]	/* LessThan */
IF[ ]	/* If */
NPUSHB[ ]	/* 51 values pushed */
0 1 0 0 7 1 0 103 0 9 9 4 97 0 4 4 39 77 0 2 2 3 95 0 3 3 39 77 10 1 7 7 6 95 0 6 6 40 77 11 1 8 8 5 97 0 5 5 46 5 78 
ELSE[ ]	/* Else */
NPUSHB[ ]	/* 49 values pushed */
0 4 0 9 2 4 9 105 0 1 0 0 7 1 0 103 0 2 2 3 95 0 3 3 39 77 10 1 7 7 6 95 0 6 6 40 77 11 1 8 8 5 97 0 5 5 46 5 78 
EIF[ ]	/* EndIf */
EIF[ ]	/* EndIf */
EIF[ ]	/* EndIf */
EIF[ ]	/* EndIf */
NPUSHB[ ]	/* 24 values pushed */
42 41 0 0 48 46 41 50 42 50 0 40 0 39 51 38 35 51 33 35 33 12 9 29 
CALL[ ]	/* CallFunction */";
};
width = 822;
}
);
note = OE;
unicode = 338;
},
{
glyphname = oe;
kernLeft = o;
kernRight = e;
layers = (
{
layerId = m01;
shapes = (
{
closed = 1;
nodes = (
(226,-10,qs),
(144,-10,o),
(92,38,qs),
(33,92,o),
(33,188,qs),
(33,271,o),
(78,324,qs),
(131,384,o),
(225,384,qs),
(314,384,o),
(365,323,q),
(414,384,o),
(497,384,qs),
(576,384,o),
(622,338,qs),
(667,291,o),
(667,214,qs),
(667,189,o),
(665,167,qs),
(664,154,o),
(649,154,qs),
(412,154,l),
(423,72,o),
(521,72,qs),
(578,72,o),
(635,102,q),
(636,102,o),
(637,103,q),
(646,108,o),
(650,108,qs),
(660,108,o),
(660,94,qs),
(660,59,o),
(630,30,qs),
(587,-10,o),
(507,-10,qs),
(415,-10,o),
(366,53,q),
(315,-10,o)
);
},
{
closed = 1;
nodes = (
(288,102,qs),
(319,129,o),
(319,186,qs),
(319,236,o),
(269,294,o),
(225,294,qs),
(181,294,o),
(131,237,o),
(131,187,qs),
(131,136,o),
(180,81,o),
(225,81,qs),
(263,81,o)
);
},
{
closed = 1;
nodes = (
(576,259,o),
(535,303,o),
(497,303,qs),
(461,303,o),
(416,261,o),
(413,223,q),
(572,223,l)
);
}
);
userData = {
assembly = "MPPEM[ ]	/* MeasurePixelPerEm */
PUSHB[ ]	/* 1 value pushed */
22 
LT[ ]	/* LessThan */
IF[ ]	/* If */
PUSHB[ ]	/* 6 values pushed */
27 1 8 4 1 76 
ELSE[ ]	/* Else */
PUSHB[ ]	/* 6 values pushed */
27 1 9 4 1 76 
EIF[ ]	/* EndIf */
MPPEM[ ]	/* MeasurePixelPerEm */
PUSHB[ ]	/* 1 value pushed */
22 
LT[ ]	/* LessThan */
IF[ ]	/* If */
NPUSHB[ ]	/* 43 values pushed */
0 1 3 2 3 1 2 128 12 1 10 0 3 1 10 3 103 9 1 8 8 4 97 5 1 4 4 48 77 11 7 2 2 2 0 97 6 1 0 0 46 0 78 
ELSE[ ]	/* Else */
NPUSHB[ ]	/* 63 values pushed */
0 1 3 7 3 1 7 128 12 1 10 0 3 1 10 3 103 0 9 9 4 97 5 1 4 4 48 77 0 8 8 4 97 5 1 4 4 48 77 11 1 7 7 0 97 6 1 0 0 46 77 0 2 2 0 97 6 1 0 0 46 0 78 
EIF[ ]	/* EndIf */
NPUSHB[ ]	/* 26 values pushed */
52 52 40 39 52 58 52 58 56 54 46 44 39 51 40 51 38 34 38 33 37 20 33 13 9 29 
CALL[ ]	/* CallFunction */";
};
width = 698;
}
);
note = oe;
unicode = 339;
},
